IntelOneMono-Light.ufo
<glyph name="exclam" format="2">
  <advance width="614"/>
  <unicode hex="0021"/>
  <outline>
    <contour>
      <point x="324" y="227" type="line"/>
      <point x="290" y="227" type="line"/>
      <point x="248" y="710" type="line"/>
      <point x="367" y="710" type="line"/>
    </contour>
    <contour>
      <point x="368" y="37" type="qcurve"/>
      <point x="368" y="13"/>
      <point x="335" y="-15"/>
      <point x="306" y="-15" type="qcurve"/>
      <point x="279" y="-15"/>
      <point x="246" y="14"/>
      <point x="246" y="40" type="qcurve"/>
      <point x="246" y="62"/>
      <point x="281" y="92"/>
      <point x="308" y="92" type="qcurve"/>
      <point x="337" y="92"/>
      <point x="368" y="63"/>
    </contour>
  </outline>
</glyph>
<glyph name="quotedbl" format="2">
  <advance width="614"/>
  <unicode hex="0022"/>
  <outline>
    <contour>
      <point x="401" y="426" type="line"/>
      <point x="459" y="426" type="line"/>
      <point x="480" y="710" type="line"/>
      <point x="380" y="710" type="line"/>
    </contour>
    <contour>
      <point x="155" y="426" type="line"/>
      <point x="213" y="426" type="line"/>
      <point x="234" y="710" type="line"/>
      <point x="134" y="710" type="line"/>
    </contour>
  </outline>
</glyph>
<glyph name="numbersign" format="2">
  <advance width="614"/>
  <unicode hex="0023"/>
  <outline>
    <contour>
      <point x="158" y="186" type="line"/>
      <point x="43" y="186" type="line"/>
      <point x="43" y="236" type="line"/>
      <point x="168" y="236" type="line"/>
      <point x="204" y="424" type="line"/>
      <point x="73" y="424" type="line"/>
      <point x="73" y="475" type="line"/>
      <point x="214" y="475" type="line"/>
      <point x="251" y="666" type="line"/>
      <point x="302" y="666" type="line"/>
      <point x="264" y="471" type="line"/>
      <point x="407" y="471" type="line"/>
      <point x="445" y="666" type="line"/>
      <point x="496" y="666" type="line"/>
      <point x="459" y="475" type="line"/>
      <point x="571" y="475" type="line"/>
      <point x="571" y="424" type="line"/>
      <point x="449" y="424" type="line"/>
      <point x="413" y="236" type="line"/>
      <point x="542" y="236" type="line"/>
      <point x="542" y="186" type="line"/>
      <point x="403" y="186" type="line"/>
      <point x="365" y="-12" type="line"/>
      <point x="313" y="-12" type="line"/>
      <point x="353" y="190" type="line"/>
      <point x="209" y="190" type="line"/>
      <point x="170" y="-12" type="line"/>
      <point x="120" y="-12" type="line"/>
    </contour>
    <contour>
      <point x="217" y="232" type="line"/>
      <point x="361" y="232" type="line"/>
      <point x="399" y="428" type="line"/>
      <point x="255" y="428" type="line"/>
    </contour>
  </outline>
</glyph>
<glyph name="dollar" format="2">
  <advance width="614"/>
  <unicode hex="0024"/>
  <outline>
    <contour>
      <point x="343" y="1" type="qcurve"/>
      <point x="343" y="-142" type="line"/>
      <point x="290" y="-142" type="line"/>
      <point x="290" y="0" type="line"/>
      <point x="241" y="2"/>
      <point x="136" y="26"/>
      <point x="75" y="49" type="qcurve"/>
      <point x="94" y="102" type="line"/>
      <point x="152" y="80"/>
      <point x="256" y="53"/>
      <point x="294" y="51" type="qcurve"/>
      <point x="294" y="311" type="line"/>
      <point x="197" y="338"/>
      <point x="103" y="430"/>
      <point x="103" y="499" type="qcurve"/>
      <point x="103" y="562"/>
      <point x="204" y="648"/>
      <point x="290" y="654" type="qcurve"/>
      <point x="290" y="797" type="line"/>
      <point x="343" y="797" type="line"/>
      <point x="343" y="655" type="line"/>
      <point x="381" y="653"/>
      <point x="459" y="639"/>
      <point x="519" y="623" type="qcurve"/>
      <point x="504" y="570" type="line"/>
      <point x="457" y="586"/>
      <point x="375" y="602"/>
      <point x="339" y="604" type="qcurve"/>
      <point x="339" y="366" type="line"/>
      <point x="446" y="332"/>
      <point x="535" y="249"/>
      <point x="535" y="179" type="qcurve"/>
      <point x="535" y="101"/>
      <point x="435" y="9"/>
    </contour>
    <contour>
      <point x="166" y="503" type="qcurve"/>
      <point x="166" y="455"/>
      <point x="226" y="396"/>
      <point x="294" y="373" type="qcurve"/>
      <point x="294" y="604" type="line"/>
      <point x="232" y="600"/>
      <point x="166" y="547"/>
    </contour>
    <contour>
      <point x="472" y="177" type="qcurve"/>
      <point x="472" y="222"/>
      <point x="409" y="281"/>
      <point x="339" y="304" type="qcurve"/>
      <point x="339" y="51" type="line"/>
      <point x="404" y="58"/>
      <point x="472" y="123"/>
    </contour>
  </outline>
</glyph>
<glyph name="ampersand" format="2">
  <advance width="614"/>
  <unicode hex="0026"/>
  <outline>
    <contour>
      <point x="316" y="669" type="qcurve"/>
      <point x="341" y="669"/>
      <point x="410" y="659"/>
      <point x="472" y="647" type="qcurve"/>
      <point x="461" y="596" type="line"/>
      <point x="408" y="608"/>
      <point x="337" y="618"/>
      <point x="307" y="618" type="qcurve"/>
      <point x="266" y="618"/>
      <point x="219" y="579"/>
      <point x="219" y="546" type="qcurve"/>
      <point x="219" y="523"/>
      <point x="245" y="469"/>
      <point x="273" y="429" type="qcurve"/>
      <point x="412" y="236" type="line"/>
      <point x="481" y="435" type="line"/>
      <point x="531" y="417" type="line"/>
      <point x="447" y="194" type="line"/>
      <point x="592" y="0" type="line"/>
      <point x="517" y="0" type="line"/>
      <point x="417" y="137" type="line"/>
      <point x="381" y="58"/>
      <point x="295" y="-5"/>
      <point x="222" y="-5" type="qcurve"/>
      <point x="151" y="-5"/>
      <point x="61" y="87"/>
      <point x="61" y="162" type="qcurve"/>
      <point x="61" y="248"/>
      <point x="144" y="335"/>
      <point x="249" y="368" type="qcurve"/>
      <point x="221" y="407" type="line"/>
      <point x="189" y="451"/>
      <point x="161" y="514"/>
      <point x="161" y="540" type="qcurve"/>
      <point x="161" y="598"/>
      <point x="244" y="669"/>
    </contour>
    <contour>
      <point x="121" y="166" type="qcurve"/>
      <point x="121" y="111"/>
      <point x="181" y="47"/>
      <point x="230" y="47" type="qcurve"/>
      <point x="286" y="47"/>
      <point x="353" y="105"/>
      <point x="384" y="178" type="qcurve"/>
      <point x="276" y="329" type="line"/>
      <point x="189" y="300"/>
      <point x="121" y="242"/>
    </contour>
  </outline>
</glyph>
<glyph name="parenright" format="2">
  <advance width="614"/>
  <unicode hex="0029"/>
  <outline>
    <contour>
      <point x="491" y="332" type="qcurve"/>
      <point x="491" y="191"/>
      <point x="311" y="-47"/>
      <point x="130" y="-145" type="qcurve"/>
      <point x="105" y="-102" type="line"/>
      <point x="269" y="-9"/>
      <point x="429" y="204"/>
      <point x="429" y="329" type="qcurve"/>
      <point x="429" y="454"/>
      <point x="269" y="667"/>
      <point x="105" y="760" type="qcurve"/>
      <point x="130" y="803" type="line"/>
      <point x="312" y="705"/>
      <point x="491" y="471"/>
    </contour>
  </outline>
</glyph>
<glyph name="asterisk" format="2">
  <advance width="614"/>
  <unicode hex="002A"/>
  <outline>
    <contour>
      <point x="183" y="163" type="qcurve"/>
      <point x="111" y="225" type="line"/>
      <point x="123" y="239"/>
      <point x="158" y="270"/>
      <point x="199" y="302" type="qcurve"/>
      <point x="237" y="331"/>
      <point x="271" y="361"/>
      <point x="283" y="374" type="qcurve"/>
      <point x="266" y="379"/>
      <point x="222" y="389"/>
      <point x="175" y="396" type="qcurve"/>
      <point x="124" y="404"/>
      <point x="78" y="414"/>
      <point x="61" y="420" type="qcurve"/>
      <point x="93" y="510" type="line"/>
      <point x="109" y="504"/>
      <point x="151" y="483"/>
      <point x="194" y="458" type="qcurve"/>
      <point x="235" y="433"/>
      <point x="275" y="413"/>
      <point x="291" y="406" type="qcurve"/>
      <point x="290" y="424"/>
      <point x="284" y="468"/>
      <point x="275" y="514" type="qcurve"/>
      <point x="266" y="565"/>
      <point x="260" y="612"/>
      <point x="260" y="630" type="qcurve"/>
      <point x="355" y="630" type="line"/>
      <point x="355" y="612"/>
      <point x="349" y="565"/>
      <point x="339" y="514" type="qcurve"/>
      <point x="330" y="468"/>
      <point x="324" y="423"/>
      <point x="323" y="406" type="qcurve"/>
      <point x="339" y="413"/>
      <point x="379" y="433"/>
      <point x="420" y="458" type="qcurve"/>
      <point x="463" y="483"/>
      <point x="505" y="504"/>
      <point x="521" y="510" type="qcurve"/>
      <point x="553" y="420" type="line"/>
      <point x="536" y="414"/>
      <point x="490" y="404"/>
      <point x="439" y="396" type="qcurve"/>
      <point x="392" y="389"/>
      <point x="348" y="379"/>
      <point x="331" y="374" type="qcurve"/>
      <point x="343" y="361"/>
      <point x="377" y="331"/>
      <point x="415" y="302" type="qcurve"/>
      <point x="456" y="270"/>
      <point x="491" y="239"/>
      <point x="503" y="225" type="qcurve"/>
      <point x="431" y="163" type="line"/>
      <point x="420" y="176"/>
      <point x="394" y="215"/>
      <point x="368" y="259" type="qcurve"/>
      <point x="344" y="300"/>
      <point x="318" y="339"/>
      <point x="307" y="353" type="qcurve"/>
      <point x="296" y="339"/>
      <point x="270" y="300"/>
      <point x="246" y="259" type="qcurve"/>
      <point x="220" y="215"/>
      <point x="194" y="176"/>
    </contour>
  </outline>
</glyph>
<glyph name="hyphen" format="2">
  <advance width="614"/>
  <unicode hex="002D"/>
  <outline>
    <contour>
      <point x="120" y="299" type="line"/>
      <point x="120" y="354" type="line"/>
      <point x="494" y="354" type="line"/>
      <point x="494" y="299" type="line"/>
    </contour>
  </outline>
</glyph>
<glyph name="two" format="2">
  <advance width="614"/>
  <unicode hex="0032"/>
  <outline>
    <contour>
      <point x="538" y="0" type="line"/>
      <point x="91" y="0" type="line"/>
      <point x="91" y="37" type="line"/>
      <point x="312" y="274" type="line"/>
      <point x="410" y="379"/>
      <point x="458" y="454"/>
      <point x="458" y="495" type="qcurve"/>
      <point x="458" y="552"/>
      <point x="389" y="619"/>
      <point x="328" y="619" type="qcurve"/>
      <point x="275" y="619"/>
      <point x="188" y="571"/>
      <point x="114" y="501" type="qcurve"/>
      <point x="78" y="542" type="line"/>
      <point x="151" y="613"/>
      <point x="261" y="670"/>
      <point x="330" y="670" type="qcurve"/>
      <point x="415" y="670"/>
      <point x="521" y="573"/>
      <point x="521" y="496" type="qcurve"/>
      <point x="521" y="446"/>
      <point x="466" y="358"/>
      <point x="347" y="234" type="qcurve"/>
      <point x="175" y="54" type="line"/>
      <point x="175" y="51" type="line"/>
      <point x="538" y="51" type="line"/>
    </contour>
  </outline>
</glyph>
<glyph name="four" format="2">
  <advance width="614"/>
  <unicode hex="0034"/>
  <outline>
    <contour>
      <point x="383" y="186" type="line"/>
      <point x="59" y="186" type="line"/>
      <point x="59" y="233" type="line"/>
      <point x="358" y="655" type="line"/>
      <point x="446" y="655" type="line"/>
      <point x="446" y="237" type="line"/>
      <point x="578" y="237" type="line"/>
      <point x="578" y="186" type="line"/>
      <point x="446" y="186" type="line"/>
      <point x="446" y="0" type="line"/>
      <point x="383" y="0" type="line"/>
    </contour>
    <contour>
      <point x="387" y="235" type="line"/>
      <point x="387" y="606" type="line"/>
      <point x="126" y="239" type="line"/>
      <point x="126" y="235" type="line"/>
    </contour>
  </outline>
</glyph>
<glyph name="five" format="2">
  <advance width="614"/>
  <unicode hex="0035"/>
  <outline>
    <contour>
      <point x="338" y="420" type="qcurve"/>
      <point x="424" y="420"/>
      <point x="534" y="315"/>
      <point x="534" y="229" type="qcurve"/>
      <point x="534" y="127"/>
      <point x="378" y="13"/>
      <point x="221" y="0" type="qcurve"/>
      <point x="105" y="-10" type="line"/>
      <point x="100" y="42" type="line"/>
      <point x="219" y="53" type="line"/>
      <point x="349" y="65"/>
      <point x="471" y="148"/>
      <point x="471" y="227" type="qcurve"/>
      <point x="471" y="289"/>
      <point x="392" y="368"/>
      <point x="333" y="368" type="qcurve"/>
      <point x="287" y="368"/>
      <point x="197" y="337"/>
      <point x="154" y="307" type="qcurve"/>
      <point x="114" y="311" type="line"/>
      <point x="111" y="316" type="line"/>
      <point x="138" y="655" type="line"/>
      <point x="496" y="655" type="line"/>
      <point x="496" y="604" type="line"/>
      <point x="192" y="604" type="line"/>
      <point x="171" y="367" type="line"/>
      <point x="213" y="394"/>
      <point x="295" y="420"/>
    </contour>
  </outline>
</glyph>
<glyph name="six" format="2">
  <advance width="614"/>
  <unicode hex="0036"/>
  <outline>
    <contour>
      <point x="318" y="421" type="qcurve"/>
      <point x="414" y="421"/>
      <point x="534" y="304"/>
      <point x="534" y="211" type="qcurve"/>
      <point x="534" y="113"/>
      <point x="407" y="-15"/>
      <point x="309" y="-15" type="qcurve"/>
      <point x="213" y="-15"/>
      <point x="82" y="119"/>
      <point x="82" y="229" type="qcurve"/>
      <point x="82" y="327"/>
      <point x="152" y="467"/>
      <point x="249" y="557" type="qcurve"/>
      <point x="355" y="655" type="line"/>
      <point x="444" y="655" type="line"/>
      <point x="445" y="653" type="line"/>
      <point x="305" y="530" type="line"/>
      <point x="265" y="494"/>
      <point x="208" y="430"/>
      <point x="189" y="399" type="qcurve"/>
      <point x="222" y="410"/>
      <point x="285" y="421"/>
    </contour>
    <contour>
      <point x="163" y="344" type="qcurve"/>
      <point x="154" y="317"/>
      <point x="145" y="263"/>
      <point x="145" y="233" type="qcurve"/>
      <point x="145" y="145"/>
      <point x="238" y="36"/>
      <point x="311" y="36" type="qcurve"/>
      <point x="382" y="36"/>
      <point x="471" y="136"/>
      <point x="471" y="213" type="qcurve"/>
      <point x="471" y="284"/>
      <point x="382" y="370"/>
      <point x="308" y="370" type="qcurve"/>
      <point x="273" y="370"/>
      <point x="201" y="357"/>
    </contour>
  </outline>
</glyph>
<glyph name="colon" format="2">
  <advance width="614"/>
  <unicode hex="003A"/>
  <outline>
    <contour>
      <point x="378" y="402" type="qcurve"/>
      <point x="378" y="371"/>
      <point x="339" y="335"/>
      <point x="306" y="335" type="qcurve"/>
      <point x="274" y="335"/>
      <point x="236" y="373"/>
      <point x="236" y="405" type="qcurve"/>
      <point x="236" y="434"/>
      <point x="277" y="472"/>
      <point x="308" y="472" type="qcurve"/>
      <point x="342" y="472"/>
      <point x="378" y="436"/>
    </contour>
    <contour>
      <point x="378" y="52" type="qcurve"/>
      <point x="378" y="21"/>
      <point x="339" y="-15"/>
      <point x="306" y="-15" type="qcurve"/>
      <point x="274" y="-15"/>
      <point x="236" y="23"/>
      <point x="236" y="55" type="qcurve"/>
      <point x="236" y="84"/>
      <point x="277" y="122"/>
      <point x="308" y="122" type="qcurve"/>
      <point x="342" y="122"/>
      <point x="378" y="86"/>
    </contour>
  </outline>
</glyph>
<glyph name="semicolon" format="2">
  <advance width="614"/>
  <unicode hex="003B"/>
  <outline>
    <contour>
      <point x="386" y="402" type="qcurve"/>
      <point x="386" y="371"/>
      <point x="347" y="335"/>
      <point x="314" y="335" type="qcurve"/>
      <point x="282" y="335"/>
      <point x="244" y="373"/>
      <point x="244" y="405" type="qcurve"/>
      <point x="244" y="434"/>
      <point x="285" y="472"/>
      <point x="316" y="472" type="qcurve"/>
      <point x="350" y="472"/>
      <point x="386" y="436"/>
    </contour>
    <contour>
      <point x="227" y="-144" type="qcurve"/>
      <point x="164" y="-144" type="line"/>
      <point x="164" y="-142" type="line"/>
      <point x="224" y="-52"/>
      <point x="256" y="32"/>
      <point x="264" y="120" type="qcurve"/>
      <point x="364" y="120" type="line"/>
      <point x="354" y="21"/>
      <point x="309" y="-67"/>
    </contour>
  </outline>
</glyph>
<glyph name="at" format="2">
  <advance width="614"/>
  <unicode hex="0040"/>
  <outline>
    <contour>
      <point x="485" y="-15" type="qcurve"/>
      <point x="492" y="-60" type="line"/>
      <point x="444" y="-71"/>
      <point x="375" y="-79"/>
      <point x="341" y="-79" type="qcurve"/>
      <point x="192" y="-79"/>
      <point x="60" y="107"/>
      <point x="60" y="315" type="qcurve"/>
      <point x="60" y="526"/>
      <point x="191" y="725"/>
      <point x="334" y="725" type="qcurve"/>
      <point x="415" y="725"/>
      <point x="506" y="668"/>
      <point x="529" y="604" type="qcurve"/>
      <point x="545" y="562"/>
      <point x="560" y="440"/>
      <point x="560" y="358" type="qcurve"/>
      <point x="560" y="237"/>
      <point x="484" y="129"/>
      <point x="394" y="129" type="qcurve"/>
      <point x="305" y="129"/>
      <point x="224" y="222"/>
      <point x="224" y="323" type="qcurve"/>
      <point x="224" y="420"/>
      <point x="312" y="515"/>
      <point x="403" y="515" type="qcurve"/>
      <point x="504" y="515" type="line"/>
      <point x="491" y="606"/>
      <point x="414" y="680"/>
      <point x="328" y="680" type="qcurve"/>
      <point x="210" y="680"/>
      <point x="107" y="508"/>
      <point x="107" y="320" type="qcurve"/>
      <point x="107" y="134"/>
      <point x="219" y="-34"/>
      <point x="346" y="-34" type="qcurve"/>
      <point x="376" y="-34"/>
      <point x="445" y="-25"/>
    </contour>
    <contour>
      <point x="279" y="322" type="qcurve"/>
      <point x="279" y="244"/>
      <point x="334" y="175"/>
      <point x="398" y="175" type="qcurve"/>
      <point x="460" y="175"/>
      <point x="513" y="259"/>
      <point x="513" y="356" type="qcurve"/>
      <point x="513" y="392"/>
      <point x="511" y="446"/>
      <point x="509" y="469" type="qcurve"/>
      <point x="401" y="469" type="line"/>
      <point x="337" y="469"/>
      <point x="279" y="398"/>
    </contour>
  </outline>
</glyph>
<glyph name="A" format="2">
  <advance width="614"/>
  <unicode hex="0041"/>
  <outline>
    <contour>
      <point x="175" y="201" type="line"/>
      <point x="109" y="0" type="line"/>
      <point x="46" y="0" type="line"/>
      <point x="271" y="655" type="line"/>
      <point x="345" y="655" type="line"/>
      <point x="568" y="0" type="line"/>
      <point x="504" y="0" type="line"/>
      <point x="437" y="201" type="line"/>
    </contour>
    <contour>
      <point x="305" y="596" type="line"/>
      <point x="192" y="252" type="line"/>
      <point x="420" y="252" type="line"/>
    </contour>
  </outline>
</glyph>
<glyph name="H" format="2">
  <advance width="614"/>
  <unicode hex="0048"/>
  <outline>
    <contour>
      <point x="100" y="0" type="line"/>
      <point x="100" y="655" type="line"/>
      <point x="161" y="655" type="line"/>
      <point x="161" y="356" type="line"/>
      <point x="453" y="356" type="line"/>
      <point x="453" y="655" type="line"/>
      <point x="514" y="655" type="line"/>
      <point x="514" y="0" type="line"/>
      <point x="453" y="0" type="line"/>
      <point x="453" y="305" type="line"/>
      <point x="161" y="305" type="line"/>
      <point x="161" y="0" type="line"/>
    </contour>
  </outline>
</glyph>
<glyph name="I" format="2">
  <advance width="614"/>
  <unicode hex="0049"/>
  <outline>
    <contour>
      <point x="139" y="0" type="line"/>
      <point x="139" y="26" type="line"/>
      <point x="277" y="48" type="line"/>
      <point x="277" y="607" type="line"/>
      <point x="139" y="629" type="line"/>
      <point x="139" y="655" type="line"/>
      <point x="475" y="655" type="line"/>
      <point x="475" y="629" type="line"/>
      <point x="338" y="607" type="line"/>
      <point x="338" y="48" type="line"/>
      <point x="475" y="26" type="line"/>
      <point x="475" y="0" type="line"/>
    </contour>
  </outline>
</glyph>
<glyph name="J" format="2">
  <advance width="614"/>
  <unicode hex="004A"/>
  <outline>
    <contour>
      <point x="319" y="-10" type="qcurve"/>
      <point x="254" y="-10"/>
      <point x="147" y="51"/>
      <point x="58" y="134" type="qcurve"/>
      <point x="98" y="175" type="line"/>
      <point x="172" y="101"/>
      <point x="269" y="40"/>
      <point x="321" y="40" type="qcurve"/>
      <point x="381" y="40"/>
      <point x="442" y="111"/>
      <point x="442" y="182" type="qcurve"/>
      <point x="442" y="655" type="line"/>
      <point x="503" y="655" type="line"/>
      <point x="503" y="180" type="line"/>
      <point x="503" y="88"/>
      <point x="409" y="-10"/>
    </contour>
  </outline>
</glyph>
<glyph name="L" format="2">
  <advance width="614"/>
  <unicode hex="004C"/>
  <outline>
    <contour>
      <point x="103" y="0" type="line"/>
      <point x="103" y="655" type="line"/>
      <point x="164" y="655" type="line"/>
      <point x="164" y="50" type="line"/>
      <point x="539" y="50" type="line"/>
      <point x="539" y="0" type="line"/>
    </contour>
  </outline>
</glyph>
<glyph name="O" format="2">
  <advance width="614"/>
  <unicode hex="004F"/>
  <outline>
    <contour>
      <point x="307" y="670" type="qcurve"/>
      <point x="423" y="670"/>
      <point x="556" y="489"/>
      <point x="556" y="329" type="qcurve"/>
      <point x="556" y="168"/>
      <point x="423" y="-15"/>
      <point x="307" y="-15" type="qcurve"/>
      <point x="191" y="-15"/>
      <point x="58" y="165"/>
      <point x="58" y="325" type="qcurve"/>
      <point x="58" y="485"/>
      <point x="192" y="670"/>
    </contour>
    <contour>
      <point x="307" y="619" type="qcurve"/>
      <point x="218" y="619"/>
      <point x="121" y="467"/>
      <point x="121" y="327" type="qcurve"/>
      <point x="121" y="188"/>
      <point x="218" y="36"/>
      <point x="307" y="36" type="qcurve"/>
      <point x="396" y="36"/>
      <point x="493" y="188"/>
      <point x="493" y="327" type="qcurve"/>
      <point x="493" y="467"/>
      <point x="396" y="619"/>
    </contour>
  </outline>
</glyph>
<glyph name="P" format="2">
  <advance width="614"/>
  <unicode hex="0050"/>
  <outline>
    <contour>
      <point x="103" y="0" type="line"/>
      <point x="103" y="655" type="line"/>
      <point x="322" y="655" type="line"/>
      <point x="437" y="655"/>
      <point x="566" y="545"/>
      <point x="566" y="448" type="qcurve"/>
      <point x="566" y="349"/>
      <point x="427" y="236"/>
      <point x="306" y="236" type="qcurve"/>
      <point x="164" y="236" type="line"/>
      <point x="164" y="0" type="line"/>
    </contour>
    <contour>
      <point x="504" y="446" type="qcurve"/>
      <point x="504" y="522"/>
      <point x="408" y="604"/>
      <point x="318" y="604" type="qcurve"/>
      <point x="164" y="604" type="line"/>
      <point x="164" y="286" type="line"/>
      <point x="310" y="286" type="line"/>
      <point x="401" y="286"/>
      <point x="504" y="371"/>
    </contour>
  </outline>
</glyph>
<glyph name="Q" format="2">
  <advance width="614"/>
  <unicode hex="0051"/>
  <outline>
    <contour>
      <point x="470" y="56" type="qcurve"/>
      <point x="597" y="-102" type="line"/>
      <point x="553" y="-137" type="line"/>
      <point x="430" y="22" type="line"/>
      <point x="403" y="4"/>
      <point x="341" y="-15"/>
      <point x="307" y="-15" type="qcurve"/>
      <point x="191" y="-15"/>
      <point x="58" y="165"/>
      <point x="58" y="325" type="qcurve"/>
      <point x="58" y="485"/>
      <point x="192" y="670"/>
      <point x="307" y="670" type="qcurve"/>
      <point x="423" y="670"/>
      <point x="556" y="489"/>
      <point x="556" y="329" type="qcurve"/>
      <point x="556" y="242"/>
      <point x="512" y="102"/>
    </contour>
    <contour>
      <point x="307" y="619" type="qcurve"/>
      <point x="218" y="619"/>
      <point x="121" y="467"/>
      <point x="121" y="327" type="qcurve"/>
      <point x="121" y="187"/>
      <point x="218" y="35"/>
      <point x="307" y="35" type="qcurve"/>
      <point x="334" y="35"/>
      <point x="380" y="48"/>
      <point x="400" y="61" type="qcurve"/>
      <point x="285" y="206" type="line"/>
      <point x="326" y="237" type="line"/>
      <point x="437" y="97" type="line"/>
      <point x="465" y="134"/>
      <point x="493" y="250"/>
      <point x="493" y="327" type="qcurve"/>
      <point x="493" y="467"/>
      <point x="396" y="619"/>
    </contour>
  </outline>
</glyph>
<glyph name="V" format="2">
  <advance width="614"/>
  <unicode hex="0056"/>
  <outline>
    <contour>
      <point x="271" y="0" type="line"/>
      <point x="46" y="655" type="line"/>
      <point x="109" y="655" type="line"/>
      <point x="309" y="69" type="line"/>
      <point x="507" y="655" type="line"/>
      <point x="568" y="655" type="line"/>
      <point x="343" y="0" type="line"/>
    </contour>
  </outline>
</glyph>
<glyph name="Y" format="2">
  <advance width="614"/>
  <unicode hex="0059"/>
  <outline>
    <contour>
      <point x="491" y="655" type="line"/>
      <point x="561" y="655" type="line"/>
      <point x="338" y="283" type="line"/>
      <point x="338" y="0" type="line"/>
      <point x="277" y="0" type="line"/>
      <point x="277" y="279" type="line"/>
      <point x="53" y="655" type="line"/>
      <point x="125" y="655" type="line"/>
      <point x="308" y="340" type="line"/>
    </contour>
  </outline>
</glyph>
<glyph name="bracketleft" format="2">
  <advance width="614"/>
  <unicode hex="005B"/>
  <outline>
    <contour>
      <point x="514" y="-129" type="line"/>
      <point x="205" y="-129" type="line"/>
      <point x="205" y="783" type="line"/>
      <point x="514" y="783" type="line"/>
      <point x="514" y="732" type="line"/>
      <point x="266" y="732" type="line"/>
      <point x="266" y="-78" type="line"/>
      <point x="514" y="-78" type="line"/>
    </contour>
  </outline>
</glyph>
<glyph name="asciicircum" format="2">
  <advance width="614"/>
  <unicode hex="005E"/>
  <outline>
    <contour>
      <point x="127" y="271" type="line"/>
      <point x="59" y="271" type="line"/>
      <point x="276" y="655" type="line"/>
      <point x="336" y="655" type="line"/>
      <point x="555" y="271" type="line"/>
      <point x="486" y="271" type="line"/>
      <point x="306" y="599" type="line"/>
    </contour>
  </outline>
</glyph>
<glyph name="c" format="2">
  <advance width="614"/>
  <unicode hex="0063"/>
  <outline>
    <contour>
      <point x="324" y="425" type="qcurve"/>
      <point x="241" y="425"/>
      <point x="137" y="318"/>
      <point x="137" y="233" type="qcurve"/>
      <point x="137" y="147"/>
      <point x="238" y="35"/>
      <point x="315" y="35" type="qcurve"/>
      <point x="360" y="35"/>
      <point x="453" y="65"/>
      <point x="513" y="98" type="qcurve"/>
      <point x="537" y="56" type="line"/>
      <point x="470" y="18"/>
      <point x="369" y="-15"/>
      <point x="315" y="-15" type="qcurve"/>
      <point x="208" y="-15"/>
      <point x="77" y="121"/>
      <point x="77" y="235" type="qcurve"/>
      <point x="77" y="338"/>
      <point x="220" y="475"/>
      <point x="326" y="475" type="qcurve"/>
      <point x="380" y="475"/>
      <point x="477" y="440"/>
      <point x="536" y="401" type="qcurve"/>
      <point x="509" y="356" type="line"/>
      <point x="450" y="393"/>
      <point x="368" y="425"/>
    </contour>
  </outline>
</glyph>
<glyph name="h" format="2">
  <advance width="614"/>
  <unicode hex="0068"/>
  <outline>
    <contour>
      <point x="103" y="710" type="line"/>
      <point x="162" y="710" type="line"/>
      <point x="162" y="346" type="line"/>
      <point x="231" y="414"/>
      <point x="321" y="465"/>
      <point x="371" y="465" type="qcurve"/>
      <point x="438" y="465"/>
      <point x="513" y="390"/>
      <point x="513" y="323" type="qcurve"/>
      <point x="513" y="0" type="line"/>
      <point x="454" y="0" type="line"/>
      <point x="454" y="313" type="line"/>
      <point x="454" y="364"/>
      <point x="409" y="413"/>
      <point x="361" y="413" type="qcurve"/>
      <point x="321" y="413"/>
      <point x="237" y="361"/>
      <point x="162" y="289" type="qcurve"/>
      <point x="162" y="0" type="line"/>
      <point x="103" y="0" type="line"/>
    </contour>
  </outline>
</glyph>
<glyph name="i" format="2">
  <advance width="614"/>
  <unicode hex="0069"/>
  <outline>
    <contour>
      <point x="368" y="666" type="qcurve"/>
      <point x="368" y="642"/>
      <point x="335" y="614"/>
      <point x="306" y="614" type="qcurve"/>
      <point x="279" y="614"/>
      <point x="246" y="643"/>
      <point x="246" y="669" type="qcurve"/>
      <point x="246" y="691"/>
      <point x="281" y="721"/>
      <point x="308" y="721" type="qcurve"/>
      <point x="337" y="721"/>
      <point x="368" y="692"/>
    </contour>
    <contour>
      <point x="123" y="0" type="line"/>
      <point x="123" y="50" type="line"/>
      <point x="293" y="50" type="line"/>
      <point x="293" y="410" type="line"/>
      <point x="143" y="410" type="line"/>
      <point x="143" y="460" type="line"/>
      <point x="352" y="460" type="line"/>
      <point x="352" y="50" type="line"/>
      <point x="522" y="50" type="line"/>
      <point x="522" y="0" type="line"/>
    </contour>
  </outline>
</glyph>
<glyph name="j" format="2">
  <advance width="614"/>
  <unicode hex="006A"/>
  <outline>
    <contour>
      <point x="410" y="666" type="qcurve"/>
      <point x="410" y="642"/>
      <point x="377" y="614"/>
      <point x="348" y="614" type="qcurve"/>
      <point x="321" y="614"/>
      <point x="288" y="643"/>
      <point x="288" y="669" type="qcurve"/>
      <point x="288" y="691"/>
      <point x="323" y="721"/>
      <point x="350" y="721" type="qcurve"/>
      <point x="379" y="721"/>
      <point x="410" y="692"/>
    </contour>
    <contour>
      <point x="395" y="460" type="line"/>
      <point x="395" y="-74" type="line"/>
      <point x="395" y="-151"/>
      <point x="318" y="-224"/>
      <point x="231" y="-230" type="qcurve"/>
      <point x="102" y="-239" type="line"/>
      <point x="99" y="-188" type="line"/>
      <point x="228" y="-178" type="line"/>
      <point x="287" y="-173"/>
      <point x="336" y="-124"/>
      <point x="336" y="-69" type="qcurve"/>
      <point x="336" y="410" type="line"/>
      <point x="125" y="410" type="line"/>
      <point x="125" y="460" type="line"/>
    </contour>
  </outline>
</glyph>
<glyph name="q" format="2">
  <advance width="614"/>
  <unicode hex="0071"/>
  <outline>
    <contour>
      <point x="274" y="-8" type="qcurve"/>
      <point x="185" y="-8"/>
      <point x="66" y="125"/>
      <point x="66" y="227" type="qcurve"/>
      <point x="66" y="328"/>
      <point x="205" y="468"/>
      <point x="307" y="468" type="qcurve"/>
      <point x="349" y="468"/>
      <point x="425" y="446"/>
      <point x="460" y="424" type="qcurve"/>
      <point x="486" y="462" type="line"/>
      <point x="514" y="462" type="line"/>
      <point x="514" y="-230" type="line"/>
      <point x="455" y="-230" type="line"/>
      <point x="455" y="84" type="line"/>
      <point x="408" y="34"/>
      <point x="326" y="-8"/>
    </contour>
    <contour>
      <point x="320" y="418" type="qcurve"/>
      <point x="233" y="418"/>
      <point x="126" y="308"/>
      <point x="126" y="226" type="qcurve"/>
      <point x="126" y="147"/>
      <point x="217" y="42"/>
      <point x="282" y="42" type="qcurve"/>
      <point x="324" y="42"/>
      <point x="404" y="90"/>
      <point x="455" y="144" type="qcurve"/>
      <point x="455" y="370" type="line"/>
      <point x="420" y="394"/>
      <point x="353" y="418"/>
    </contour>
  </outline>
</glyph>
<glyph name="w" format="2">
  <advance width="614"/>
  <unicode hex="0077"/>
  <outline>
    <contour>
      <point x="564" y="460" type="line"/>
      <point x="460" y="0" type="line"/>
      <point x="395" y="0" type="line"/>
      <point x="307" y="268" type="line"/>
      <point x="217" y="0" type="line"/>
      <point x="152" y="0" type="line"/>
      <point x="50" y="460" type="line"/>
      <point x="106" y="460" type="line"/>
      <point x="190" y="54" type="line"/>
      <point x="299" y="390" type="line"/>
      <point x="317" y="390" type="line"/>
      <point x="426" y="58" type="line"/>
      <point x="509" y="460" type="line"/>
    </contour>
  </outline>
</glyph>
<glyph name="x" format="2">
  <advance width="614"/>
  <unicode hex="0078"/>
  <outline>
    <contour>
      <point x="146" y="0" type="line"/>
      <point x="77" y="0" type="line"/>
      <point x="271" y="239" type="line"/>
      <point x="91" y="460" type="line"/>
      <point x="166" y="460" type="line"/>
      <point x="308" y="277" type="line"/>
      <point x="453" y="460" type="line"/>
      <point x="522" y="460" type="line"/>
      <point x="342" y="239" type="line"/>
      <point x="539" y="0" type="line"/>
      <point x="465" y="0" type="line"/>
      <point x="306" y="201" type="line"/>
    </contour>
  </outline>
</glyph>
<glyph name="z" format="2">
  <advance width="614"/>
  <unicode hex="007A"/>
  <outline>
    <contour>
      <point x="539" y="0" type="line"/>
      <point x="90" y="0" type="line"/>
      <point x="90" y="41" type="line"/>
      <point x="438" y="407" type="line"/>
      <point x="438" y="410" type="line"/>
      <point x="103" y="410" type="line"/>
      <point x="103" y="460" type="line"/>
      <point x="523" y="460" type="line"/>
      <point x="523" y="418" type="line"/>
      <point x="181" y="55" type="line"/>
      <point x="181" y="51" type="line"/>
      <point x="539" y="51" type="line"/>
    </contour>
  </outline>
</glyph>
<glyph name="braceleft" format="2">
  <advance width="614"/>
  <unicode hex="007B"/>
  <outline>
    <contour>
      <point x="205" y="-23" type="qcurve"/>
      <point x="205" y="-4"/>
      <point x="229" y="40"/>
      <point x="256" y="70" type="qcurve"/>
      <point x="305" y="127" type="line"/>
      <point x="327" y="154"/>
      <point x="342" y="178"/>
      <point x="342" y="190" type="qcurve"/>
      <point x="342" y="209"/>
      <point x="285" y="240"/>
      <point x="221" y="260" type="qcurve"/>
      <point x="193" y="269"/>
      <point x="122" y="289"/>
      <point x="79" y="301" type="qcurve"/>
      <point x="79" y="361" type="line"/>
      <point x="122" y="373"/>
      <point x="193" y="393"/>
      <point x="221" y="402" type="qcurve"/>
      <point x="285" y="422"/>
      <point x="342" y="453"/>
      <point x="342" y="472" type="qcurve"/>
      <point x="342" y="484"/>
      <point x="327" y="508"/>
      <point x="305" y="535" type="qcurve"/>
      <point x="256" y="592" type="line"/>
      <point x="229" y="622"/>
      <point x="205" y="666"/>
      <point x="205" y="685" type="qcurve"/>
      <point x="205" y="720"/>
      <point x="252" y="759"/>
      <point x="300" y="766" type="qcurve"/>
      <point x="523" y="797" type="line"/>
      <point x="530" y="748" type="line"/>
      <point x="307" y="717" type="line"/>
      <point x="285" y="714"/>
      <point x="264" y="699"/>
      <point x="264" y="685" type="qcurve"/>
      <point x="264" y="675"/>
      <point x="279" y="651"/>
      <point x="298" y="628" type="qcurve"/>
      <point x="347" y="571" type="line"/>
      <point x="379" y="535"/>
      <point x="404" y="493"/>
      <point x="404" y="472" type="qcurve"/>
      <point x="404" y="443"/>
      <point x="353" y="402"/>
      <point x="295" y="380" type="qcurve"/>
      <point x="267" y="369"/>
      <point x="195" y="346"/>
      <point x="149" y="333" type="qcurve"/>
      <point x="149" y="329" type="line"/>
      <point x="195" y="316"/>
      <point x="267" y="293"/>
      <point x="295" y="282" type="qcurve"/>
      <point x="353" y="260"/>
      <point x="404" y="219"/>
      <point x="404" y="190" type="qcurve"/>
      <point x="404" y="169"/>
      <point x="379" y="127"/>
      <point x="347" y="91" type="qcurve"/>
      <point x="298" y="34" type="line"/>
      <point x="279" y="11"/>
      <point x="264" y="-13"/>
      <point x="264" y="-23" type="qcurve"/>
      <point x="264" y="-37"/>
      <point x="285" y="-52"/>
      <point x="307" y="-55" type="qcurve"/>
      <point x="530" y="-86" type="line"/>
      <point x="523" y="-135" type="line"/>
      <point x="300" y="-104" type="line"/>
      <point x="252" y="-97"/>
      <point x="205" y="-58"/>
    </contour>
  </outline>
</glyph>
<glyph name="bar" format="2">
  <advance width="614"/>
  <unicode hex="007C"/>
  <outline>
    <contour>
      <point x="278" y="755" type="line"/>
      <point x="336" y="755" type="line"/>
      <point x="336" y="-100" type="line"/>
      <point x="278" y="-100" type="line"/>
    </contour>
  </outline>
</glyph>
<glyph name="exclamdown" format="2">
  <advance width="614"/>
  <unicode hex="00A1"/>
  <outline>
    <contour>
      <point x="246" y="673" type="qcurve"/>
      <point x="246" y="697"/>
      <point x="279" y="725"/>
      <point x="308" y="725" type="qcurve"/>
      <point x="335" y="725"/>
      <point x="368" y="696"/>
      <point x="368" y="670" type="qcurve"/>
      <point x="368" y="648"/>
      <point x="333" y="618"/>
      <point x="306" y="618" type="qcurve"/>
      <point x="277" y="618"/>
      <point x="246" y="647"/>
    </contour>
    <contour>
      <point x="290" y="483" type="line"/>
      <point x="324" y="483" type="line"/>
      <point x="366" y="0" type="line"/>
      <point x="247" y="0" type="line"/>
    </contour>
  </outline>
</glyph>
<glyph name="sterling" format="2">
  <advance width="614"/>
  <unicode hex="00A3"/>
  <outline>
    <contour>
      <point x="546" y="0" type="line"/>
      <point x="81" y="0" type="line"/>
      <point x="81" y="51" type="line"/>
      <point x="159" y="129"/>
      <point x="230" y="217"/>
      <point x="237" y="248" type="qcurve"/>
      <point x="87" y="248" type="line"/>
      <point x="87" y="296" type="line"/>
      <point x="236" y="296" type="line"/>
      <point x="232" y="306"/>
      <point x="211" y="332"/>
      <point x="170" y="375" type="qcurve"/>
      <point x="133" y="413"/>
      <point x="103" y="473"/>
      <point x="103" y="516" type="qcurve"/>
      <point x="103" y="581"/>
      <point x="216" y="670"/>
      <point x="303" y="670" type="qcurve"/>
      <point x="379" y="670"/>
      <point x="497" y="599"/>
      <point x="530" y="534" type="qcurve"/>
      <point x="479" y="505" type="line"/>
      <point x="450" y="560"/>
      <point x="358" y="619"/>
      <point x="301" y="619" type="qcurve"/>
      <point x="242" y="619"/>
      <point x="166" y="561"/>
      <point x="166" y="517" type="qcurve"/>
      <point x="166" y="486"/>
      <point x="190" y="437"/>
      <point x="216" y="409" type="qcurve"/>
      <point x="259" y="366"/>
      <point x="294" y="317"/>
      <point x="298" y="296" type="qcurve"/>
      <point x="506" y="296" type="line"/>
      <point x="506" y="248" type="line"/>
      <point x="298" y="248" type="line"/>
      <point x="294" y="217"/>
      <point x="234" y="135"/>
      <point x="155" y="51" type="qcurve"/>
      <point x="546" y="51" type="line"/>
    </contour>
  </outline>
</glyph>
<glyph name="section" format="2">
  <advance width="614"/>
  <unicode hex="00A7"/>
  <outline>
    <contour>
      <point x="64" y="210" type="qcurve"/>
      <point x="64" y="268"/>
      <point x="145" y="347"/>
      <point x="250" y="395" type="qcurve"/>
      <point x="177" y="425"/>
      <point x="114" y="488"/>
      <point x="114" y="536" type="qcurve"/>
      <point x="114" y="603"/>
      <point x="212" y="670"/>
      <point x="310" y="670" type="qcurve"/>
      <point x="354" y="670"/>
      <point x="433" y="660"/>
      <point x="496" y="646" type="qcurve"/>
      <point x="485" y="593" type="line"/>
      <point x="429" y="607"/>
      <point x="349" y="619"/>
      <point x="310" y="619" type="qcurve"/>
      <point x="239" y="619"/>
      <point x="174" y="583"/>
      <point x="174" y="542" type="qcurve"/>
      <point x="174" y="510"/>
      <point x="219" y="470"/>
      <point x="278" y="444" type="qcurve"/>
      <point x="401" y="389" type="line"/>
      <point x="485" y="351"/>
      <point x="549" y="281"/>
      <point x="549" y="220" type="qcurve"/>
      <point x="549" y="162"/>
      <point x="468" y="83"/>
      <point x="363" y="35" type="qcurve"/>
      <point x="437" y="4"/>
      <point x="499" y="-58"/>
      <point x="499" y="-106" type="qcurve"/>
      <point x="499" y="-173"/>
      <point x="401" y="-240"/>
      <point x="303" y="-240" type="qcurve"/>
      <point x="259" y="-240"/>
      <point x="180" y="-230"/>
      <point x="117" y="-216" type="qcurve"/>
      <point x="128" y="-163" type="line"/>
      <point x="184" y="-177"/>
      <point x="264" y="-189"/>
      <point x="303" y="-189" type="qcurve"/>
      <point x="374" y="-189"/>
      <point x="439" y="-153"/>
      <point x="439" y="-112" type="qcurve"/>
      <point x="439" y="-80"/>
      <point x="394" y="-40"/>
      <point x="335" y="-14" type="qcurve"/>
      <point x="212" y="41" type="line"/>
      <point x="128" y="79"/>
      <point x="64" y="149"/>
    </contour>
    <contour>
      <point x="126" y="216" type="qcurve"/>
      <point x="126" y="170"/>
      <point x="185" y="115"/>
      <point x="265" y="79" type="qcurve"/>
      <point x="312" y="58" type="line"/>
      <point x="412" y="107"/>
      <point x="487" y="171"/>
      <point x="487" y="214" type="qcurve"/>
      <point x="487" y="260"/>
      <point x="428" y="315"/>
      <point x="348" y="351" type="qcurve"/>
      <point x="301" y="372" type="line"/>
      <point x="201" y="323"/>
      <point x="126" y="259"/>
    </contour>
  </outline>
</glyph>
<glyph name="copyright" format="2">
  <advance width="614"/>
  <unicode hex="00A9"/>
  <outline>
    <contour>
      <point x="307" y="725" type="qcurve"/>
      <point x="438" y="725"/>
      <point x="557" y="533"/>
      <point x="557" y="328" type="qcurve"/>
      <point x="557" y="123"/>
      <point x="437" y="-70"/>
      <point x="307" y="-70" type="qcurve"/>
      <point x="177" y="-70"/>
      <point x="57" y="123"/>
      <point x="57" y="328" type="qcurve"/>
      <point x="57" y="532"/>
      <point x="177" y="725"/>
    </contour>
    <contour>
      <point x="307" y="680" type="qcurve"/>
      <point x="198" y="680"/>
      <point x="104" y="512"/>
      <point x="104" y="328" type="qcurve"/>
      <point x="104" y="143"/>
      <point x="199" y="-25"/>
      <point x="307" y="-25" type="qcurve"/>
      <point x="416" y="-25"/>
      <point x="510" y="143"/>
      <point x="510" y="328" type="qcurve"/>
      <point x="510" y="513"/>
      <point x="416" y="680"/>
    </contour>
    <contour>
      <point x="308" y="97" type="qcurve"/>
      <point x="248" y="97"/>
      <point x="183" y="217"/>
      <point x="183" y="326" type="qcurve"/>
      <point x="183" y="429"/>
      <point x="258" y="558"/>
      <point x="317" y="558" type="qcurve"/>
      <point x="352" y="558"/>
      <point x="402" y="524"/>
      <point x="436" y="479" type="qcurve"/>
      <point x="403" y="449" type="line"/>
      <point x="373" y="488"/>
      <point x="338" y="515"/>
      <point x="317" y="515" type="qcurve"/>
      <point x="281" y="515"/>
      <point x="236" y="413"/>
      <point x="236" y="328" type="qcurve"/>
      <point x="236" y="238"/>
      <point x="277" y="140"/>
      <point x="314" y="140" type="qcurve"/>
      <point x="340" y="140"/>
      <point x="382" y="173"/>
      <point x="411" y="211" type="qcurve"/>
      <point x="444" y="184" type="line"/>
      <point x="408" y="137"/>
      <point x="349" y="97"/>
    </contour>
  </outline>
</glyph>
<glyph name="ordfeminine" format="2">
  <advance width="614"/>
  <unicode hex="00AA"/>
  <outline>
    <contour>
      <point x="445" y="573" type="qcurve"/>
      <point x="445" y="412" type="line"/>
      <point x="445" y="393"/>
      <point x="464" y="373"/>
      <point x="483" y="372" type="qcurve"/>
      <point x="510" y="371" type="line"/>
      <point x="507" y="327" type="line"/>
      <point x="481" y="327" type="line"/>
      <point x="445" y="327"/>
      <point x="400" y="358"/>
      <point x="392" y="388" type="qcurve"/>
      <point x="381" y="388" type="line"/>
      <point x="340" y="355"/>
      <point x="266" y="325"/>
      <point x="225" y="325" type="qcurve"/>
      <point x="173" y="325"/>
      <point x="111" y="378"/>
      <point x="111" y="423" type="qcurve"/>
      <point x="111" y="476"/>
      <point x="171" y="527"/>
      <point x="243" y="535" type="qcurve"/>
      <point x="392" y="553" type="line"/>
      <point x="392" y="575" type="line"/>
      <point x="392" y="617"/>
      <point x="343" y="648"/>
      <point x="279" y="648" type="qcurve"/>
      <point x="257" y="648"/>
      <point x="188" y="640"/>
      <point x="150" y="633" type="qcurve"/>
      <point x="144" y="676" type="line"/>
      <point x="182" y="683"/>
      <point x="259" y="692"/>
      <point x="281" y="692" type="qcurve"/>
      <point x="371" y="692"/>
      <point x="445" y="640"/>
    </contour>
    <contour>
      <point x="163" y="426" type="qcurve"/>
      <point x="163" y="398"/>
      <point x="197" y="370"/>
      <point x="231" y="370" type="qcurve"/>
      <point x="272" y="370"/>
      <point x="344" y="401"/>
      <point x="392" y="438" type="qcurve"/>
      <point x="392" y="512" type="line"/>
      <point x="254" y="495" type="line"/>
      <point x="204" y="489"/>
      <point x="163" y="459"/>
    </contour>
    <contour>
      <point x="126" y="187" type="line"/>
      <point x="126" y="234" type="line"/>
      <point x="505" y="234" type="line"/>
      <point x="505" y="187" type="line"/>
    </contour>
  </outline>
</glyph>
<glyph name="guillemetleft" format="2">
  <advance width="614"/>
  <unicode hex="00AB"/>
  <outline>
    <contour>
      <point x="304" y="49" type="line"/>
      <point x="304" y="-15" type="line"/>
      <point x="69" y="203" type="line"/>
      <point x="69" y="254" type="line"/>
      <point x="304" y="471" type="line"/>
      <point x="304" y="410" type="line"/>
      <point x="124" y="233" type="line"/>
    </contour>
    <contour>
      <point x="531" y="49" type="line"/>
      <point x="531" y="-15" type="line"/>
      <point x="296" y="203" type="line"/>
      <point x="296" y="254" type="line"/>
      <point x="531" y="471" type="line"/>
      <point x="531" y="410" type="line"/>
      <point x="351" y="233" type="line"/>
    </contour>
  </outline>
</glyph>
<glyph name="degree" format="2">
  <advance width="614"/>
  <unicode hex="00B0"/>
  <outline>
    <contour>
      <point x="307" y="294" type="qcurve"/>
      <point x="217" y="294"/>
      <point x="105" y="404"/>
      <point x="105" y="492" type="qcurve"/>
      <point x="105" y="581"/>
      <point x="218" y="692"/>
      <point x="308" y="692" type="qcurve"/>
      <point x="398" y="692"/>
      <point x="509" y="582"/>
      <point x="509" y="493" type="qcurve"/>
      <point x="509" y="404"/>
      <point x="397" y="294"/>
    </contour>
    <contour>
      <point x="458" y="492" type="qcurve"/>
      <point x="458" y="561"/>
      <point x="373" y="650"/>
      <point x="307" y="650" type="qcurve"/>
      <point x="240" y="650"/>
      <point x="157" y="563"/>
      <point x="157" y="493" type="qcurve"/>
      <point x="157" y="423"/>
      <point x="241" y="336"/>
      <point x="308" y="336" type="qcurve"/>
      <point x="374" y="336"/>
      <point x="458" y="423"/>
    </contour>
  </outline>
</glyph>
<glyph name="mu" format="2">
  <advance width="614"/>
  <unicode hex="00B5"/>
  <outline>
    <contour>
      <point x="252" y="-6" type="qcurve"/>
      <point x="220" y="-6"/>
      <point x="166" y="23"/>
      <point x="150" y="49" type="qcurve"/>
      <point x="160" y="-217" type="line"/>
      <point x="160" y="-230" type="line"/>
      <point x="101" y="-230" type="line"/>
      <point x="101" y="460" type="line"/>
      <point x="160" y="460" type="line"/>
      <point x="160" y="147" type="line"/>
      <point x="160" y="96"/>
      <point x="205" y="47"/>
      <point x="253" y="47" type="qcurve"/>
      <point x="293" y="47"/>
      <point x="377" y="99"/>
      <point x="452" y="171" type="qcurve"/>
      <point x="452" y="460" type="line"/>
      <point x="511" y="460" type="line"/>
      <point x="511" y="0" type="line"/>
      <point x="456" y="0" type="line"/>
      <point x="452" y="114" type="line"/>
      <point x="379" y="41"/>
      <point x="299" y="-6"/>
    </contour>
  </outline>
</glyph>
<glyph name="guillemetright" format="2">
  <advance width="614"/>
  <unicode hex="00BB"/>
  <outline>
    <contour>
      <point x="310" y="407" type="line"/>
      <point x="310" y="471" type="line"/>
      <point x="545" y="253" type="line"/>
      <point x="545" y="202" type="line"/>
      <point x="310" y="-15" type="line"/>
      <point x="310" y="46" type="line"/>
      <point x="490" y="223" type="line"/>
    </contour>
    <contour>
      <point x="83" y="407" type="line"/>
      <point x="83" y="471" type="line"/>
      <point x="318" y="253" type="line"/>
      <point x="318" y="202" type="line"/>
      <point x="83" y="-15" type="line"/>
      <point x="83" y="46" type="line"/>
      <point x="263" y="223" type="line"/>
    </contour>
  </outline>
</glyph>
<glyph name="multiply" format="2">
  <advance width="614"/>
  <unicode hex="00D7"/>
  <outline>
    <contour>
      <point x="303" y="287" type="line"/>
      <point x="136" y="120" type="line"/>
      <point x="100" y="156" type="line"/>
      <point x="267" y="323" type="line"/>
      <point x="103" y="487" type="line"/>
      <point x="145" y="528" type="line"/>
      <point x="309" y="365" type="line"/>
      <point x="477" y="533" type="line"/>
      <point x="513" y="497" type="line"/>
      <point x="345" y="329" type="line"/>
      <point x="510" y="164" type="line"/>
      <point x="468" y="122" type="line"/>
    </contour>
  </outline>
</glyph>
<glyph name="oslash" format="2">
  <advance width="614"/>
  <unicode hex="00F8"/>
  <outline>
    <contour>
      <point x="543" y="228" type="qcurve"/>
      <point x="543" y="121"/>
      <point x="410" y="-15"/>
      <point x="305" y="-15" type="qcurve"/>
      <point x="270" y="-15"/>
      <point x="205" y="4"/>
      <point x="178" y="22" type="qcurve"/>
      <point x="111" y="-71" type="line"/>
      <point x="43" y="-71" type="line"/>
      <point x="142" y="52" type="line"/>
      <point x="108" y="86"/>
      <point x="71" y="179"/>
      <point x="71" y="232" type="qcurve"/>
      <point x="71" y="339"/>
      <point x="204" y="475"/>
      <point x="309" y="475" type="qcurve"/>
      <point x="344" y="475"/>
      <point x="408" y="456"/>
      <point x="435" y="438" type="qcurve"/>
      <point x="503" y="531" type="line"/>
      <point x="571" y="531" type="line"/>
      <point x="473" y="407" type="line"/>
      <point x="507" y="373"/>
      <point x="543" y="280"/>
    </contour>
    <contour>
      <point x="307" y="425" type="qcurve"/>
      <point x="229" y="425"/>
      <point x="131" y="317"/>
      <point x="131" y="230" type="qcurve"/>
      <point x="131" y="190"/>
      <point x="153" y="121"/>
      <point x="175" y="95" type="qcurve"/>
      <point x="403" y="398" type="line"/>
      <point x="382" y="411"/>
      <point x="333" y="425"/>
    </contour>
    <contour>
      <point x="307" y="35" type="qcurve"/>
      <point x="385" y="35"/>
      <point x="483" y="143"/>
      <point x="483" y="230" type="qcurve"/>
      <point x="483" y="270"/>
      <point x="460" y="340"/>
      <point x="439" y="366" type="qcurve"/>
      <point x="211" y="62" type="line"/>
      <point x="231" y="49"/>
      <point x="280" y="35"/>
    </contour>
  </outline>
</glyph>
<glyph name="thorn" format="2">
  <advance width="614"/>
  <unicode hex="00FE"/>
  <outline>
    <contour>
      <point x="159" y="-230" type="line"/>
      <point x="100" y="-230" type="line"/>
      <point x="100" y="710" type="line"/>
      <point x="159" y="710" type="line"/>
      <point x="159" y="376" type="line"/>
      <point x="206" y="426"/>
      <point x="288" y="468"/>
      <point x="340" y="468" type="qcurve"/>
      <point x="429" y="468"/>
      <point x="548" y="335"/>
      <point x="548" y="233" type="qcurve"/>
      <point x="548" y="129"/>
      <point x="417" y="-8"/>
      <point x="318" y="-8" type="qcurve"/>
      <point x="276" y="-8"/>
      <point x="197" y="27"/>
      <point x="159" y="63" type="qcurve"/>
    </contour>
    <contour>
      <point x="488" y="234" type="qcurve"/>
      <point x="488" y="313"/>
      <point x="397" y="418"/>
      <point x="332" y="418" type="qcurve"/>
      <point x="290" y="418"/>
      <point x="210" y="370"/>
      <point x="159" y="316" type="qcurve"/>
      <point x="159" y="121" type="line"/>
      <point x="198" y="82"/>
      <point x="275" y="42"/>
      <point x="313" y="42" type="qcurve"/>
      <point x="392" y="42"/>
      <point x="488" y="149"/>
    </contour>
  </outline>
</glyph>
<glyph name="aogonek" format="2">
  <advance width="614"/>
  <unicode hex="0105"/>
  <outline>
    <contour>
      <point x="371" y="-154" type="qcurve"/>
      <point x="371" y="-124"/>
      <point x="413" y="-48"/>
      <point x="461" y="12" type="qcurve"/>
      <point x="443" y="20"/>
      <point x="421" y="50"/>
      <point x="416" y="73" type="qcurve"/>
      <point x="409" y="73" type="line"/>
      <point x="359" y="32"/>
      <point x="266" y="-5"/>
      <point x="216" y="-5" type="qcurve"/>
      <point x="153" y="-5"/>
      <point x="77" y="64"/>
      <point x="77" y="122" type="qcurve"/>
      <point x="77" y="188"/>
      <point x="149" y="250"/>
      <point x="238" y="261" type="qcurve"/>
      <point x="416" y="283" type="line"/>
      <point x="416" y="322" type="line"/>
      <point x="416" y="376"/>
      <point x="358" y="415"/>
      <point x="282" y="415" type="qcurve"/>
      <point x="253" y="415"/>
      <point x="166" y="405"/>
      <point x="123" y="397" type="qcurve"/>
      <point x="116" y="446" type="line"/>
      <point x="159" y="455"/>
      <point x="248" y="465"/>
      <point x="284" y="465" type="qcurve"/>
      <point x="389" y="465"/>
      <point x="475" y="401"/>
      <point x="475" y="319" type="qcurve"/>
      <point x="475" y="102" type="line"/>
      <point x="475" y="71"/>
      <point x="494" y="49"/>
      <point x="522" y="47" type="qcurve"/>
      <point x="567" y="44" type="line"/>
      <point x="563" y="-3" type="line"/>
      <point x="533" y="-2"/>
      <point x="504" y="0"/>
      <point x="492" y="2" type="qcurve"/>
      <point x="458" y="-44"/>
      <point x="426" y="-112"/>
      <point x="426" y="-139" type="qcurve"/>
      <point x="426" y="-163"/>
      <point x="449" y="-186"/>
      <point x="474" y="-187" type="qcurve"/>
      <point x="559" y="-192" type="line"/>
      <point x="555" y="-235" type="line"/>
      <point x="462" y="-230" type="line"/>
      <point x="414" y="-227"/>
      <point x="371" y="-192"/>
    </contour>
    <contour>
      <point x="137" y="126" type="qcurve"/>
      <point x="137" y="86"/>
      <point x="180" y="45"/>
      <point x="223" y="45" type="qcurve"/>
      <point x="269" y="45"/>
      <point x="354" y="83"/>
      <point x="416" y="130" type="qcurve"/>
      <point x="416" y="239" type="line"/>
      <point x="244" y="216" type="line"/>
      <point x="187" y="209"/>
      <point x="137" y="168"/>
    </contour>
  </outline>
</glyph>
<glyph name="dcroat" format="2">
  <advance width="614"/>
  <unicode hex="0111"/>
  <outline>
    <contour>
      <point x="264" y="-8" type="qcurve"/>
      <point x="180" y="-8"/>
      <point x="66" y="114"/>
      <point x="66" y="207" type="qcurve"/>
      <point x="66" y="302"/>
      <point x="192" y="428"/>
      <point x="286" y="428" type="qcurve"/>
      <point x="325" y="428"/>
      <point x="400" y="393"/>
      <point x="438" y="357" type="qcurve"/>
      <point x="438" y="535" type="line"/>
      <point x="238" y="535" type="line"/>
      <point x="238" y="583" type="line"/>
      <point x="438" y="583" type="line"/>
      <point x="438" y="710" type="line"/>
      <point x="497" y="710" type="line"/>
      <point x="497" y="583" type="line"/>
      <point x="583" y="583" type="line"/>
      <point x="583" y="535" type="line"/>
      <point x="497" y="535" type="line"/>
      <point x="497" y="0" type="line"/>
      <point x="448" y="0" type="line"/>
      <point x="440" y="86" type="line"/>
      <point x="392" y="35"/>
      <point x="313" y="-8"/>
    </contour>
    <contour>
      <point x="291" y="378" type="qcurve"/>
      <point x="217" y="378"/>
      <point x="126" y="282"/>
      <point x="126" y="206" type="qcurve"/>
      <point x="126" y="135"/>
      <point x="211" y="42"/>
      <point x="272" y="42" type="qcurve"/>
      <point x="312" y="42"/>
      <point x="387" y="89"/>
      <point x="438" y="144" type="qcurve"/>
      <point x="438" y="299" type="line"/>
      <point x="400" y="339"/>
      <point x="326" y="378"/>
    </contour>
  </outline>
</glyph>
<glyph name="Eogonek" format="2">
  <advance width="614"/>
  <unicode hex="0118"/>
  <outline>
    <contour>
      <point x="356" y="-154" type="qcurve"/>
      <point x="356" y="-125"/>
      <point x="394" y="-55"/>
      <point x="437" y="0" type="qcurve"/>
      <point x="103" y="0" type="line"/>
      <point x="103" y="655" type="line"/>
      <point x="533" y="655" type="line"/>
      <point x="533" y="604" type="line"/>
      <point x="164" y="604" type="line"/>
      <point x="164" y="357" type="line"/>
      <point x="469" y="357" type="line"/>
      <point x="469" y="306" type="line"/>
      <point x="164" y="306" type="line"/>
      <point x="164" y="51" type="line"/>
      <point x="542" y="51" type="line"/>
      <point x="542" y="0" type="line"/>
      <point x="476" y="0" type="line"/>
      <point x="443" y="-46"/>
      <point x="411" y="-112"/>
      <point x="411" y="-139" type="qcurve"/>
      <point x="411" y="-163"/>
      <point x="434" y="-186"/>
      <point x="459" y="-187" type="qcurve"/>
      <point x="544" y="-192" type="line"/>
      <point x="540" y="-235" type="line"/>
      <point x="447" y="-230" type="line"/>
      <point x="399" y="-227"/>
      <point x="356" y="-192"/>
    </contour>
  </outline>
</glyph>
<glyph name="eogonek" format="2">
  <advance width="614"/>
  <unicode hex="0119"/>
  <outline>
    <contour>
      <point x="297" y="-154" type="qcurve"/>
      <point x="297" y="-126"/>
      <point x="346" y="-55"/>
      <point x="400" y="-4" type="qcurve"/>
      <point x="331" y="-3" type="line"/>
      <point x="208" y="-1"/>
      <point x="83" y="112"/>
      <point x="83" y="220" type="qcurve"/>
      <point x="83" y="331"/>
      <point x="217" y="475"/>
      <point x="318" y="475" type="qcurve"/>
      <point x="422" y="475"/>
      <point x="533" y="349"/>
      <point x="533" y="231" type="qcurve"/>
      <point x="533" y="225"/>
      <point x="532" y="214"/>
      <point x="531" y="206" type="qcurve"/>
      <point x="143" y="206" type="line"/>
      <point x="148" y="128"/>
      <point x="248" y="48"/>
      <point x="345" y="46" type="qcurve"/>
      <point x="450" y="44" type="line"/>
      <point x="448" y="-5" type="line"/>
      <point x="398" y="-55"/>
      <point x="352" y="-117"/>
      <point x="352" y="-139" type="qcurve"/>
      <point x="352" y="-163"/>
      <point x="375" y="-186"/>
      <point x="400" y="-187" type="qcurve"/>
      <point x="485" y="-192" type="line"/>
      <point x="481" y="-235" type="line"/>
      <point x="388" y="-230" type="line"/>
      <point x="340" y="-227"/>
      <point x="297" y="-192"/>
    </contour>
    <contour>
      <point x="318" y="425" type="qcurve"/>
      <point x="250" y="425"/>
      <point x="154" y="332"/>
      <point x="145" y="255" type="qcurve"/>
      <point x="472" y="255" type="line"/>
      <point x="467" y="339"/>
      <point x="389" y="425"/>
    </contour>
  </outline>
</glyph>
<glyph name="Hbar" format="2">
  <advance width="614"/>
  <unicode hex="0126"/>
  <outline>
    <contour>
      <point x="120" y="477" type="line"/>
      <point x="34" y="477" type="line"/>
      <point x="34" y="521" type="line"/>
      <point x="120" y="521" type="line"/>
      <point x="120" y="655" type="line"/>
      <point x="181" y="655" type="line"/>
      <point x="181" y="521" type="line"/>
      <point x="433" y="521" type="line"/>
      <point x="433" y="655" type="line"/>
      <point x="494" y="655" type="line"/>
      <point x="494" y="521" type="line"/>
      <point x="580" y="521" type="line"/>
      <point x="580" y="477" type="line"/>
      <point x="494" y="477" type="line"/>
      <point x="494" y="0" type="line"/>
      <point x="433" y="0" type="line"/>
      <point x="433" y="285" type="line"/>
      <point x="181" y="285" type="line"/>
      <point x="181" y="0" type="line"/>
      <point x="120" y="0" type="line"/>
    </contour>
    <contour>
      <point x="181" y="477" type="line"/>
      <point x="181" y="336" type="line"/>
      <point x="433" y="336" type="line"/>
      <point x="433" y="477" type="line"/>
    </contour>
  </outline>
</glyph>
<glyph name="iogonek" format="2">
  <advance width="614"/>
  <unicode hex="012F"/>
  <outline>
    <contour>
      <point x="368" y="666" type="qcurve"/>
      <point x="368" y="642"/>
      <point x="335" y="614"/>
      <point x="306" y="614" type="qcurve"/>
      <point x="279" y="614"/>
      <point x="246" y="643"/>
      <point x="246" y="669" type="qcurve"/>
      <point x="246" y="691"/>
      <point x="281" y="721"/>
      <point x="308" y="721" type="qcurve"/>
      <point x="337" y="721"/>
      <point x="368" y="692"/>
    </contour>
    <contour>
      <point x="123" y="0" type="line"/>
      <point x="123" y="50" type="line"/>
      <point x="293" y="50" type="line"/>
      <point x="293" y="410" type="line"/>
      <point x="143" y="410" type="line"/>
      <point x="143" y="460" type="line"/>
      <point x="352" y="460" type="line"/>
      <point x="352" y="50" type="line"/>
      <point x="522" y="50" type="line"/>
      <point x="522" y="0" type="line"/>
      <point x="340" y="0" type="line"/>
      <point x="307" y="-46"/>
      <point x="275" y="-112"/>
      <point x="275" y="-139" type="qcurve"/>
      <point x="275" y="-163"/>
      <point x="298" y="-186"/>
      <point x="323" y="-187" type="qcurve"/>
      <point x="408" y="-192" type="line"/>
      <point x="404" y="-235" type="line"/>
      <point x="311" y="-230" type="line"/>
      <point x="263" y="-227"/>
      <point x="220" y="-192"/>
      <point x="220" y="-154" type="qcurve"/>
      <point x="220" y="-125"/>
      <point x="258" y="-55"/>
      <point x="301" y="0" type="qcurve"/>
    </contour>
  </outline>
</glyph>
<glyph name="dotlessi" format="2">
  <advance width="614"/>
  <unicode hex="0131"/>
  <outline>
    <contour>
      <point x="123" y="0" type="line"/>
      <point x="123" y="50" type="line"/>
      <point x="293" y="50" type="line"/>
      <point x="293" y="410" type="line"/>
      <point x="143" y="410" type="line"/>
      <point x="143" y="460" type="line"/>
      <point x="352" y="460" type="line"/>
      <point x="352" y="50" type="line"/>
      <point x="522" y="50" type="line"/>
      <point x="522" y="0" type="line"/>
    </contour>
  </outline>
</glyph>
<glyph name="lslash" format="2">
  <advance width="614"/>
  <unicode hex="0142"/>
  <outline>
    <contour>
      <point x="254" y="338" type="line"/>
      <point x="101" y="262" type="line"/>
      <point x="101" y="317" type="line"/>
      <point x="254" y="393" type="line"/>
      <point x="254" y="660" type="line"/>
      <point x="61" y="660" type="line"/>
      <point x="61" y="710" type="line"/>
      <point x="313" y="710" type="line"/>
      <point x="313" y="412" type="line"/>
      <point x="473" y="492" type="line"/>
      <point x="473" y="437" type="line"/>
      <point x="313" y="357" type="line"/>
      <point x="313" y="156" type="line"/>
      <point x="313" y="102"/>
      <point x="356" y="54"/>
      <point x="408" y="51" type="qcurve"/>
      <point x="517" y="44" type="line"/>
      <point x="513" y="-7" type="line"/>
      <point x="399" y="0" type="line"/>
      <point x="318" y="5"/>
      <point x="254" y="70"/>
      <point x="254" y="147" type="qcurve"/>
    </contour>
  </outline>
</glyph>
<glyph name="Eng" format="2">
  <advance width="614"/>
  <unicode hex="014A"/>
  <outline>
    <contour>
      <point x="150" y="617" type="line"/>
      <point x="155" y="0" type="line"/>
      <point x="97" y="0" type="line"/>
      <point x="97" y="655" type="line"/>
      <point x="196" y="655" type="line"/>
      <point x="463" y="75" type="line"/>
      <point x="459" y="655" type="line"/>
      <point x="517" y="655" type="line"/>
      <point x="517" y="-74" type="line"/>
      <point x="517" y="-151"/>
      <point x="440" y="-224"/>
      <point x="353" y="-230" type="qcurve"/>
      <point x="224" y="-239" type="line"/>
      <point x="221" y="-188" type="line"/>
      <point x="350" y="-178" type="line"/>
      <point x="414" y="-173"/>
      <point x="464" y="-122"/>
      <point x="464" y="-65" type="qcurve"/>
    </contour>
  </outline>
</glyph>
<glyph name="eng" format="2">
  <advance width="614"/>
  <unicode hex="014B"/>
  <outline>
    <contour>
      <point x="103" y="460" type="line"/>
      <point x="152" y="460" type="line"/>
      <point x="161" y="345" type="line"/>
      <point x="231" y="414"/>
      <point x="320" y="465"/>
      <point x="371" y="465" type="qcurve"/>
      <point x="438" y="465"/>
      <point x="513" y="390"/>
      <point x="513" y="323" type="qcurve"/>
      <point x="513" y="-74" type="line"/>
      <point x="513" y="-151"/>
      <point x="436" y="-224"/>
      <point x="349" y="-230" type="qcurve"/>
      <point x="220" y="-239" type="line"/>
      <point x="217" y="-188" type="line"/>
      <point x="346" y="-178" type="line"/>
      <point x="405" y="-173"/>
      <point x="454" y="-124"/>
      <point x="454" y="-69" type="qcurve"/>
      <point x="454" y="313" type="line"/>
      <point x="454" y="364"/>
      <point x="409" y="413"/>
      <point x="361" y="413" type="qcurve"/>
      <point x="321" y="413"/>
      <point x="237" y="361"/>
      <point x="162" y="289" type="qcurve"/>
      <point x="162" y="0" type="line"/>
      <point x="103" y="0" type="line"/>
    </contour>
  </outline>
</glyph>
<glyph name="Scedilla" format="2">
  <advance width="614"/>
  <unicode hex="015E"/>
  <outline>
    <contour>
      <point x="310" y="38" type="qcurve"/>
      <point x="388" y="38"/>
      <point x="472" y="108"/>
      <point x="472" y="171" type="qcurve"/>
      <point x="472" y="216"/>
      <point x="414" y="277"/>
      <point x="352" y="296" type="qcurve"/>
      <point x="278" y="319" type="line"/>
      <point x="188" y="347"/>
      <point x="103" y="438"/>
      <point x="103" y="506" type="qcurve"/>
      <point x="103" y="577"/>
      <point x="220" y="668"/>
      <point x="318" y="668" type="qcurve"/>
      <point x="366" y="668"/>
      <point x="453" y="653"/>
      <point x="519" y="634" type="qcurve"/>
      <point x="504" y="580" type="line"/>
      <point x="450" y="599"/>
      <point x="358" y="617"/>
      <point x="318" y="617" type="qcurve"/>
      <point x="245" y="617"/>
      <point x="166" y="561"/>
      <point x="166" y="510" type="qcurve"/>
      <point x="166" y="461"/>
      <point x="224" y="400"/>
      <point x="290" y="378" type="qcurve"/>
      <point x="364" y="354" type="line"/>
      <point x="456" y="324"/>
      <point x="535" y="241"/>
      <point x="535" y="173" type="qcurve"/>
      <point x="535" y="89"/>
      <point x="426" y="-8"/>
      <point x="328" y="-13" type="qcurve"/>
      <point x="311" y="-66" type="line"/>
      <point x="394" y="-73"/>
      <point x="465" y="-112"/>
      <point x="465" y="-155" type="qcurve"/>
      <point x="465" y="-193"/>
      <point x="416" y="-234"/>
      <point x="363" y="-248" type="qcurve"/>
      <point x="334" y="-255"/>
      <point x="259" y="-266"/>
      <point x="212" y="-270" type="qcurve"/>
      <point x="197" y="-221" type="line"/>
      <point x="308" y="-212"/>
      <point x="405" y="-185"/>
      <point x="405" y="-157" type="qcurve"/>
      <point x="405" y="-131"/>
      <point x="338" y="-110"/>
      <point x="260" y="-108" type="qcurve"/>
      <point x="254" y="-98" type="line"/>
      <point x="285" y="-12" type="line"/>
      <point x="236" y="-10"/>
      <point x="134" y="15"/>
      <point x="75" y="38" type="qcurve"/>
      <point x="94" y="92" type="line"/>
      <point x="156" y="67"/>
      <point x="271" y="38"/>
    </contour>
  </outline>
</glyph>
<glyph name="Schwa" format="2">
  <advance width="614"/>
  <unicode hex="018F"/>
  <outline>
    <contour>
      <point x="268" y="664" type="qcurve"/>
      <point x="416" y="664"/>
      <point x="546" y="503"/>
      <point x="546" y="326" type="qcurve"/>
      <point x="546" y="157"/>
      <point x="421" y="-15"/>
      <point x="299" y="-15" type="qcurve"/>
      <point x="182" y="-15"/>
      <point x="69" y="146"/>
      <point x="69" y="311" type="qcurve"/>
      <point x="69" y="325"/>
      <point x="71" y="353"/>
      <point x="74" y="369" type="qcurve"/>
      <point x="482" y="369" type="line"/>
      <point x="477" y="499"/>
      <point x="381" y="613"/>
      <point x="270" y="613" type="qcurve"/>
      <point x="246" y="613"/>
      <point x="187" y="608"/>
      <point x="154" y="603" type="qcurve"/>
      <point x="149" y="655" type="line"/>
      <point x="183" y="660"/>
      <point x="242" y="664"/>
    </contour>
    <contour>
      <point x="299" y="36" type="qcurve"/>
      <point x="395" y="36"/>
      <point x="482" y="171"/>
      <point x="483" y="318" type="qcurve"/>
      <point x="129" y="318" type="line"/>
      <point x="130" y="169"/>
      <point x="208" y="36"/>
    </contour>
  </outline>
</glyph>
<glyph name="Ohorn" format="2">
  <advance width="614"/>
  <unicode hex="01A0"/>
  <outline>
    <contour>
      <point x="58" y="325" type="qcurve"/>
      <point x="58" y="477"/>
      <point x="191" y="655"/>
      <point x="304" y="655" type="qcurve"/>
      <point x="437" y="655" type="line"/>
      <point x="498" y="655"/>
      <point x="537" y="695"/>
      <point x="540" y="768" type="qcurve"/>
      <point x="600" y="768" type="line"/>
      <point x="598" y="688"/>
      <point x="532" y="616"/>
      <point x="459" y="616" type="qcurve"/>
      <point x="450" y="616"/>
      <point x="428" y="617"/>
      <point x="411" y="619" type="qcurve"/>
      <point x="410" y="614" type="line"/>
      <point x="483" y="581"/>
      <point x="556" y="439"/>
      <point x="556" y="329" type="qcurve"/>
      <point x="556" y="168"/>
      <point x="423" y="-15"/>
      <point x="307" y="-15" type="qcurve"/>
      <point x="191" y="-15"/>
      <point x="58" y="165"/>
    </contour>
    <contour>
      <point x="307" y="604" type="qcurve"/>
      <point x="218" y="604"/>
      <point x="121" y="460"/>
      <point x="121" y="327" type="qcurve"/>
      <point x="121" y="188"/>
      <point x="218" y="36"/>
      <point x="307" y="36" type="qcurve"/>
      <point x="396" y="36"/>
      <point x="493" y="188"/>
      <point x="493" y="327" type="qcurve"/>
      <point x="493" y="460"/>
      <point x="396" y="604"/>
    </contour>
  </outline>
</glyph>
<glyph name="Uhorn" format="2">
  <advance width="614"/>
  <unicode hex="01AF"/>
  <outline>
    <contour>
      <point x="307" y="36" type="qcurve"/>
      <point x="391" y="36"/>
      <point x="472" y="133"/>
      <point x="472" y="234" type="qcurve"/>
      <point x="472" y="655" type="line"/>
      <point x="509" y="655" type="line"/>
      <point x="572" y="655"/>
      <point x="609" y="694"/>
      <point x="612" y="768" type="qcurve"/>
      <point x="672" y="768" type="line"/>
      <point x="670" y="683"/>
      <point x="606" y="610"/>
      <point x="532" y="610" type="qcurve"/>
      <point x="532" y="234" type="line"/>
      <point x="532" y="111"/>
      <point x="418" y="-15"/>
      <point x="306" y="-15" type="qcurve"/>
      <point x="196" y="-15"/>
      <point x="82" y="112"/>
      <point x="82" y="234" type="qcurve"/>
      <point x="82" y="655" type="line"/>
      <point x="143" y="655" type="line"/>
      <point x="143" y="234" type="line"/>
      <point x="143" y="135"/>
      <point x="225" y="36"/>
    </contour>
  </outline>
</glyph>
<glyph name="uhorn" format="2">
  <advance width="614"/>
  <unicode hex="01B0"/>
  <outline>
    <contour>
      <point x="511" y="420" type="qcurve"/>
      <point x="511" y="0" type="line"/>
      <point x="456" y="0" type="line"/>
      <point x="452" y="114" type="line"/>
      <point x="383" y="46"/>
      <point x="293" y="-5"/>
      <point x="243" y="-5" type="qcurve"/>
      <point x="176" y="-5"/>
      <point x="101" y="70"/>
      <point x="101" y="137" type="qcurve"/>
      <point x="101" y="460" type="line"/>
      <point x="160" y="460" type="line"/>
      <point x="160" y="147" type="line"/>
      <point x="160" y="96"/>
      <point x="205" y="47"/>
      <point x="253" y="47" type="qcurve"/>
      <point x="293" y="47"/>
      <point x="377" y="99"/>
      <point x="452" y="171" type="qcurve"/>
      <point x="452" y="460" type="line"/>
      <point x="471" y="460" type="line"/>
      <point x="532" y="460"/>
      <point x="568" y="499"/>
      <point x="571" y="572" type="qcurve"/>
      <point x="629" y="572" type="line"/>
      <point x="627" y="496"/>
      <point x="572" y="424"/>
    </contour>
  </outline>
</glyph>
<glyph name="dotlessj" format="2">
  <advance width="614"/>
  <unicode hex="0237"/>
  <outline>
    <contour>
      <point x="395" y="460" type="line"/>
      <point x="395" y="-74" type="line"/>
      <point x="395" y="-151"/>
      <point x="318" y="-224"/>
      <point x="231" y="-230" type="qcurve"/>
      <point x="102" y="-239" type="line"/>
      <point x="99" y="-188" type="line"/>
      <point x="228" y="-178" type="line"/>
      <point x="287" y="-173"/>
      <point x="336" y="-124"/>
      <point x="336" y="-69" type="qcurve"/>
      <point x="336" y="410" type="line"/>
      <point x="125" y="410" type="line"/>
      <point x="125" y="460" type="line"/>
    </contour>
  </outline>
</glyph>
<glyph name="schwa" format="2">
  <advance width="614"/>
  <unicode hex="0259"/>
  <outline>
    <contour>
      <point x="269" y="414" type="qcurve"/>
      <point x="164" y="416" type="line"/>
      <point x="166" y="465" type="line"/>
      <point x="283" y="463" type="line"/>
      <point x="406" y="461"/>
      <point x="531" y="348"/>
      <point x="531" y="240" type="qcurve"/>
      <point x="531" y="129"/>
      <point x="397" y="-15"/>
      <point x="296" y="-15" type="qcurve"/>
      <point x="192" y="-15"/>
      <point x="81" y="111"/>
      <point x="81" y="229" type="qcurve"/>
      <point x="81" y="235"/>
      <point x="82" y="246"/>
      <point x="83" y="254" type="qcurve"/>
      <point x="471" y="254" type="line"/>
      <point x="466" y="332"/>
      <point x="366" y="412"/>
    </contour>
    <contour>
      <point x="296" y="35" type="qcurve"/>
      <point x="364" y="35"/>
      <point x="460" y="128"/>
      <point x="469" y="205" type="qcurve"/>
      <point x="142" y="205" type="line"/>
      <point x="147" y="121"/>
      <point x="225" y="35"/>
    </contour>
  </outline>
</glyph>
<glyph name="ringhalfleft" format="2">
  <advance width="614"/>
  <unicode hex="02BF"/>
  <outline>
    <contour>
      <point x="154" y="519" type="qcurve"/>
      <point x="154" y="618"/>
      <point x="290" y="725"/>
      <point x="418" y="725" type="qcurve"/>
      <point x="418" y="663" type="line"/>
      <point x="322" y="663"/>
      <point x="230" y="594"/>
      <point x="230" y="519" type="qcurve"/>
      <point x="230" y="445"/>
      <point x="321" y="377"/>
      <point x="418" y="377" type="qcurve"/>
      <point x="418" y="315" type="line"/>
      <point x="289" y="315"/>
      <point x="154" y="421"/>
    </contour>
  </outline>
</glyph>
<glyph name="verticallinemod" format="2">
  <advance width="614"/>
  <unicode hex="02C8"/>
  <outline>
    <contour>
      <point x="344" y="715" type="line"/>
      <point x="344" y="323" type="line"/>
      <point x="270" y="323" type="line"/>
      <point x="270" y="715" type="line"/>
    </contour>
  </outline>
</glyph>
<glyph name="acutecmb" format="2">
  <unicode hex="0301"/>
  <outline>
    <contour>
      <point x="-54" y="536" type="line"/>
      <point x="-82" y="567" type="line"/>
      <point x="118" y="738" type="line"/>
      <point x="157" y="695" type="line"/>
    </contour>
  </outline>
</glyph>
<glyph name="tildecmb" format="2">
  <unicode hex="0303"/>
  <outline>
    <contour>
      <point x="84" y="536" type="qcurve"/>
      <point x="63" y="536"/>
      <point x="17" y="571"/>
      <point x="-20" y="613" type="qcurve"/>
      <point x="-51" y="648"/>
      <point x="-75" y="670"/>
      <point x="-85" y="670" type="qcurve"/>
      <point x="-100" y="670"/>
      <point x="-128" y="614"/>
      <point x="-157" y="536" type="qcurve"/>
      <point x="-199" y="552" type="line"/>
      <point x="-166" y="651"/>
      <point x="-120" y="726"/>
      <point x="-88" y="726" type="qcurve"/>
      <point x="-67" y="726"/>
      <point x="-21" y="691"/>
      <point x="16" y="649" type="qcurve"/>
      <point x="47" y="614"/>
      <point x="71" y="592"/>
      <point x="81" y="592" type="qcurve"/>
      <point x="96" y="592"/>
      <point x="124" y="648"/>
      <point x="153" y="726" type="qcurve"/>
      <point x="195" y="710" type="line"/>
      <point x="162" y="611"/>
      <point x="116" y="536"/>
    </contour>
  </outline>
</glyph>
<glyph name="brevecmb" format="2">
  <unicode hex="0306"/>
  <outline>
    <contour>
      <point x="0" y="586" type="qcurve"/>
      <point x="47" y="586"/>
      <point x="110" y="652"/>
      <point x="137" y="730" type="qcurve"/>
      <point x="179" y="718" type="line"/>
      <point x="153" y="620"/>
      <point x="70" y="536"/>
      <point x="0" y="536" type="qcurve"/>
      <point x="-70" y="536"/>
      <point x="-153" y="620"/>
      <point x="-179" y="718" type="qcurve"/>
      <point x="-137" y="730" type="line"/>
      <point x="-110" y="652"/>
      <point x="-47" y="586"/>
    </contour>
  </outline>
</glyph>
<glyph name="dieresiscmb" format="2">
  <unicode hex="0308"/>
  <outline>
    <contour>
      <point x="-66" y="605" type="qcurve"/>
      <point x="-66" y="582"/>
      <point x="-94" y="556"/>
      <point x="-119" y="556" type="qcurve"/>
      <point x="-143" y="556"/>
      <point x="-170" y="581"/>
      <point x="-170" y="605" type="qcurve"/>
      <point x="-170" y="628"/>
      <point x="-142" y="655"/>
      <point x="-118" y="655" type="qcurve"/>
      <point x="-93" y="655"/>
      <point x="-66" y="629"/>
    </contour>
    <contour>
      <point x="170" y="605" type="qcurve"/>
      <point x="170" y="582"/>
      <point x="142" y="556"/>
      <point x="117" y="556" type="qcurve"/>
      <point x="93" y="556"/>
      <point x="67" y="581"/>
      <point x="67" y="605" type="qcurve"/>
      <point x="67" y="628"/>
      <point x="95" y="655"/>
      <point x="118" y="655" type="qcurve"/>
      <point x="143" y="655"/>
      <point x="170" y="629"/>
    </contour>
  </outline>
</glyph>
<glyph name="hookcmb" format="2">
  <unicode hex="0309"/>
  <outline>
    <contour>
      <point x="101" y="644" type="qcurve"/>
      <point x="101" y="599"/>
      <point x="2" y="541"/>
      <point x="-90" y="536" type="qcurve"/>
      <point x="-104" y="568" type="line"/>
      <point x="-104" y="570" type="line"/>
      <point x="-30" y="578"/>
      <point x="44" y="613"/>
      <point x="44" y="641" type="qcurve"/>
      <point x="44" y="668"/>
      <point x="-26" y="699"/>
      <point x="-105" y="712" type="qcurve"/>
      <point x="-105" y="715" type="line"/>
      <point x="-72" y="751" type="line"/>
      <point x="21" y="736"/>
      <point x="101" y="689"/>
    </contour>
  </outline>
</glyph>
<glyph name="hungarumlautcmb" format="2">
  <unicode hex="030B"/>
  <outline>
    <contour>
      <point x="-119" y="536" type="line"/>
      <point x="-153" y="556" type="line"/>
      <point x="-69" y="729" type="line"/>
      <point x="-8" y="701" type="line"/>
    </contour>
    <contour>
      <point x="99" y="536" type="line"/>
      <point x="65" y="556" type="line"/>
      <point x="149" y="729" type="line"/>
      <point x="210" y="701" type="line"/>
    </contour>
  </outline>
</glyph>
<glyph name="commaturnedabovecmb" format="2">
  <unicode hex="0312"/>
  <outline>
    <contour>
      <point x="-105" y="643" type="qcurve"/>
      <point x="-105" y="688"/>
      <point x="-6" y="746"/>
      <point x="86" y="751" type="qcurve"/>
      <point x="100" y="719" type="line"/>
      <point x="100" y="717" type="line"/>
      <point x="26" y="709"/>
      <point x="-48" y="674"/>
      <point x="-48" y="646" type="qcurve"/>
      <point x="-48" y="619"/>
      <point x="22" y="588"/>
      <point x="101" y="575" type="qcurve"/>
      <point x="101" y="572" type="line"/>
      <point x="68" y="536" type="line"/>
      <point x="-25" y="551"/>
      <point x="-105" y="598"/>
    </contour>
  </outline>
</glyph>
<glyph name="dotbelowcmb" format="2">
  <unicode hex="0323"/>
  <outline>
    <contour>
      <point x="54" y="-148" type="qcurve"/>
      <point x="54" y="-173"/>
      <point x="25" y="-199"/>
      <point x="-1" y="-199" type="qcurve"/>
      <point x="-27" y="-199"/>
      <point x="-54" y="-173"/>
      <point x="-54" y="-148" type="qcurve"/>
      <point x="-54" y="-124"/>
      <point x="-24" y="-96"/>
      <point x="0" y="-96" type="qcurve"/>
      <point x="26" y="-96"/>
      <point x="54" y="-123"/>
    </contour>
  </outline>
</glyph>
<glyph name="uni0326" format="2">
  <unicode hex="0326"/>
  <outline>
    <contour>
      <point x="101" y="-183" type="qcurve"/>
      <point x="101" y="-228"/>
      <point x="2" y="-286"/>
      <point x="-90" y="-291" type="qcurve"/>
      <point x="-104" y="-259" type="line"/>
      <point x="-104" y="-257" type="line"/>
      <point x="-30" y="-249"/>
      <point x="44" y="-214"/>
      <point x="44" y="-186" type="qcurve"/>
      <point x="44" y="-159"/>
      <point x="-26" y="-128"/>
      <point x="-105" y="-115" type="qcurve"/>
      <point x="-105" y="-112" type="line"/>
      <point x="-72" y="-76" type="line"/>
      <point x="21" y="-91"/>
      <point x="101" y="-138"/>
    </contour>
  </outline>
</glyph>
<glyph name="brevebelowcmb" format="2">
  <unicode hex="032E"/>
  <outline>
    <contour>
      <point x="0" y="-220" type="qcurve"/>
      <point x="47" y="-220"/>
      <point x="110" y="-154"/>
      <point x="137" y="-76" type="qcurve"/>
      <point x="179" y="-88" type="line"/>
      <point x="153" y="-186"/>
      <point x="70" y="-270"/>
      <point x="0" y="-270" type="qcurve"/>
      <point x="-70" y="-270"/>
      <point x="-153" y="-186"/>
      <point x="-179" y="-88" type="qcurve"/>
      <point x="-137" y="-76" type="line"/>
      <point x="-110" y="-154"/>
      <point x="-47" y="-220"/>
    </contour>
  </outline>
</glyph>
<glyph name="emdash" format="2">
  <advance width="614"/>
  <unicode hex="2014"/>
  <outline>
    <contour>
      <point x="50" y="299" type="line"/>
      <point x="50" y="354" type="line"/>
      <point x="564" y="354" type="line"/>
      <point x="564" y="299" type="line"/>
    </contour>
  </outline>
</glyph>
<glyph name="quotedblright" format="2">
  <advance width="614"/>
  <unicode hex="201D"/>
  <outline>
    <contour>
      <point x="379" y="446" type="qcurve"/>
      <point x="316" y="446" type="line"/>
      <point x="316" y="448" type="line"/>
      <point x="376" y="538"/>
      <point x="408" y="622"/>
      <point x="416" y="710" type="qcurve"/>
      <point x="516" y="710" type="line"/>
      <point x="506" y="611"/>
      <point x="461" y="523"/>
    </contour>
    <contour>
      <point x="134" y="446" type="qcurve"/>
      <point x="71" y="446" type="line"/>
      <point x="71" y="448" type="line"/>
      <point x="131" y="538"/>
      <point x="163" y="622"/>
      <point x="171" y="710" type="qcurve"/>
      <point x="271" y="710" type="line"/>
      <point x="261" y="611"/>
      <point x="216" y="523"/>
    </contour>
  </outline>
</glyph>
<glyph name="dagger" format="2">
  <advance width="614"/>
  <unicode hex="2020"/>
  <outline>
    <contour>
      <point x="539" y="517" type="qcurve"/>
      <point x="539" y="435" type="line"/>
      <point x="519" y="435"/>
      <point x="472" y="440"/>
      <point x="425" y="447" type="qcurve"/>
      <point x="386" y="453"/>
      <point x="348" y="458"/>
      <point x="332" y="459" type="qcurve"/>
      <point x="332" y="420"/>
      <point x="336" y="327"/>
      <point x="343" y="235" type="qcurve"/>
      <point x="349" y="138"/>
      <point x="353" y="41"/>
      <point x="353" y="0" type="qcurve"/>
      <point x="261" y="0" type="line"/>
      <point x="261" y="41"/>
      <point x="265" y="137"/>
      <point x="272" y="234" type="qcurve"/>
      <point x="279" y="327"/>
      <point x="284" y="420"/>
      <point x="284" y="459" type="qcurve"/>
      <point x="267" y="458"/>
      <point x="226" y="453"/>
      <point x="186" y="447" type="qcurve"/>
      <point x="139" y="440"/>
      <point x="93" y="435"/>
      <point x="75" y="435" type="qcurve"/>
      <point x="75" y="517" type="line"/>
      <point x="93" y="517"/>
      <point x="138" y="513"/>
      <point x="185" y="507" type="qcurve"/>
      <point x="225" y="501"/>
      <point x="266" y="497"/>
      <point x="283" y="496" type="qcurve"/>
      <point x="282" y="513"/>
      <point x="278" y="554"/>
      <point x="272" y="594" type="qcurve"/>
      <point x="265" y="642"/>
      <point x="261" y="690"/>
      <point x="261" y="710" type="qcurve"/>
      <point x="353" y="710" type="line"/>
      <point x="353" y="689"/>
      <point x="349" y="639"/>
      <point x="342" y="589" type="qcurve"/>
      <point x="337" y="551"/>
      <point x="333" y="512"/>
      <point x="332" y="496" type="qcurve"/>
      <point x="348" y="497"/>
      <point x="385" y="501"/>
      <point x="422" y="506" type="qcurve"/>
      <point x="470" y="513"/>
      <point x="518" y="517"/>
    </contour>
  </outline>
</glyph>
<glyph name="bullet" format="2">
  <advance width="614"/>
  <unicode hex="2022"/>
  <outline>
    <contour>
      <point x="186" y="335" type="qcurve"/>
      <point x="186" y="390"/>
      <point x="251" y="454"/>
      <point x="308" y="454" type="qcurve"/>
      <point x="367" y="454"/>
      <point x="430" y="393"/>
      <point x="430" y="335" type="qcurve"/>
      <point x="430" y="280"/>
      <point x="365" y="217"/>
      <point x="308" y="217" type="qcurve"/>
      <point x="249" y="217"/>
      <point x="186" y="277"/>
    </contour>
  </outline>
</glyph>
<glyph name="twodotleader" format="2">
  <advance width="614"/>
  <unicode hex="2025"/>
  <outline>
    <contour>
      <point x="217" y="54" type="qcurve"/>
      <point x="217" y="21"/>
      <point x="183" y="-15"/>
      <point x="153" y="-15" type="qcurve"/>
      <point x="123" y="-15"/>
      <point x="90" y="20"/>
      <point x="90" y="53" type="qcurve"/>
      <point x="90" y="86"/>
      <point x="123" y="122"/>
      <point x="153" y="122" type="qcurve"/>
      <point x="184" y="122"/>
      <point x="217" y="87"/>
    </contour>
    <contour>
      <point x="524" y="54" type="qcurve"/>
      <point x="524" y="21"/>
      <point x="491" y="-15"/>
      <point x="461" y="-15" type="qcurve"/>
      <point x="430" y="-15"/>
      <point x="397" y="20"/>
      <point x="397" y="53" type="qcurve"/>
      <point x="397" y="86"/>
      <point x="431" y="122"/>
      <point x="461" y="122" type="qcurve"/>
      <point x="491" y="122"/>
      <point x="524" y="87"/>
    </contour>
  </outline>
</glyph>
<glyph name="ellipsis" format="2">
  <advance width="614"/>
  <unicode hex="2026"/>
  <outline>
    <contour>
      <point x="365" y="55" type="qcurve"/>
      <point x="365" y="19"/>
      <point x="337" y="-15"/>
      <point x="307" y="-15" type="qcurve"/>
      <point x="278" y="-15"/>
      <point x="249" y="20"/>
      <point x="249" y="55" type="qcurve"/>
      <point x="249" y="87"/>
      <point x="280" y="122"/>
      <point x="309" y="122" type="qcurve"/>
      <point x="338" y="122"/>
      <point x="365" y="90"/>
    </contour>
    <contour>
      <point x="570" y="55" type="qcurve"/>
      <point x="570" y="19"/>
      <point x="542" y="-15"/>
      <point x="512" y="-15" type="qcurve"/>
      <point x="483" y="-15"/>
      <point x="454" y="20"/>
      <point x="454" y="55" type="qcurve"/>
      <point x="454" y="87"/>
      <point x="485" y="122"/>
      <point x="514" y="122" type="qcurve"/>
      <point x="543" y="122"/>
      <point x="570" y="90"/>
    </contour>
    <contour>
      <point x="160" y="55" type="qcurve"/>
      <point x="160" y="19"/>
      <point x="132" y="-15"/>
      <point x="102" y="-15" type="qcurve"/>
      <point x="73" y="-15"/>
      <point x="44" y="20"/>
      <point x="44" y="55" type="qcurve"/>
      <point x="44" y="87"/>
      <point x="75" y="122"/>
      <point x="104" y="122" type="qcurve"/>
      <point x="133" y="122"/>
      <point x="160" y="90"/>
    </contour>
  </outline>
</glyph>
<glyph name="guilsinglleft" format="2">
  <advance width="614"/>
  <unicode hex="2039"/>
  <outline>
    <contour>
      <point x="434" y="49" type="line"/>
      <point x="434" y="-15" type="line"/>
      <point x="158" y="203" type="line"/>
      <point x="158" y="254" type="line"/>
      <point x="434" y="471" type="line"/>
      <point x="434" y="410" type="line"/>
      <point x="215" y="233" type="line"/>
    </contour>
  </outline>
</glyph>
<glyph name="guilsinglright" format="2">
  <advance width="614"/>
  <unicode hex="203A"/>
  <outline>
    <contour>
      <point x="180" y="407" type="line"/>
      <point x="180" y="471" type="line"/>
      <point x="456" y="253" type="line"/>
      <point x="456" y="202" type="line"/>
      <point x="180" y="-15" type="line"/>
      <point x="180" y="46" type="line"/>
      <point x="399" y="223" type="line"/>
    </contour>
  </outline>
</glyph>
<glyph name="won" format="2">
  <advance width="614"/>
  <unicode hex="20A9"/>
  <outline>
    <contour>
      <point x="312" y="455" type="line"/>
      <point x="301" y="455" type="line"/>
      <point x="220" y="0" type="line"/>
      <point x="131" y="0" type="line"/>
      <point x="104" y="306" type="line"/>
      <point x="14" y="306" type="line"/>
      <point x="14" y="356" type="line"/>
      <point x="99" y="356" type="line"/>
      <point x="73" y="655" type="line"/>
      <point x="116" y="655" type="line"/>
      <point x="142" y="352" type="line"/>
      <point x="241" y="352" type="line"/>
      <point x="265" y="485" type="line"/>
      <point x="349" y="485" type="line"/>
      <point x="373" y="352" type="line"/>
      <point x="473" y="352" type="line"/>
      <point x="499" y="655" type="line"/>
      <point x="541" y="655" type="line"/>
      <point x="514" y="356" type="line"/>
      <point x="600" y="356" type="line"/>
      <point x="600" y="306" type="line"/>
      <point x="510" y="306" type="line"/>
      <point x="482" y="0" type="line"/>
      <point x="394" y="0" type="line"/>
    </contour>
    <contour>
      <point x="431" y="32" type="line"/>
      <point x="445" y="32" type="line"/>
      <point x="469" y="310" type="line"/>
      <point x="381" y="310" type="line"/>
    </contour>
    <contour>
      <point x="145" y="310" type="line"/>
      <point x="169" y="32" type="line"/>
      <point x="183" y="32" type="line"/>
      <point x="233" y="310" type="line"/>
    </contour>
  </outline>
</glyph>
<glyph name="peso" format="2">
  <advance width="614"/>
  <unicode hex="20B1"/>
  <outline>
    <contour>
      <point x="110" y="425" type="line"/>
      <point x="13" y="425" type="line"/>
      <point x="13" y="473" type="line"/>
      <point x="110" y="473" type="line"/>
      <point x="110" y="655" type="line"/>
      <point x="279" y="655" type="line"/>
      <point x="382" y="655"/>
      <point x="504" y="560"/>
      <point x="512" y="473" type="qcurve"/>
      <point x="602" y="473" type="line"/>
      <point x="602" y="425" type="line"/>
      <point x="512" y="425" type="line"/>
      <point x="504" y="336"/>
      <point x="372" y="236"/>
      <point x="263" y="236" type="qcurve"/>
      <point x="171" y="236" type="line"/>
      <point x="171" y="0" type="line"/>
      <point x="110" y="0" type="line"/>
    </contour>
    <contour>
      <point x="275" y="604" type="qcurve"/>
      <point x="171" y="604" type="line"/>
      <point x="171" y="466" type="line"/>
      <point x="450" y="466" type="line"/>
      <point x="444" y="533"/>
      <point x="354" y="604"/>
    </contour>
    <contour>
      <point x="171" y="286" type="line"/>
      <point x="267" y="286" type="line"/>
      <point x="349" y="286"/>
      <point x="446" y="363"/>
      <point x="451" y="432" type="qcurve"/>
      <point x="171" y="432" type="line"/>
    </contour>
  </outline>
</glyph>
<glyph name="uni20BA" format="2">
  <advance width="614"/>
  <unicode hex="20BA"/>
  <outline>
    <contour>
      <point x="130" y="194" type="line"/>
      <point x="22" y="134" type="line"/>
      <point x="22" y="189" type="line"/>
      <point x="130" y="249" type="line"/>
      <point x="130" y="351" type="line"/>
      <point x="22" y="290" type="line"/>
      <point x="22" y="348" type="line"/>
      <point x="130" y="408" type="line"/>
      <point x="130" y="655" type="line"/>
      <point x="191" y="655" type="line"/>
      <point x="191" y="442" type="line"/>
      <point x="374" y="547" type="line"/>
      <point x="374" y="489" type="line"/>
      <point x="191" y="385" type="line"/>
      <point x="191" y="284" type="line"/>
      <point x="374" y="388" type="line"/>
      <point x="374" y="330" type="line"/>
      <point x="191" y="228" type="line"/>
      <point x="191" y="50" type="line"/>
      <point x="252" y="50" type="line"/>
      <point x="370" y="50"/>
      <point x="502" y="182"/>
      <point x="509" y="308" type="qcurve"/>
      <point x="570" y="304" type="line"/>
      <point x="566" y="160"/>
      <point x="398" y="0"/>
      <point x="254" y="0" type="qcurve"/>
      <point x="130" y="0" type="line"/>
    </contour>
  </outline>
</glyph>
<glyph name="published" format="2">
  <advance width="614"/>
  <unicode hex="2117"/>
  <outline>
    <contour>
      <point x="307" y="725" type="qcurve"/>
      <point x="438" y="725"/>
      <point x="557" y="533"/>
      <point x="557" y="328" type="qcurve"/>
      <point x="557" y="123"/>
      <point x="437" y="-70"/>
      <point x="307" y="-70" type="qcurve"/>
      <point x="177" y="-70"/>
      <point x="57" y="123"/>
      <point x="57" y="328" type="qcurve"/>
      <point x="57" y="532"/>
      <point x="177" y="725"/>
    </contour>
    <contour>
      <point x="307" y="680" type="qcurve"/>
      <point x="199" y="680"/>
      <point x="104" y="512"/>
      <point x="104" y="328" type="qcurve"/>
      <point x="104" y="144"/>
      <point x="199" y="-25"/>
      <point x="307" y="-25" type="qcurve"/>
      <point x="415" y="-25"/>
      <point x="510" y="143"/>
      <point x="510" y="328" type="qcurve"/>
      <point x="510" y="512"/>
      <point x="416" y="680"/>
    </contour>
    <contour>
      <point x="209" y="105" type="line"/>
      <point x="209" y="550" type="line"/>
      <point x="310" y="550" type="line"/>
      <point x="380" y="550"/>
      <point x="441" y="482"/>
      <point x="441" y="405" type="qcurve"/>
      <point x="441" y="331"/>
      <point x="373" y="263"/>
      <point x="299" y="263" type="qcurve"/>
      <point x="262" y="263" type="line"/>
      <point x="262" y="105" type="line"/>
    </contour>
    <contour>
      <point x="387" y="403" type="qcurve"/>
      <point x="387" y="459"/>
      <point x="353" y="504"/>
      <point x="308" y="504" type="qcurve"/>
      <point x="262" y="504" type="line"/>
      <point x="262" y="312" type="line"/>
      <point x="304" y="312" type="line"/>
      <point x="351" y="312"/>
      <point x="387" y="352"/>
    </contour>
  </outline>
</glyph>
<glyph name="servicemark" format="2">
  <advance width="614"/>
  <unicode hex="2120"/>
  <outline>
    <contour>
      <point x="142" y="435" type="qcurve"/>
      <point x="172" y="435"/>
      <point x="204" y="461"/>
      <point x="204" y="484" type="qcurve"/>
      <point x="204" y="503"/>
      <point x="183" y="529"/>
      <point x="161" y="536" type="qcurve"/>
      <point x="127" y="547" type="line"/>
      <point x="84" y="561"/>
      <point x="44" y="606"/>
      <point x="44" y="640" type="qcurve"/>
      <point x="44" y="674"/>
      <point x="98" y="717"/>
      <point x="145" y="717" type="qcurve"/>
      <point x="167" y="717"/>
      <point x="209" y="710"/>
      <point x="239" y="701" type="qcurve"/>
      <point x="229" y="662" type="line"/>
      <point x="204" y="671"/>
      <point x="162" y="679"/>
      <point x="145" y="679" type="qcurve"/>
      <point x="117" y="679"/>
      <point x="87" y="659"/>
      <point x="87" y="641" type="qcurve"/>
      <point x="87" y="621"/>
      <point x="108" y="596"/>
      <point x="132" y="588" type="qcurve"/>
      <point x="167" y="577" type="line"/>
      <point x="210" y="563"/>
      <point x="248" y="520"/>
      <point x="248" y="485" type="qcurve"/>
      <point x="248" y="443"/>
      <point x="192" y="397"/>
      <point x="142" y="397" type="qcurve"/>
      <point x="115" y="397"/>
      <point x="62" y="409"/>
      <point x="32" y="421" type="qcurve"/>
      <point x="45" y="460" type="line"/>
      <point x="73" y="448"/>
      <point x="125" y="435"/>
    </contour>
    <contour>
      <point x="496" y="710" type="line"/>
      <point x="551" y="710" type="line"/>
      <point x="562" y="404" type="line"/>
      <point x="521" y="404" type="line"/>
      <point x="515" y="672" type="line"/>
      <point x="446" y="500" type="line"/>
      <point x="425" y="500" type="line"/>
      <point x="354" y="669" type="line"/>
      <point x="349" y="404" type="line"/>
      <point x="307" y="404" type="line"/>
      <point x="319" y="710" type="line"/>
      <point x="374" y="710" type="line"/>
      <point x="436" y="563" type="line"/>
    </contour>
  </outline>
</glyph>
<glyph name="trademark" format="2">
  <advance width="614"/>
  <unicode hex="2122"/>
  <outline>
    <contour>
      <point x="130" y="671" type="line"/>
      <point x="37" y="671" type="line"/>
      <point x="37" y="710" type="line"/>
      <point x="265" y="710" type="line"/>
      <point x="265" y="671" type="line"/>
      <point x="175" y="671" type="line"/>
      <point x="175" y="404" type="line"/>
      <point x="130" y="404" type="line"/>
    </contour>
    <contour>
      <point x="496" y="710" type="line"/>
      <point x="551" y="710" type="line"/>
      <point x="562" y="404" type="line"/>
      <point x="521" y="404" type="line"/>
      <point x="515" y="672" type="line"/>
      <point x="446" y="500" type="line"/>
      <point x="425" y="500" type="line"/>
      <point x="354" y="669" type="line"/>
      <point x="349" y="404" type="line"/>
      <point x="307" y="404" type="line"/>
      <point x="319" y="710" type="line"/>
      <point x="374" y="710" type="line"/>
      <point x="436" y="563" type="line"/>
    </contour>
  </outline>
</glyph>
<glyph name="approxequal" format="2">
  <advance width="614"/>
  <unicode hex="2248"/>
  <outline>
    <contour>
      <point x="524" y="565" type="qcurve"/>
      <point x="572" y="545" type="line"/>
      <point x="534" y="443"/>
      <point x="471" y="357"/>
      <point x="429" y="357" type="qcurve"/>
      <point x="408" y="357"/>
      <point x="355" y="386"/>
      <point x="297" y="430" type="qcurve"/>
      <point x="245" y="469"/>
      <point x="198" y="497"/>
      <point x="179" y="497" type="qcurve"/>
      <point x="163" y="497"/>
      <point x="135" y="456"/>
      <point x="90" y="350" type="qcurve"/>
      <point x="42" y="370" type="line"/>
      <point x="80" y="472"/>
      <point x="143" y="558"/>
      <point x="185" y="558" type="qcurve"/>
      <point x="206" y="558"/>
      <point x="259" y="529"/>
      <point x="317" y="485" type="qcurve"/>
      <point x="369" y="446"/>
      <point x="416" y="418"/>
      <point x="435" y="418" type="qcurve"/>
      <point x="451" y="418"/>
      <point x="479" y="459"/>
    </contour>
    <contour>
      <point x="524" y="308" type="qcurve"/>
      <point x="572" y="288" type="line"/>
      <point x="534" y="186"/>
      <point x="471" y="100"/>
      <point x="429" y="100" type="qcurve"/>
      <point x="408" y="100"/>
      <point x="355" y="129"/>
      <point x="297" y="173" type="qcurve"/>
      <point x="245" y="212"/>
      <point x="198" y="240"/>
      <point x="179" y="240" type="qcurve"/>
      <point x="163" y="240"/>
      <point x="135" y="199"/>
      <point x="90" y="93" type="qcurve"/>
      <point x="42" y="113" type="line"/>
      <point x="80" y="215"/>
      <point x="143" y="301"/>
      <point x="185" y="301" type="qcurve"/>
      <point x="206" y="301"/>
      <point x="259" y="272"/>
      <point x="317" y="228" type="qcurve"/>
      <point x="369" y="189"/>
      <point x="416" y="161"/>
      <point x="435" y="161" type="qcurve"/>
      <point x="451" y="161"/>
      <point x="479" y="202"/>
    </contour>
  </outline>
</glyph>
<glyph name="lightarcdnleftbxd" format="2">
  <advance width="614"/>
  <unicode hex="256E"/>
  <outline>
    <contour>
      <point x="338" y="23" type="qcurve" smooth="yes"/>
      <point x="338" y="-420" type="line"/>
      <point x="277" y="-420" type="line"/>
      <point x="277" y="23" type="line" smooth="yes"/>
      <point x="277" y="166"/>
      <point x="143" y="300"/>
      <point x="0" y="300" type="qcurve" smooth="yes"/>
      <point x="-20" y="300" type="line"/>
      <point x="-20" y="361" type="line"/>
      <point x="0" y="361" type="line" smooth="yes"/>
      <point x="175" y="361"/>
      <point x="338" y="198"/>
    </contour>
  </outline>
</glyph>
<glyph name="lightarcupleftbxd" format="2">
  <advance width="614"/>
  <unicode hex="256F"/>
  <outline>
    <contour>
      <point x="277" y="1080" type="line"/>
      <point x="338" y="1080" type="line"/>
      <point x="338" y="637" type="line" smooth="yes"/>
      <point x="338" y="463"/>
      <point x="175" y="300"/>
      <point x="0" y="300" type="qcurve" smooth="yes"/>
      <point x="-20" y="300" type="line"/>
      <point x="-20" y="361" type="line"/>
      <point x="0" y="361" type="line" smooth="yes"/>
      <point x="144" y="361"/>
      <point x="277" y="494"/>
      <point x="277" y="637" type="qcurve" smooth="yes"/>
    </contour>
  </outline>
</glyph>
<glyph name="lightshade" format="2">
  <advance width="614"/>
  <unicode hex="2591"/>
  <outline>
    <contour>
      <point x="0" y="897" type="line"/>
      <point x="0" y="967" type="line"/>
      <point x="47" y="1020" type="line"/>
      <point x="109" y="1020" type="line"/>
    </contour>
    <contour>
      <point x="0" y="208" type="line"/>
      <point x="0" y="277" type="line"/>
      <point x="614" y="967" type="line"/>
      <point x="614" y="898" type="line"/>
    </contour>
    <contour>
      <point x="47" y="-360" type="line"/>
      <point x="614" y="277" type="line"/>
      <point x="614" y="208" type="line"/>
      <point x="107" y="-360" type="line"/>
    </contour>
  </outline>
</glyph>
<glyph name="mediumshade" format="2">
  <advance width="614"/>
  <unicode hex="2592"/>
  <outline>
    <contour>
      <point x="0" y="897" type="line"/>
      <point x="0" y="967" type="line"/>
      <point x="47" y="1020" type="line"/>
      <point x="109" y="1020" type="line"/>
    </contour>
    <contour>
      <point x="0" y="553" type="line"/>
      <point x="0" y="622" type="line"/>
      <point x="354" y="1020" type="line"/>
      <point x="416" y="1020" type="line"/>
    </contour>
    <contour>
      <point x="0" y="208" type="line"/>
      <point x="0" y="277" type="line"/>
      <point x="614" y="967" type="line"/>
      <point x="614" y="898" type="line"/>
    </contour>
    <contour>
      <point x="0" y="-137" type="line"/>
      <point x="0" y="-69" type="line"/>
      <point x="614" y="622" type="line"/>
      <point x="614" y="553" type="line"/>
    </contour>
    <contour>
      <point x="47" y="-360" type="line"/>
      <point x="614" y="277" type="line"/>
      <point x="614" y="208" type="line"/>
      <point x="107" y="-360" type="line"/>
    </contour>
    <contour>
      <point x="354" y="-360" type="line"/>
      <point x="614" y="-69" type="line"/>
      <point x="614" y="-137" type="line"/>
      <point x="415" y="-360" type="line"/>
    </contour>
  </outline>
</glyph>
<glyph name="uni2612" format="2">
  <advance width="614"/>
  <unicode hex="2612"/>
  <outline>
    <contour>
      <point x="564" y="70" type="line"/>
      <point x="50" y="70" type="line"/>
      <point x="50" y="585" type="line"/>
      <point x="564" y="585" type="line"/>
    </contour>
    <contour>
      <point x="474" y="539" type="line"/>
      <point x="146" y="539" type="line"/>
      <point x="310" y="361" type="line"/>
    </contour>
    <contour>
      <point x="272" y="327" type="line"/>
      <point x="106" y="502" type="line"/>
      <point x="106" y="153" type="line"/>
    </contour>
    <contour>
      <point x="508" y="501" type="line"/>
      <point x="346" y="327" type="line"/>
      <point x="508" y="154" type="line"/>
    </contour>
    <contour>
      <point x="308" y="292" type="line"/>
      <point x="140" y="116" type="line"/>
      <point x="469" y="116" type="line"/>
    </contour>
  </outline>
</glyph>
<glyph name="uniE0A0" format="2">
  <advance width="614"/>
  <unicode hex="E0A0"/>
  <outline>
    <contour>
      <point x="55" y="241" type="line"/>
      <point x="55" y="1020" type="line"/>
      <point x="110" y="1020" type="line"/>
      <point x="110" y="286" type="line"/>
    </contour>
    <contour>
      <point x="55" y="-360" type="line"/>
      <point x="55" y="-198" type="line" smooth="yes"/>
      <point x="55" y="-110"/>
      <point x="67" y="-10"/>
      <point x="82" y="25" type="qcurve" smooth="yes"/>
      <point x="99" y="68"/>
      <point x="172" y="134"/>
      <point x="244" y="171" type="qcurve" smooth="yes"/>
      <point x="338.0" y="217.0"/>
      <point x="378.0" y="298.0"/>
      <point x="378.0" y="374" type="qcurve" smooth="yes"/>
      <point x="378" y="520" type="line"/>
      <point x="217" y="520" type="line"/>
      <point x="217" y="524" type="line"/>
      <point x="404" y="728" type="line"/>
      <point x="408" y="728" type="line"/>
      <point x="594" y="524" type="line"/>
      <point x="594" y="520" type="line"/>
      <point x="433" y="520" type="line"/>
      <point x="433.0" y="359" type="line" smooth="yes"/>
      <point x="433.0" y="275.0"/>
      <point x="378.0" y="180.0"/>
      <point x="275" y="126" type="qcurve" smooth="yes"/>
      <point x="206" y="91"/>
      <point x="141" y="33"/>
      <point x="127" y="-6" type="qcurve" smooth="yes"/>
      <point x="118" y="-33"/>
      <point x="110.0" y="-112.0"/>
      <point x="110" y="-209" type="qcurve" smooth="yes"/>
      <point x="110" y="-360" type="line"/>
    </contour>
  </outline>
</glyph>
<glyph name="acutecmb.cap" format="2">
  <outline>
    <contour>
      <point x="-54" y="731" type="line"/>
      <point x="-79" y="764" type="line"/>
      <point x="137" y="915" type="line"/>
      <point x="171" y="869" type="line"/>
    </contour>
  </outline>
</glyph>
<glyph name="ampersand_ampersand.liga" format="2">
  <advance width="614"/>
  <outline>
    <contour>
      <point x="-218" y="669" type="qcurve" smooth="yes"/>
      <point x="-193" y="669"/>
      <point x="-124" y="659"/>
      <point x="-62" y="647" type="qcurve"/>
      <point x="-73" y="596" type="line"/>
      <point x="-126" y="608"/>
      <point x="-197" y="618"/>
      <point x="-227" y="618" type="qcurve" smooth="yes"/>
      <point x="-272" y="618"/>
      <point x="-325" y="579"/>
      <point x="-325" y="546" type="qcurve" smooth="yes"/>
      <point x="-325" y="522"/>
      <point x="-298" y="457"/>
      <point x="-268" y="406" type="qcurve" smooth="yes"/>
      <point x="-170" y="242" type="line"/>
      <point x="-103" y="435" type="line"/>
      <point x="-53" y="417" type="line"/>
      <point x="-136" y="192" type="line"/>
      <point x="-12" y="0" type="line"/>
      <point x="-87" y="0" type="line"/>
      <point x="-165" y="135" type="line"/>
      <point x="-201" y="57"/>
      <point x="-287" y="-5"/>
      <point x="-362" y="-5" type="qcurve" smooth="yes"/>
      <point x="-433" y="-5"/>
      <point x="-523" y="87"/>
      <point x="-523" y="162" type="qcurve" smooth="yes"/>
      <point x="-523" y="252"/>
      <point x="-432" y="340"/>
      <point x="-314" y="374" type="qcurve"/>
      <point x="-352" y="437"/>
      <point x="-383" y="512"/>
      <point x="-383" y="540" type="qcurve" smooth="yes"/>
      <point x="-383" y="599"/>
      <point x="-295" y="669"/>
    </contour>
    <contour>
      <point x="277" y="669" type="qcurve" smooth="yes"/>
      <point x="302" y="669"/>
      <point x="371" y="659"/>
      <point x="433" y="647" type="qcurve"/>
      <point x="422" y="596" type="line"/>
      <point x="369" y="608"/>
      <point x="298" y="618"/>
      <point x="268" y="618" type="qcurve" smooth="yes"/>
      <point x="227" y="618"/>
      <point x="180" y="579"/>
      <point x="180" y="546" type="qcurve" smooth="yes"/>
      <point x="180" y="523"/>
      <point x="206" y="469"/>
      <point x="234" y="429" type="qcurve" smooth="yes"/>
      <point x="380" y="227" type="line"/>
      <point x="452" y="435" type="line"/>
      <point x="502" y="417" type="line"/>
      <point x="415" y="185" type="line"/>
      <point x="553" y="0" type="line"/>
      <point x="478" y="0" type="line"/>
      <point x="384" y="129" type="line"/>
      <point x="348" y="55"/>
      <point x="259" y="-5"/>
      <point x="183" y="-5" type="qcurve" smooth="yes"/>
      <point x="112" y="-5"/>
      <point x="22" y="87"/>
      <point x="22" y="162" type="qcurve" smooth="yes"/>
      <point x="22" y="248"/>
      <point x="104" y="335"/>
      <point x="210" y="368" type="qcurve"/>
      <point x="162" y="435"/>
      <point x="122" y="512"/>
      <point x="122" y="540" type="qcurve" smooth="yes"/>
      <point x="122" y="598"/>
      <point x="205" y="669"/>
    </contour>
    <contour>
      <point x="-463" y="166" type="qcurve" smooth="yes"/>
      <point x="-463" y="111"/>
      <point x="-403" y="47"/>
      <point x="-354" y="47" type="qcurve" smooth="yes"/>
      <point x="-297" y="47"/>
      <point x="-230" y="107"/>
      <point x="-198" y="183" type="qcurve"/>
      <point x="-290" y="335" type="line"/>
      <point x="-399.0" y="302"/>
      <point x="-463.0" y="238.0"/>
    </contour>
    <contour>
      <point x="82" y="166" type="qcurve" smooth="yes"/>
      <point x="82" y="111"/>
      <point x="142" y="47"/>
      <point x="191" y="47" type="qcurve" smooth="yes"/>
      <point x="250" y="47"/>
      <point x="320" y="103"/>
      <point x="351" y="170" type="qcurve"/>
      <point x="237" y="329" type="line"/>
      <point x="131" y="293.0"/>
      <point x="82.0" y="227.0"/>
    </contour>
  </outline>
</glyph>
<glyph name="asciitilde_asciitilde.liga" format="2">
  <advance width="614"/>
  <outline>
    <contour>
      <point x="124" y="371" type="qcurve" smooth="yes"/>
      <point x="107" y="371"/>
      <point x="65" y="347"/>
      <point x="16" y="309" type="qcurve" smooth="yes"/>
      <point x="-45" y="262"/>
      <point x="-107" y="227"/>
      <point x="-131" y="227" type="qcurve" smooth="yes"/>
      <point x="-152" y="227"/>
      <point x="-205" y="256"/>
      <point x="-263" y="300" type="qcurve" smooth="yes"/>
      <point x="-315" y="339"/>
      <point x="-362" y="367"/>
      <point x="-381" y="367" type="qcurve" smooth="yes"/>
      <point x="-397" y="367"/>
      <point x="-425" y="326"/>
      <point x="-470" y="220" type="qcurve"/>
      <point x="-518" y="240" type="line"/>
      <point x="-480" y="342"/>
      <point x="-417" y="428"/>
      <point x="-375" y="428" type="qcurve" smooth="yes"/>
      <point x="-354" y="428"/>
      <point x="-301" y="399"/>
      <point x="-243" y="355" type="qcurve" smooth="yes"/>
      <point x="-191" y="316"/>
      <point x="-144" y="288"/>
      <point x="-125" y="288" type="qcurve" smooth="yes"/>
      <point x="-108" y="288"/>
      <point x="-66" y="312"/>
      <point x="-17" y="350" type="qcurve" smooth="yes"/>
      <point x="44" y="397"/>
      <point x="106" y="432"/>
      <point x="130" y="432" type="qcurve" smooth="yes"/>
      <point x="151" y="432"/>
      <point x="204" y="403"/>
      <point x="262" y="359" type="qcurve" smooth="yes"/>
      <point x="314" y="320"/>
      <point x="361" y="292"/>
      <point x="380" y="292" type="qcurve" smooth="yes"/>
      <point x="396" y="292"/>
      <point x="424" y="333"/>
      <point x="469" y="439" type="qcurve"/>
      <point x="517" y="419" type="line"/>
      <point x="479" y="317"/>
      <point x="416" y="231"/>
      <point x="374" y="231" type="qcurve" smooth="yes"/>
      <point x="353" y="231"/>
      <point x="300" y="260"/>
      <point x="242" y="304" type="qcurve" smooth="yes"/>
      <point x="190" y="343"/>
      <point x="143" y="371"/>
    </contour>
  </outline>
</glyph>
<glyph name="asciitilde_asciitilde_greater" format="2">
  <advance width="614"/>
  <outline>
    <contour>
      <point x="215" y="368" type="qcurve" smooth="yes"/>
      <point x="253" y="335"/>
      <point x="279" y="317"/>
      <point x="291" y="317" type="qcurve" smooth="yes"/>
      <point x="302" y="317"/>
      <point x="355" y="330"/>
      <point x="425" y="349" type="qcurve"/>
      <point x="98" y="629" type="line"/>
      <point x="130" y="665" type="line"/>
      <point x="522" y="329" type="line"/>
      <point x="522" y="325" type="line"/>
      <point x="130" y="-11" type="line"/>
      <point x="98" y="25" type="line"/>
      <point x="421" y="302" type="line"/>
      <point x="350" y="280"/>
      <point x="303" y="268"/>
      <point x="288" y="268" type="qcurve" smooth="yes"/>
      <point x="267" y="268"/>
      <point x="225" y="293"/>
      <point x="186" y="326" type="qcurve" smooth="yes"/>
      <point x="158" y="350"/>
      <point x="126" y="367"/>
      <point x="109" y="367" type="qcurve" smooth="yes"/>
      <point x="92" y="367"/>
      <point x="52" y="344"/>
      <point x="6" y="309" type="qcurve" smooth="yes"/>
      <point x="-55" y="262"/>
      <point x="-117" y="227"/>
      <point x="-141" y="227" type="qcurve" smooth="yes"/>
      <point x="-162" y="227"/>
      <point x="-215" y="256"/>
      <point x="-273" y="300" type="qcurve" smooth="yes"/>
      <point x="-325" y="339"/>
      <point x="-372" y="367"/>
      <point x="-391" y="367" type="qcurve" smooth="yes"/>
      <point x="-408" y="367"/>
      <point x="-448" y="344"/>
      <point x="-494" y="309" type="qcurve" smooth="yes"/>
      <point x="-555" y="262"/>
      <point x="-617" y="227"/>
      <point x="-641" y="227" type="qcurve" smooth="yes"/>
      <point x="-662" y="227"/>
      <point x="-715" y="256"/>
      <point x="-773" y="300" type="qcurve" smooth="yes"/>
      <point x="-825" y="339"/>
      <point x="-872" y="367"/>
      <point x="-891" y="367" type="qcurve" smooth="yes"/>
      <point x="-907" y="367"/>
      <point x="-935" y="326"/>
      <point x="-980" y="220" type="qcurve"/>
      <point x="-1028" y="240" type="line"/>
      <point x="-990" y="342"/>
      <point x="-927" y="428"/>
      <point x="-885" y="428" type="qcurve" smooth="yes"/>
      <point x="-864" y="428"/>
      <point x="-811" y="399"/>
      <point x="-753" y="355" type="qcurve" smooth="yes"/>
      <point x="-701" y="316"/>
      <point x="-654" y="288"/>
      <point x="-635" y="288" type="qcurve" smooth="yes"/>
      <point x="-618" y="288"/>
      <point x="-576" y="312"/>
      <point x="-527" y="350" type="qcurve" smooth="yes"/>
      <point x="-469" y="395"/>
      <point x="-409" y="428"/>
      <point x="-385" y="428" type="qcurve" smooth="yes"/>
      <point x="-364" y="428"/>
      <point x="-311" y="399"/>
      <point x="-253" y="355" type="qcurve" smooth="yes"/>
      <point x="-201" y="316"/>
      <point x="-154" y="288"/>
      <point x="-135" y="288" type="qcurve" smooth="yes"/>
      <point x="-118" y="288"/>
      <point x="-76" y="312"/>
      <point x="-27" y="350" type="qcurve" smooth="yes"/>
      <point x="31" y="395"/>
      <point x="91" y="428"/>
      <point x="115" y="428" type="qcurve" smooth="yes"/>
      <point x="131" y="428"/>
      <point x="178" y="400"/>
    </contour>
  </outline>
</glyph>
<glyph name="asciitilde_at.liga" format="2">
  <advance width="614"/>
  <outline>
    <contour>
      <point x="87" y="611" type="qcurve" smooth="yes"/>
      <point x="69" y="587"/>
      <point x="31" y="508"/>
      <point x="-2" y="419" type="qcurve" smooth="yes"/>
      <point x="-42" y="315"/>
      <point x="-104" y="231"/>
      <point x="-145" y="231" type="qcurve" smooth="yes"/>
      <point x="-166" y="231"/>
      <point x="-219" y="260"/>
      <point x="-277" y="304" type="qcurve" smooth="yes"/>
      <point x="-329" y="343"/>
      <point x="-376" y="371"/>
      <point x="-395" y="371" type="qcurve" smooth="yes"/>
      <point x="-411" y="371"/>
      <point x="-439" y="330"/>
      <point x="-484" y="224" type="qcurve"/>
      <point x="-532" y="244" type="line"/>
      <point x="-494" y="346"/>
      <point x="-431" y="432"/>
      <point x="-389" y="432" type="qcurve" smooth="yes"/>
      <point x="-368" y="432"/>
      <point x="-315" y="403"/>
      <point x="-257" y="359" type="qcurve" smooth="yes"/>
      <point x="-205" y="320"/>
      <point x="-158" y="292"/>
      <point x="-139" y="292" type="qcurve" smooth="yes"/>
      <point x="-119" y="292"/>
      <point x="-83" y="353"/>
      <point x="-50" y="439" type="qcurve" smooth="yes"/>
      <point x="-14" y="534"/>
      <point x="34" y="627"/>
      <point x="60" y="654" type="qcurve" smooth="yes"/>
      <point x="95" y="693"/>
      <point x="197" y="725"/>
      <point x="284" y="725" type="qcurve" smooth="yes"/>
      <point x="365" y="725"/>
      <point x="456" y="668"/>
      <point x="479" y="604" type="qcurve" smooth="yes"/>
      <point x="495" y="562"/>
      <point x="510" y="440"/>
      <point x="510" y="358" type="qcurve" smooth="yes"/>
      <point x="510" y="237"/>
      <point x="420" y="129"/>
      <point x="314" y="129" type="qcurve" smooth="yes"/>
      <point x="214" y="129"/>
      <point x="124" y="222"/>
      <point x="124" y="323" type="qcurve" smooth="yes"/>
      <point x="124" y="420"/>
      <point x="222" y="515"/>
      <point x="323" y="515" type="qcurve" smooth="yes"/>
      <point x="454" y="515" type="line"/>
      <point x="441" y="606"/>
      <point x="364" y="680"/>
      <point x="278" y="680" type="qcurve" smooth="yes"/>
      <point x="200" y="680"/>
      <point x="116" y="649"/>
    </contour>
    <contour>
      <point x="179" y="322" type="qcurve" smooth="yes"/>
      <point x="179" y="244"/>
      <point x="243" y="175"/>
      <point x="318" y="175" type="qcurve" smooth="yes"/>
      <point x="397" y="175"/>
      <point x="463" y="259"/>
      <point x="463" y="356" type="qcurve" smooth="yes"/>
      <point x="463" y="392"/>
      <point x="461" y="446"/>
      <point x="459" y="469" type="qcurve"/>
      <point x="321" y="469" type="line" smooth="yes"/>
      <point x="247" y="469"/>
      <point x="179" y="398"/>
    </contour>
  </outline>
</glyph>
<glyph name="asciitilde_greater.liga" format="2">
  <advance width="614"/>
  <outline>
    <contour>
      <point x="-243" y="355" type="qcurve" smooth="yes"/>
      <point x="-191" y="316"/>
      <point x="-144" y="288"/>
      <point x="-125" y="288" type="qcurve" smooth="yes"/>
      <point x="-108" y="288"/>
      <point x="-66" y="312"/>
      <point x="-17" y="350" type="qcurve" smooth="yes"/>
      <point x="41" y="395"/>
      <point x="101" y="428"/>
      <point x="125" y="428" type="qcurve" smooth="yes"/>
      <point x="141" y="428"/>
      <point x="188" y="400"/>
      <point x="225" y="368" type="qcurve" smooth="yes"/>
      <point x="263" y="335"/>
      <point x="289" y="317"/>
      <point x="301" y="317" type="qcurve" smooth="yes"/>
      <point x="309" y="317"/>
      <point x="342" y="325"/>
      <point x="426" y="348" type="qcurve"/>
      <point x="98" y="629" type="line"/>
      <point x="130" y="665" type="line"/>
      <point x="522" y="329" type="line"/>
      <point x="522" y="325" type="line"/>
      <point x="130" y="-11" type="line"/>
      <point x="98" y="25" type="line"/>
      <point x="419" y="300" type="line"/>
      <point x="357" y="280"/>
      <point x="312" y="268"/>
      <point x="298" y="268" type="qcurve" smooth="yes"/>
      <point x="277" y="268"/>
      <point x="235" y="293"/>
      <point x="196" y="326" type="qcurve" smooth="yes"/>
      <point x="168" y="350"/>
      <point x="136" y="367"/>
      <point x="119" y="367" type="qcurve" smooth="yes"/>
      <point x="102" y="367"/>
      <point x="62" y="344"/>
      <point x="16" y="309" type="qcurve" smooth="yes"/>
      <point x="-45" y="262"/>
      <point x="-107" y="227"/>
      <point x="-131" y="227" type="qcurve" smooth="yes"/>
      <point x="-152" y="227"/>
      <point x="-205" y="256"/>
      <point x="-263" y="300" type="qcurve" smooth="yes"/>
      <point x="-315" y="339"/>
      <point x="-362" y="367"/>
      <point x="-381" y="367" type="qcurve" smooth="yes"/>
      <point x="-397" y="367"/>
      <point x="-425" y="326"/>
      <point x="-470" y="220" type="qcurve"/>
      <point x="-518" y="240" type="line"/>
      <point x="-480" y="342"/>
      <point x="-417" y="428"/>
      <point x="-375" y="428" type="qcurve" smooth="yes"/>
      <point x="-354" y="428"/>
      <point x="-301" y="399"/>
    </contour>
  </outline>
</glyph>
<glyph name="asciitilde_hyphen.liga" format="2">
  <advance width="614"/>
  <outline>
    <contour>
      <point x="-40" y="343" type="qcurve" smooth="yes"/>
      <point x="-12" y="348"/>
      <point x="21" y="352"/>
      <point x="36" y="352" type="qcurve" smooth="yes"/>
      <point x="491" y="352" type="line"/>
      <point x="491" y="301" type="line"/>
      <point x="36" y="301" type="line" smooth="yes"/>
      <point x="20" y="301"/>
      <point x="-8" y="296"/>
      <point x="-31" y="288" type="qcurve" smooth="yes"/>
      <point x="-51" y="280"/>
      <point x="-73" y="276"/>
      <point x="-85" y="276" type="qcurve" smooth="yes"/>
      <point x="-106" y="276"/>
      <point x="-159" y="305"/>
      <point x="-217" y="349" type="qcurve" smooth="yes"/>
      <point x="-269" y="388"/>
      <point x="-316" y="416"/>
      <point x="-335" y="416" type="qcurve" smooth="yes"/>
      <point x="-351" y="416"/>
      <point x="-379" y="375"/>
      <point x="-424" y="269" type="qcurve"/>
      <point x="-472" y="289" type="line"/>
      <point x="-434" y="391"/>
      <point x="-371" y="477"/>
      <point x="-329" y="477" type="qcurve" smooth="yes"/>
      <point x="-308" y="477"/>
      <point x="-255" y="448"/>
      <point x="-197" y="404" type="qcurve" smooth="yes"/>
      <point x="-145" y="365"/>
      <point x="-98" y="337"/>
      <point x="-79" y="337" type="qcurve" smooth="yes"/>
      <point x="-73" y="337"/>
      <point x="-58" y="339"/>
    </contour>
  </outline>
</glyph>
<glyph name="bar_bar_bar_greater.liga" format="2">
  <advance width="614"/>
  <outline>
    <contour>
      <point x="-910" y="783" type="line"/>
      <point x="-852" y="783" type="line"/>
      <point x="-852" y="-129" type="line"/>
      <point x="-910" y="-129" type="line"/>
    </contour>
    <contour>
      <point x="-1324" y="783" type="line"/>
      <point x="-1266" y="783" type="line"/>
      <point x="-1266" y="-129" type="line"/>
      <point x="-1324" y="-129" type="line"/>
    </contour>
    <contour>
      <point x="-496" y="-129" type="line"/>
      <point x="-496" y="783" type="line"/>
      <point x="-450" y="783" type="line"/>
      <point x="195" y="355" type="line"/>
      <point x="195" y="300" type="line"/>
      <point x="-450" y="-129" type="line"/>
    </contour>
    <contour>
      <point x="144" y="327" type="line"/>
      <point x="-438" y="708" type="line"/>
      <point x="-438" y="-54" type="line"/>
    </contour>
  </outline>
</glyph>
<glyph name="bar_braceright.liga" format="2">
  <advance width="614"/>
  <outline>
    <contour>
      <point x="340" y="-36" type="qcurve" smooth="yes"/>
      <point x="340" y="-77"/>
      <point x="291" y="-123"/>
      <point x="245" y="-124" type="qcurve" smooth="yes"/>
      <point x="-68" y="-134" type="line"/>
      <point x="-71" y="-83" type="line"/>
      <point x="238" y="-73" type="line" smooth="yes"/>
      <point x="259" y="-72"/>
      <point x="281" y="-54"/>
      <point x="281" y="-36" type="qcurve" smooth="yes"/>
      <point x="281" y="-28"/>
      <point x="270" y="-9"/>
      <point x="247" y="21" type="qcurve" smooth="yes"/>
      <point x="198" y="83" type="line" smooth="yes"/>
      <point x="163" y="128"/>
      <point x="141" y="165"/>
      <point x="141" y="182" type="qcurve" smooth="yes"/>
      <point x="141" y="212"/>
      <point x="192" y="254"/>
      <point x="249" y="277" type="qcurve" smooth="yes"/>
      <point x="277" y="288"/>
      <point x="350" y="312"/>
      <point x="396" y="325" type="qcurve"/>
      <point x="396" y="329" type="line"/>
      <point x="350" y="342"/>
      <point x="277" y="366"/>
      <point x="249" y="377" type="qcurve" smooth="yes"/>
      <point x="192" y="400"/>
      <point x="141" y="442"/>
      <point x="141" y="472" type="qcurve" smooth="yes"/>
      <point x="141" y="489"/>
      <point x="163" y="526"/>
      <point x="198" y="571" type="qcurve" smooth="yes"/>
      <point x="247" y="633" type="line" smooth="yes"/>
      <point x="270" y="663"/>
      <point x="281" y="682"/>
      <point x="281" y="690" type="qcurve" smooth="yes"/>
      <point x="281" y="708"/>
      <point x="259" y="726"/>
      <point x="238" y="727" type="qcurve" smooth="yes"/>
      <point x="-74" y="737" type="line"/>
      <point x="-71" y="788" type="line"/>
      <point x="245" y="778" type="line" smooth="yes"/>
      <point x="291" y="777"/>
      <point x="340" y="731"/>
      <point x="340" y="690" type="qcurve" smooth="yes"/>
      <point x="340" y="675"/>
      <point x="319" y="635"/>
      <point x="289" y="597" type="qcurve" smooth="yes"/>
      <point x="240" y="535" type="line" smooth="yes"/>
      <point x="215" y="504"/>
      <point x="203" y="483"/>
      <point x="203" y="472" type="qcurve" smooth="yes"/>
      <point x="203" y="452"/>
      <point x="260" y="419"/>
      <point x="323" y="398" type="qcurve" smooth="yes"/>
      <point x="351" y="389"/>
      <point x="422" y="369"/>
      <point x="466" y="357" type="qcurve"/>
      <point x="466" y="297" type="line"/>
      <point x="422" y="285"/>
      <point x="351" y="265"/>
      <point x="323" y="256" type="qcurve" smooth="yes"/>
      <point x="260" y="235"/>
      <point x="203" y="202"/>
      <point x="203" y="182" type="qcurve" smooth="yes"/>
      <point x="203" y="171"/>
      <point x="215" y="150"/>
      <point x="240" y="119" type="qcurve" smooth="yes"/>
      <point x="289" y="57" type="line" smooth="yes"/>
      <point x="319" y="19"/>
      <point x="340" y="-21"/>
    </contour>
    <contour>
      <point x="-277" y="-129" type="line"/>
      <point x="-335" y="-129" type="line"/>
      <point x="-335" y="783" type="line"/>
      <point x="-277" y="783" type="line"/>
    </contour>
  </outline>
</glyph>
<glyph name="bar_greater.liga" format="2">
  <advance width="614"/>
  <outline>
    <contour>
      <point x="-271" y="-129" type="line"/>
      <point x="-317" y="-129" type="line"/>
      <point x="-317" y="783" type="line"/>
      <point x="-271" y="783" type="line"/>
      <point x="374" y="355" type="line"/>
      <point x="374" y="300" type="line"/>
    </contour>
    <contour>
      <point x="323" y="327" type="line"/>
      <point x="-259" y="708" type="line"/>
      <point x="-259" y="-54" type="line"/>
    </contour>
  </outline>
</glyph>
<glyph name="braceleft_bar.liga" format="2">
  <advance width="614"/>
  <outline>
    <contour>
      <point x="-339" y="-36" type="qcurve" smooth="yes"/>
      <point x="-339" y="-21"/>
      <point x="-318" y="19"/>
      <point x="-288" y="57" type="qcurve" smooth="yes"/>
      <point x="-239" y="119" type="line" smooth="yes"/>
      <point x="-214" y="150"/>
      <point x="-202" y="171"/>
      <point x="-202" y="182" type="qcurve" smooth="yes"/>
      <point x="-202" y="202"/>
      <point x="-259" y="235"/>
      <point x="-322" y="256" type="qcurve" smooth="yes"/>
      <point x="-350" y="265"/>
      <point x="-421" y="285"/>
      <point x="-465" y="297" type="qcurve"/>
      <point x="-465" y="357" type="line"/>
      <point x="-421" y="369"/>
      <point x="-350" y="389"/>
      <point x="-322" y="398" type="qcurve" smooth="yes"/>
      <point x="-259" y="419"/>
      <point x="-202" y="452"/>
      <point x="-202" y="472" type="qcurve" smooth="yes"/>
      <point x="-202" y="483"/>
      <point x="-214" y="504"/>
      <point x="-239" y="535" type="qcurve" smooth="yes"/>
      <point x="-288" y="597" type="line" smooth="yes"/>
      <point x="-318" y="635"/>
      <point x="-339" y="675"/>
      <point x="-339" y="690" type="qcurve" smooth="yes"/>
      <point x="-339" y="731"/>
      <point x="-290" y="777"/>
      <point x="-244" y="778" type="qcurve" smooth="yes"/>
      <point x="69" y="788" type="line"/>
      <point x="72" y="737" type="line"/>
      <point x="-237" y="727" type="line" smooth="yes"/>
      <point x="-258" y="726"/>
      <point x="-280" y="708"/>
      <point x="-280" y="690" type="qcurve" smooth="yes"/>
      <point x="-280" y="682"/>
      <point x="-269" y="663"/>
      <point x="-246" y="633" type="qcurve" smooth="yes"/>
      <point x="-197" y="571" type="line" smooth="yes"/>
      <point x="-162" y="526"/>
      <point x="-140" y="489"/>
      <point x="-140" y="472" type="qcurve" smooth="yes"/>
      <point x="-140" y="442"/>
      <point x="-191" y="400"/>
      <point x="-248" y="377" type="qcurve" smooth="yes"/>
      <point x="-276" y="366"/>
      <point x="-349" y="342"/>
      <point x="-395" y="329" type="qcurve"/>
      <point x="-395" y="325" type="line"/>
      <point x="-349" y="312"/>
      <point x="-276" y="288"/>
      <point x="-248" y="277" type="qcurve" smooth="yes"/>
      <point x="-191" y="254"/>
      <point x="-140" y="212"/>
      <point x="-140" y="182" type="qcurve" smooth="yes"/>
      <point x="-140" y="165"/>
      <point x="-162" y="128"/>
      <point x="-197" y="83" type="qcurve" smooth="yes"/>
      <point x="-246" y="21" type="line" smooth="yes"/>
      <point x="-269" y="-9"/>
      <point x="-280" y="-28"/>
      <point x="-280" y="-36" type="qcurve" smooth="yes"/>
      <point x="-280" y="-54"/>
      <point x="-258" y="-72"/>
      <point x="-237" y="-73" type="qcurve" smooth="yes"/>
      <point x="75" y="-83" type="line"/>
      <point x="72" y="-134" type="line"/>
      <point x="-244" y="-124" type="line" smooth="yes"/>
      <point x="-290" y="-123"/>
      <point x="-339" y="-77"/>
    </contour>
    <contour>
      <point x="278" y="783" type="line"/>
      <point x="336" y="783" type="line"/>
      <point x="336" y="-129" type="line"/>
      <point x="278" y="-129" type="line"/>
    </contour>
  </outline>
</glyph>
<glyph name="bracketright_numbersign.liga" format="2">
  <advance width="614"/>
  <outline>
    <contour>
      <point x="154" y="475" type="line"/>
      <point x="191" y="666" type="line"/>
      <point x="242" y="666" type="line"/>
      <point x="204" y="471" type="line"/>
      <point x="347" y="471" type="line"/>
      <point x="385" y="666" type="line"/>
      <point x="436" y="666" type="line"/>
      <point x="399" y="475" type="line"/>
      <point x="511" y="475" type="line"/>
      <point x="511" y="424" type="line"/>
      <point x="389" y="424" type="line"/>
      <point x="353" y="236" type="line"/>
      <point x="482" y="236" type="line"/>
      <point x="482" y="186" type="line"/>
      <point x="343" y="186" type="line"/>
      <point x="305" y="-12" type="line"/>
      <point x="253" y="-12" type="line"/>
      <point x="293" y="190" type="line"/>
      <point x="149" y="190" type="line"/>
      <point x="110" y="-12" type="line"/>
      <point x="60" y="-12" type="line"/>
      <point x="98" y="186" type="line"/>
      <point x="-175" y="186" type="line"/>
      <point x="-175" y="-129" type="line"/>
      <point x="-484" y="-129" type="line"/>
      <point x="-484" y="-78" type="line"/>
      <point x="-236" y="-78" type="line"/>
      <point x="-236" y="732" type="line"/>
      <point x="-484" y="732" type="line"/>
      <point x="-484" y="783" type="line"/>
      <point x="-175" y="783" type="line"/>
      <point x="-175" y="475" type="line"/>
    </contour>
    <contour>
      <point x="157" y="232" type="line"/>
      <point x="301" y="232" type="line"/>
      <point x="339" y="428" type="line"/>
      <point x="195" y="428" type="line"/>
    </contour>
    <contour>
      <point x="-175" y="424" type="line"/>
      <point x="-175" y="236" type="line"/>
      <point x="108" y="236" type="line"/>
      <point x="144" y="424" type="line"/>
    </contour>
  </outline>
</glyph>
<glyph name="brevecmb.cap" format="2">
  <outline>
    <contour>
      <point x="0" y="781" type="qcurve"/>
      <point x="49" y="781"/>
      <point x="114" y="841"/>
      <point x="137" y="909" type="qcurve"/>
      <point x="179" y="897" type="line"/>
      <point x="155" y="808"/>
      <point x="71" y="731"/>
      <point x="0" y="731" type="qcurve"/>
      <point x="-71" y="731"/>
      <point x="-155" y="808"/>
      <point x="-179" y="897" type="qcurve"/>
      <point x="-137" y="909" type="line"/>
      <point x="-114" y="841"/>
      <point x="-49" y="781"/>
    </contour>
  </outline>
</glyph>
<glyph name="brevegrave" format="2">
  <outline>
    <contour>
      <point x="-150" y="908" type="line"/>
      <point x="68" y="762" type="line"/>
      <point x="44" y="728" type="line"/>
      <point x="-181" y="858" type="line"/>
    </contour>
    <contour>
      <point x="0" y="586" type="qcurve"/>
      <point x="48" y="586"/>
      <point x="112" y="648"/>
      <point x="137" y="720" type="qcurve"/>
      <point x="179" y="708" type="line"/>
      <point x="155" y="616"/>
      <point x="71" y="536"/>
      <point x="0" y="536" type="qcurve"/>
      <point x="-71" y="536"/>
      <point x="-155" y="616"/>
      <point x="-179" y="708" type="qcurve"/>
      <point x="-137" y="720" type="line"/>
      <point x="-112" y="648"/>
      <point x="-48" y="586"/>
    </contour>
  </outline>
</glyph>
<glyph name="brevetilde.cap" format="2">
  <outline>
    <contour>
      <point x="-70" y="1075" type="qcurve"/>
      <point x="-55" y="1075"/>
      <point x="-23" y="1054"/>
      <point x="15" y="1020" type="qcurve"/>
      <point x="44" y="993"/>
      <point x="64" y="980"/>
      <point x="73" y="980" type="qcurve"/>
      <point x="88" y="980"/>
      <point x="116" y="1026"/>
      <point x="139" y="1084" type="qcurve"/>
      <point x="183" y="1068" type="line"/>
      <point x="154" y="990"/>
      <point x="107" y="926"/>
      <point x="73" y="926" type="qcurve"/>
      <point x="58" y="926"/>
      <point x="26" y="947"/>
      <point x="-12" y="981" type="qcurve"/>
      <point x="-41" y="1008"/>
      <point x="-61" y="1021"/>
      <point x="-70" y="1021" type="qcurve"/>
      <point x="-85" y="1021"/>
      <point x="-110" y="980"/>
      <point x="-130" y="930" type="qcurve"/>
      <point x="-174" y="946" type="line"/>
      <point x="-148" y="1016"/>
      <point x="-103" y="1075"/>
    </contour>
    <contour>
      <point x="0" y="781" type="qcurve"/>
      <point x="51" y="781"/>
      <point x="117" y="835"/>
      <point x="137" y="894" type="qcurve"/>
      <point x="179" y="882" type="line"/>
      <point x="157" y="803"/>
      <point x="73" y="731"/>
      <point x="0" y="731" type="qcurve"/>
      <point x="-72" y="731"/>
      <point x="-156" y="799"/>
      <point x="-177" y="875" type="qcurve"/>
      <point x="-135" y="887" type="line"/>
      <point x="-116" y="832"/>
      <point x="-51" y="781"/>
    </contour>
  </outline>
</glyph>
<glyph name="brevetilde" format="2">
  <outline>
    <contour>
      <point x="-70" y="904" type="qcurve"/>
      <point x="-55" y="904"/>
      <point x="-23" y="883"/>
      <point x="15" y="849" type="qcurve"/>
      <point x="44" y="822"/>
      <point x="64" y="809"/>
      <point x="73" y="809" type="qcurve"/>
      <point x="88" y="809"/>
      <point x="116" y="855"/>
      <point x="139" y="913" type="qcurve"/>
      <point x="183" y="897" type="line"/>
      <point x="154" y="819"/>
      <point x="107" y="755"/>
      <point x="73" y="755" type="qcurve"/>
      <point x="58" y="755"/>
      <point x="26" y="776"/>
      <point x="-12" y="810" type="qcurve"/>
      <point x="-41" y="837"/>
      <point x="-61" y="850"/>
      <point x="-70" y="850" type="qcurve"/>
      <point x="-85" y="850"/>
      <point x="-110" y="809"/>
      <point x="-130" y="759" type="qcurve"/>
      <point x="-174" y="775" type="line"/>
      <point x="-148" y="845"/>
      <point x="-103" y="904"/>
    </contour>
    <contour>
      <point x="0" y="586" type="qcurve"/>
      <point x="48" y="586"/>
      <point x="112" y="648"/>
      <point x="137" y="720" type="qcurve"/>
      <point x="179" y="708" type="line"/>
      <point x="155" y="616"/>
      <point x="71" y="536"/>
      <point x="0" y="536" type="qcurve"/>
      <point x="-71" y="536"/>
      <point x="-155" y="614"/>
      <point x="-178" y="702" type="qcurve"/>
      <point x="-136" y="714" type="line"/>
      <point x="-112" y="646"/>
      <point x="-48" y="586"/>
    </contour>
  </outline>
</glyph>
<glyph name="circumflexcmb.cap" format="2">
  <outline>
    <contour>
      <point x="-153" y="732" type="line"/>
      <point x="-183" y="762" type="line"/>
      <point x="-18" y="921" type="line"/>
      <point x="18" y="921" type="line"/>
      <point x="183" y="762" type="line"/>
      <point x="153" y="732" type="line"/>
      <point x="0" y="863" type="line"/>
    </contour>
  </outline>
</glyph>
<glyph name="circumflextilde.cap" format="2">
  <outline>
    <contour>
      <point x="-50" y="1080" type="qcurve"/>
      <point x="-35" y="1080"/>
      <point x="-3" y="1059"/>
      <point x="35" y="1025" type="qcurve"/>
      <point x="64" y="998"/>
      <point x="84" y="985"/>
      <point x="93" y="985" type="qcurve"/>
      <point x="108" y="985"/>
      <point x="136" y="1031"/>
      <point x="159" y="1089" type="qcurve"/>
      <point x="203" y="1073" type="line"/>
      <point x="174" y="995"/>
      <point x="127" y="931"/>
      <point x="93" y="931" type="qcurve"/>
      <point x="78" y="931"/>
      <point x="46" y="952"/>
      <point x="8" y="986" type="qcurve"/>
      <point x="-21" y="1013"/>
      <point x="-41" y="1026"/>
      <point x="-50" y="1026" type="qcurve"/>
      <point x="-65" y="1026"/>
      <point x="-90" y="985"/>
      <point x="-110" y="935" type="qcurve"/>
      <point x="-154" y="951" type="line"/>
      <point x="-128" y="1021"/>
      <point x="-83" y="1080"/>
    </contour>
    <contour>
      <point x="-153" y="732" type="line"/>
      <point x="-183" y="762" type="line"/>
      <point x="-18" y="901" type="line"/>
      <point x="18" y="901" type="line"/>
      <point x="183" y="762" type="line"/>
      <point x="153" y="732" type="line"/>
      <point x="0" y="844" type="line"/>
    </contour>
  </outline>
</glyph>
<glyph name="circumflextilde" format="2">
  <outline>
    <contour>
      <point x="-72" y="904" type="qcurve"/>
      <point x="-57" y="904"/>
      <point x="-25" y="883"/>
      <point x="13" y="849" type="qcurve"/>
      <point x="42" y="822"/>
      <point x="62" y="809"/>
      <point x="71" y="809" type="qcurve"/>
      <point x="86" y="809"/>
      <point x="114" y="855"/>
      <point x="137" y="913" type="qcurve"/>
      <point x="181" y="897" type="line"/>
      <point x="152" y="819"/>
      <point x="105" y="755"/>
      <point x="71" y="755" type="qcurve"/>
      <point x="56" y="755"/>
      <point x="24" y="776"/>
      <point x="-14" y="810" type="qcurve"/>
      <point x="-43" y="837"/>
      <point x="-63" y="850"/>
      <point x="-72" y="850" type="qcurve"/>
      <point x="-87" y="850"/>
      <point x="-115" y="804"/>
      <point x="-138" y="746" type="qcurve"/>
      <point x="-182" y="762" type="line"/>
      <point x="-153" y="840"/>
      <point x="-106" y="904"/>
    </contour>
    <contour>
      <point x="-153" y="536" type="line"/>
      <point x="-183" y="566" type="line"/>
      <point x="-18" y="731" type="line"/>
      <point x="18" y="731" type="line"/>
      <point x="183" y="566" type="line"/>
      <point x="153" y="536" type="line"/>
      <point x="0" y="672" type="line"/>
    </contour>
  </outline>
</glyph>
<glyph name="colon_colon_equal.liga" format="2">
  <advance width="614"/>
  <outline>
    <contour>
      <point x="-794" y="501" type="qcurve" smooth="yes"/>
      <point x="-794" y="470"/>
      <point x="-833" y="434"/>
      <point x="-866" y="434" type="qcurve" smooth="yes"/>
      <point x="-898" y="434"/>
      <point x="-936" y="472"/>
      <point x="-936" y="504" type="qcurve" smooth="yes"/>
      <point x="-936" y="533"/>
      <point x="-895" y="571"/>
      <point x="-864" y="571" type="qcurve" smooth="yes"/>
      <point x="-830" y="571"/>
      <point x="-794" y="535"/>
    </contour>
    <contour>
      <point x="-338" y="501" type="qcurve" smooth="yes"/>
      <point x="-338" y="470"/>
      <point x="-377" y="434"/>
      <point x="-410" y="434" type="qcurve" smooth="yes"/>
      <point x="-442" y="434"/>
      <point x="-480" y="472"/>
      <point x="-480" y="504" type="qcurve" smooth="yes"/>
      <point x="-480" y="533"/>
      <point x="-439" y="571"/>
      <point x="-408" y="571" type="qcurve" smooth="yes"/>
      <point x="-374" y="571"/>
      <point x="-338" y="535"/>
    </contour>
    <contour>
      <point x="385" y="392" type="line"/>
      <point x="-33" y="392" type="line"/>
      <point x="-33" y="443" type="line"/>
      <point x="385" y="443" type="line"/>
    </contour>
    <contour>
      <point x="385" y="209" type="line"/>
      <point x="-33" y="209" type="line"/>
      <point x="-33" y="261" type="line"/>
      <point x="385" y="261" type="line"/>
    </contour>
    <contour>
      <point x="-794" y="151" type="qcurve" smooth="yes"/>
      <point x="-794" y="120"/>
      <point x="-833" y="84"/>
      <point x="-866" y="84" type="qcurve" smooth="yes"/>
      <point x="-898" y="84"/>
      <point x="-936" y="122"/>
      <point x="-936" y="154" type="qcurve" smooth="yes"/>
      <point x="-936" y="183"/>
      <point x="-895" y="221"/>
      <point x="-864" y="221" type="qcurve" smooth="yes"/>
      <point x="-830" y="221"/>
      <point x="-794" y="185"/>
    </contour>
    <contour>
      <point x="-338" y="151" type="qcurve" smooth="yes"/>
      <point x="-338" y="120"/>
      <point x="-377" y="84"/>
      <point x="-410" y="84" type="qcurve" smooth="yes"/>
      <point x="-442" y="84"/>
      <point x="-480" y="122"/>
      <point x="-480" y="154" type="qcurve" smooth="yes"/>
      <point x="-480" y="183"/>
      <point x="-439" y="221"/>
      <point x="-408" y="221" type="qcurve" smooth="yes"/>
      <point x="-374" y="221"/>
      <point x="-338" y="185"/>
    </contour>
  </outline>
</glyph>
<glyph name="colon_equal.liga" format="2">
  <advance width="614"/>
  <outline>
    <contour>
      <point x="-296" y="501" type="qcurve" smooth="yes"/>
      <point x="-296" y="470"/>
      <point x="-335" y="434"/>
      <point x="-368" y="434" type="qcurve" smooth="yes"/>
      <point x="-400" y="434"/>
      <point x="-438" y="472"/>
      <point x="-438" y="504" type="qcurve" smooth="yes"/>
      <point x="-438" y="533"/>
      <point x="-397" y="571"/>
      <point x="-366" y="571" type="qcurve" smooth="yes"/>
      <point x="-332" y="571"/>
      <point x="-296" y="535"/>
    </contour>
    <contour>
      <point x="363" y="392" type="line"/>
      <point x="-95" y="392" type="line"/>
      <point x="-95" y="443" type="line"/>
      <point x="363" y="443" type="line"/>
    </contour>
    <contour>
      <point x="363" y="209" type="line"/>
      <point x="-95" y="209" type="line"/>
      <point x="-95" y="261" type="line"/>
      <point x="363" y="261" type="line"/>
    </contour>
    <contour>
      <point x="-296" y="151" type="qcurve" smooth="yes"/>
      <point x="-296" y="120"/>
      <point x="-335" y="84"/>
      <point x="-368" y="84" type="qcurve" smooth="yes"/>
      <point x="-400" y="84"/>
      <point x="-438" y="122"/>
      <point x="-438" y="154" type="qcurve" smooth="yes"/>
      <point x="-438" y="183"/>
      <point x="-397" y="221"/>
      <point x="-366" y="221" type="qcurve" smooth="yes"/>
      <point x="-332" y="221"/>
      <point x="-296" y="185"/>
    </contour>
  </outline>
</glyph>
<glyph name="colon_greater.liga" format="2">
  <advance width="614"/>
  <outline>
    <contour>
      <point x="-226" y="501" type="qcurve" smooth="yes"/>
      <point x="-226" y="470"/>
      <point x="-265" y="434"/>
      <point x="-298" y="434" type="qcurve" smooth="yes"/>
      <point x="-330" y="434"/>
      <point x="-368" y="472"/>
      <point x="-368" y="504" type="qcurve" smooth="yes"/>
      <point x="-368" y="533"/>
      <point x="-327" y="571"/>
      <point x="-296" y="571" type="qcurve" smooth="yes"/>
      <point x="-262" y="571"/>
      <point x="-226" y="535"/>
    </contour>
    <contour>
      <point x="463" y="354" type="line"/>
      <point x="463" y="299" type="line"/>
      <point x="0" y="96" type="line"/>
      <point x="0" y="151" type="line"/>
      <point x="412" y="327" type="line"/>
      <point x="0" y="502" type="line"/>
      <point x="0" y="557" type="line"/>
    </contour>
    <contour>
      <point x="-226" y="151" type="qcurve" smooth="yes"/>
      <point x="-226" y="120"/>
      <point x="-265" y="84"/>
      <point x="-298" y="84" type="qcurve" smooth="yes"/>
      <point x="-330" y="84"/>
      <point x="-368" y="122"/>
      <point x="-368" y="154" type="qcurve" smooth="yes"/>
      <point x="-368" y="183"/>
      <point x="-327" y="221"/>
      <point x="-296" y="221" type="qcurve" smooth="yes"/>
      <point x="-262" y="221"/>
      <point x="-226" y="185"/>
    </contour>
  </outline>
</glyph>
<glyph name="colon_less.liga" format="2">
  <advance width="614"/>
  <outline>
    <contour>
      <point x="-228" y="501" type="qcurve" smooth="yes"/>
      <point x="-228" y="470"/>
      <point x="-267" y="434"/>
      <point x="-300" y="434" type="qcurve" smooth="yes"/>
      <point x="-332" y="434"/>
      <point x="-370" y="472"/>
      <point x="-370" y="504" type="qcurve" smooth="yes"/>
      <point x="-370" y="533"/>
      <point x="-329" y="571"/>
      <point x="-298" y="571" type="qcurve" smooth="yes"/>
      <point x="-264" y="571"/>
      <point x="-228" y="535"/>
    </contour>
    <contour>
      <point x="391" y="151" type="line"/>
      <point x="391" y="96" type="line"/>
      <point x="-72" y="299" type="line"/>
      <point x="-72" y="354" type="line"/>
      <point x="391" y="557" type="line"/>
      <point x="391" y="502" type="line"/>
      <point x="-21" y="327" type="line"/>
    </contour>
    <contour>
      <point x="-228" y="151" type="qcurve" smooth="yes"/>
      <point x="-228" y="120"/>
      <point x="-267" y="84"/>
      <point x="-300" y="84" type="qcurve" smooth="yes"/>
      <point x="-332" y="84"/>
      <point x="-370" y="122"/>
      <point x="-370" y="154" type="qcurve" smooth="yes"/>
      <point x="-370" y="183"/>
      <point x="-329" y="221"/>
      <point x="-298" y="221" type="qcurve" smooth="yes"/>
      <point x="-264" y="221"/>
      <point x="-228" y="185"/>
    </contour>
  </outline>
</glyph>
<glyph name="dieresiscmb.cap" format="2">
  <outline>
    <contour>
      <point x="-79" y="803" type="qcurve"/>
      <point x="-79" y="778"/>
      <point x="-108" y="751"/>
      <point x="-135" y="751" type="qcurve"/>
      <point x="-161" y="751"/>
      <point x="-189" y="778"/>
      <point x="-189" y="803" type="qcurve"/>
      <point x="-189" y="827"/>
      <point x="-159" y="856"/>
      <point x="-134" y="856" type="qcurve"/>
      <point x="-107" y="856"/>
      <point x="-79" y="829"/>
    </contour>
    <contour>
      <point x="188" y="803" type="qcurve"/>
      <point x="188" y="778"/>
      <point x="159" y="751"/>
      <point x="132" y="751" type="qcurve"/>
      <point x="106" y="751"/>
      <point x="78" y="778"/>
      <point x="78" y="803" type="qcurve"/>
      <point x="78" y="827"/>
      <point x="108" y="856"/>
      <point x="133" y="856" type="qcurve"/>
      <point x="160" y="856"/>
      <point x="188" y="829"/>
    </contour>
  </outline>
</glyph>
<glyph name="dieresismacron" format="2">
  <outline>
    <contour>
      <point x="144" y="726" type="line"/>
      <point x="-144" y="726" type="line"/>
      <point x="-144" y="776" type="line"/>
      <point x="144" y="776" type="line"/>
    </contour>
    <contour>
      <point x="-69" y="602" type="qcurve"/>
      <point x="-69" y="580"/>
      <point x="-95" y="556"/>
      <point x="-119" y="556" type="qcurve"/>
      <point x="-142" y="556"/>
      <point x="-166" y="580"/>
      <point x="-166" y="602" type="qcurve"/>
      <point x="-166" y="623"/>
      <point x="-140" y="649"/>
      <point x="-118" y="649" type="qcurve"/>
      <point x="-94" y="649"/>
      <point x="-69" y="625"/>
    </contour>
    <contour>
      <point x="167" y="602" type="qcurve"/>
      <point x="167" y="580"/>
      <point x="141" y="556"/>
      <point x="117" y="556" type="qcurve"/>
      <point x="94" y="556"/>
      <point x="69" y="580"/>
      <point x="69" y="602" type="qcurve"/>
      <point x="69" y="623"/>
      <point x="96" y="649"/>
      <point x="118" y="649" type="qcurve"/>
      <point x="142" y="649"/>
      <point x="167" y="625"/>
    </contour>
  </outline>
</glyph>
<glyph name="dollar_greater.liga" format="2">
  <advance width="614"/>
  <outline>
    <contour>
      <point x="-271" y="1" type="qcurve"/>
      <point x="-271" y="-142" type="line"/>
      <point x="-324" y="-142" type="line"/>
      <point x="-324" y="0" type="line"/>
      <point x="-373" y="2"/>
      <point x="-478" y="26"/>
      <point x="-539" y="49" type="qcurve"/>
      <point x="-520" y="102" type="line"/>
      <point x="-462" y="80"/>
      <point x="-358" y="53"/>
      <point x="-320" y="51" type="qcurve"/>
      <point x="-320" y="311" type="line"/>
      <point x="-417" y="338"/>
      <point x="-511" y="430"/>
      <point x="-511" y="499" type="qcurve" smooth="yes"/>
      <point x="-511" y="562"/>
      <point x="-410" y="648"/>
      <point x="-324" y="654" type="qcurve"/>
      <point x="-324" y="797" type="line"/>
      <point x="-271" y="797" type="line"/>
      <point x="-271" y="655" type="line"/>
      <point x="-188" y="652"/>
      <point x="-28" y="604"/>
      <point x="79" y="552" type="qcurve" smooth="yes"/>
      <point x="492" y="349" type="line"/>
      <point x="492" y="294" type="line"/>
      <point x="79" y="91" type="line"/>
      <point x="79" y="146" type="line"/>
      <point x="447" y="321" type="line"/>
      <point x="55" y="507" type="line" smooth="yes"/>
      <point x="-49" y="556"/>
      <point x="-201" y="602"/>
      <point x="-275" y="605" type="qcurve"/>
      <point x="-275" y="366" type="line"/>
      <point x="-168" y="332"/>
      <point x="-79" y="249"/>
      <point x="-79" y="179" type="qcurve" smooth="yes"/>
      <point x="-79" y="101"/>
      <point x="-179" y="9"/>
    </contour>
    <contour>
      <point x="-448" y="503" type="qcurve" smooth="yes"/>
      <point x="-448" y="455"/>
      <point x="-388" y="396"/>
      <point x="-320" y="373" type="qcurve"/>
      <point x="-320" y="604" type="line"/>
      <point x="-382" y="600"/>
      <point x="-448" y="547"/>
    </contour>
    <contour>
      <point x="-142" y="177" type="qcurve" smooth="yes"/>
      <point x="-142" y="222"/>
      <point x="-205" y="281"/>
      <point x="-275" y="304" type="qcurve"/>
      <point x="-275" y="51" type="line"/>
      <point x="-210" y="58"/>
      <point x="-142" y="123"/>
    </contour>
  </outline>
</glyph>
<glyph name="eight.den" format="2">
  <advance width="614"/>
  <outline>
    <contour>
      <point x="451" y="99" type="qcurve"/>
      <point x="451" y="49"/>
      <point x="370" y="-14"/>
      <point x="306" y="-14" type="qcurve"/>
      <point x="243" y="-14"/>
      <point x="163" y="48"/>
      <point x="163" y="98" type="qcurve"/>
      <point x="163" y="132"/>
      <point x="213" y="185"/>
      <point x="255" y="196" type="qcurve"/>
      <point x="255" y="198" type="line"/>
      <point x="218" y="209"/>
      <point x="175" y="257"/>
      <point x="175" y="288" type="qcurve"/>
      <point x="175" y="336"/>
      <point x="249" y="395"/>
      <point x="308" y="395" type="qcurve"/>
      <point x="366" y="395"/>
      <point x="439" y="337"/>
      <point x="439" y="289" type="qcurve"/>
      <point x="439" y="258"/>
      <point x="397" y="210"/>
      <point x="360" y="199" type="qcurve"/>
      <point x="360" y="197" type="line"/>
      <point x="402" y="186"/>
      <point x="451" y="133"/>
    </contour>
    <contour>
      <point x="225" y="286" type="qcurve"/>
      <point x="225" y="256"/>
      <point x="273" y="215"/>
      <point x="308" y="215" type="qcurve"/>
      <point x="342" y="215"/>
      <point x="389" y="257"/>
      <point x="389" y="287" type="qcurve"/>
      <point x="389" y="318"/>
      <point x="344" y="355"/>
      <point x="307" y="355" type="qcurve"/>
      <point x="270" y="355"/>
      <point x="225" y="317"/>
    </contour>
    <contour>
      <point x="213" y="100" type="qcurve"/>
      <point x="213" y="67"/>
      <point x="266" y="26"/>
      <point x="308" y="26" type="qcurve"/>
      <point x="349" y="26"/>
      <point x="401" y="68"/>
      <point x="401" y="101" type="qcurve"/>
      <point x="401" y="135"/>
      <point x="348" y="177"/>
      <point x="307" y="177" type="qcurve"/>
      <point x="267" y="177"/>
      <point x="213" y="133"/>
    </contour>
  </outline>
</glyph>
<glyph name="equal_asciitilde.liga" format="2">
  <advance width="614"/>
  <outline>
    <contour>
      <point x="148" y="418" type="qcurve" smooth="yes"/>
      <point x="169" y="418"/>
      <point x="207" y="478"/>
      <point x="247" y="565" type="qcurve"/>
      <point x="295" y="545" type="line"/>
      <point x="255" y="444"/>
      <point x="187" y="357"/>
      <point x="142" y="357" type="qcurve" smooth="yes"/>
      <point x="116" y="357"/>
      <point x="52" y="388"/>
      <point x="-10" y="430" type="qcurve" smooth="yes"/>
      <point x="-68" y="469"/>
      <point x="-121" y="497"/>
      <point x="-144" y="497" type="qcurve" smooth="yes"/>
      <point x="-166" y="497"/>
      <point x="-207" y="437"/>
      <point x="-247" y="350" type="qcurve"/>
      <point x="-295" y="370" type="line"/>
      <point x="-255" y="471"/>
      <point x="-184" y="558"/>
      <point x="-138" y="558" type="qcurve" smooth="yes"/>
      <point x="-113" y="558"/>
      <point x="-55" y="529"/>
      <point x="10" y="485" type="qcurve" smooth="yes"/>
      <point x="66" y="447"/>
      <point x="124" y="418"/>
    </contour>
    <contour>
      <point x="148" y="161" type="qcurve" smooth="yes"/>
      <point x="169" y="161"/>
      <point x="207" y="221"/>
      <point x="247" y="308" type="qcurve"/>
      <point x="295" y="288" type="line"/>
      <point x="255" y="187"/>
      <point x="187" y="100"/>
      <point x="142" y="100" type="qcurve" smooth="yes"/>
      <point x="116" y="100"/>
      <point x="52" y="131"/>
      <point x="-10" y="173" type="qcurve" smooth="yes"/>
      <point x="-68" y="212"/>
      <point x="-121" y="240"/>
      <point x="-144" y="240" type="qcurve" smooth="yes"/>
      <point x="-166" y="240"/>
      <point x="-207" y="180"/>
      <point x="-247" y="93" type="qcurve"/>
      <point x="-295" y="113" type="line"/>
      <point x="-255" y="214"/>
      <point x="-184" y="301"/>
      <point x="-138" y="301" type="qcurve" smooth="yes"/>
      <point x="-113" y="301"/>
      <point x="-55" y="272"/>
      <point x="10" y="228" type="qcurve" smooth="yes"/>
      <point x="66" y="190"/>
      <point x="124" y="161"/>
    </contour>
  </outline>
</glyph>
<glyph name="equal_colon_equal.middle" format="2">
  <advance width="614"/>
  <outline>
    <contour>
      <point x="378" y="501" type="qcurve" smooth="yes"/>
      <point x="378" y="470"/>
      <point x="339" y="434"/>
      <point x="306" y="434" type="qcurve" smooth="yes"/>
      <point x="274" y="434"/>
      <point x="236" y="472"/>
      <point x="236" y="504" type="qcurve" smooth="yes"/>
      <point x="236" y="533"/>
      <point x="277" y="571"/>
      <point x="308" y="571" type="qcurve" smooth="yes"/>
      <point x="342" y="571"/>
      <point x="378" y="535"/>
    </contour>
    <contour>
      <point x="23" y="392" type="line"/>
      <point x="-10" y="392" type="line"/>
      <point x="-10" y="443" type="line"/>
      <point x="23" y="443" type="line"/>
    </contour>
    <contour>
      <point x="624" y="392" type="line"/>
      <point x="591" y="392" type="line"/>
      <point x="591" y="443" type="line"/>
      <point x="624" y="443" type="line"/>
    </contour>
    <contour>
      <point x="23" y="209" type="line"/>
      <point x="-10" y="209" type="line"/>
      <point x="-10" y="261" type="line"/>
      <point x="23" y="261" type="line"/>
    </contour>
    <contour>
      <point x="624" y="209" type="line"/>
      <point x="591" y="209" type="line"/>
      <point x="591" y="261" type="line"/>
      <point x="624" y="261" type="line"/>
    </contour>
    <contour>
      <point x="378" y="151" type="qcurve" smooth="yes"/>
      <point x="378" y="120"/>
      <point x="339" y="84"/>
      <point x="306" y="84" type="qcurve" smooth="yes"/>
      <point x="274" y="84"/>
      <point x="236" y="122"/>
      <point x="236" y="154" type="qcurve" smooth="yes"/>
      <point x="236" y="183"/>
      <point x="277" y="221"/>
      <point x="308" y="221" type="qcurve" smooth="yes"/>
      <point x="342" y="221"/>
      <point x="378" y="185"/>
    </contour>
  </outline>
</glyph>
<glyph name="equal_exclam_equal.middle" format="2">
  <advance width="614"/>
  <outline>
    <contour>
      <point x="324" y="227" type="line"/>
      <point x="290" y="227" type="line"/>
      <point x="248" y="710" type="line"/>
      <point x="367" y="710" type="line"/>
    </contour>
    <contour>
      <point x="43" y="392" type="line"/>
      <point x="-10" y="392" type="line"/>
      <point x="-10" y="443" type="line"/>
      <point x="43" y="443" type="line"/>
    </contour>
    <contour>
      <point x="624" y="392" type="line"/>
      <point x="571" y="392" type="line"/>
      <point x="571" y="443" type="line"/>
      <point x="624" y="443" type="line"/>
    </contour>
    <contour>
      <point x="43" y="209" type="line"/>
      <point x="-10" y="209" type="line"/>
      <point x="-10" y="261" type="line"/>
      <point x="43" y="261" type="line"/>
    </contour>
    <contour>
      <point x="624" y="209" type="line"/>
      <point x="571" y="209" type="line"/>
      <point x="571" y="261" type="line"/>
      <point x="624" y="261" type="line"/>
    </contour>
    <contour>
      <point x="368" y="37" type="qcurve" smooth="yes"/>
      <point x="368" y="13"/>
      <point x="335" y="-15"/>
      <point x="306" y="-15" type="qcurve" smooth="yes"/>
      <point x="279" y="-15"/>
      <point x="246" y="14"/>
      <point x="246" y="40" type="qcurve" smooth="yes"/>
      <point x="246" y="62"/>
      <point x="281" y="92"/>
      <point x="308" y="92" type="qcurve" smooth="yes"/>
      <point x="337" y="92"/>
      <point x="368" y="63"/>
    </contour>
  </outline>
</glyph>
<glyph name="equal_greater_greater_equal.m" format="2">
  <advance width="614"/>
  <outline>
    <contour>
      <point x="-62" y="629" type="line"/>
      <point x="-30" y="665" type="line"/>
      <point x="216" y="443" type="line"/>
      <point x="624" y="443" type="line"/>
      <point x="624" y="392" type="line"/>
      <point x="200" y="392" type="line"/>
    </contour>
    <contour>
      <point x="29" y="329" type="line"/>
      <point x="29" y="325" type="line"/>
      <point x="-363" y="-11" type="line"/>
      <point x="-395" y="25" type="line"/>
      <point x="-180" y="209" type="line"/>
      <point x="-624" y="209" type="line"/>
      <point x="-624" y="261" type="line"/>
      <point x="-120" y="261" type="line"/>
      <point x="-43" y="327" type="line"/>
      <point x="-118" y="392" type="line"/>
      <point x="-624" y="392" type="line"/>
      <point x="-624" y="443" type="line"/>
      <point x="-178" y="443" type="line"/>
      <point x="-395" y="629" type="line"/>
      <point x="-363" y="665" type="line"/>
    </contour>
    <contour>
      <point x="213" y="209" type="line"/>
      <point x="-30" y="-11" type="line"/>
      <point x="-62" y="25" type="line"/>
      <point x="198" y="261" type="line"/>
      <point x="624" y="261" type="line"/>
      <point x="624" y="209" type="line"/>
    </contour>
  </outline>
</glyph>
<glyph name="equal_less_equal.middle" format="2">
  <advance width="614"/>
  <outline>
    <contour>
      <point x="227" y="209" type="line"/>
      <point x="-10" y="209" type="line"/>
      <point x="-10" y="261" type="line"/>
      <point x="167" y="261" type="line"/>
      <point x="92" y="325" type="line"/>
      <point x="92" y="329" type="line"/>
      <point x="166" y="392" type="line"/>
      <point x="-10" y="392" type="line"/>
      <point x="-10" y="443" type="line"/>
      <point x="225" y="443" type="line"/>
      <point x="484" y="665" type="line"/>
      <point x="516" y="629" type="line"/>
      <point x="299" y="443" type="line"/>
      <point x="624" y="443" type="line"/>
      <point x="624" y="392" type="line"/>
      <point x="239" y="392" type="line"/>
      <point x="164" y="327" type="line"/>
      <point x="241" y="261" type="line"/>
      <point x="624" y="261" type="line"/>
      <point x="624" y="209" type="line"/>
      <point x="301" y="209" type="line"/>
      <point x="516" y="25" type="line"/>
      <point x="484" y="-11" type="line"/>
    </contour>
  </outline>
</glyph>
<glyph name="equal_less_less_equal.middle" format="2">
  <advance width="614"/>
  <outline>
    <contour>
      <point x="42" y="629" type="line"/>
      <point x="-220" y="392" type="line"/>
      <point x="-624" y="392" type="line"/>
      <point x="-624" y="443" type="line"/>
      <point x="-236" y="443" type="line"/>
      <point x="10" y="665" type="line"/>
    </contour>
    <contour>
      <point x="363" y="-11" type="line"/>
      <point x="-29" y="325" type="line"/>
      <point x="-29" y="329" type="line"/>
      <point x="363" y="665" type="line"/>
      <point x="395" y="629" type="line"/>
      <point x="178" y="443" type="line"/>
      <point x="624" y="443" type="line"/>
      <point x="624" y="392" type="line"/>
      <point x="118" y="392" type="line"/>
      <point x="43" y="327" type="line"/>
      <point x="120" y="261" type="line"/>
      <point x="624" y="261" type="line"/>
      <point x="624" y="209" type="line"/>
      <point x="180" y="209" type="line"/>
      <point x="395" y="25" type="line"/>
    </contour>
    <contour>
      <point x="-233" y="209" type="line"/>
      <point x="-624" y="209" type="line"/>
      <point x="-624" y="261" type="line"/>
      <point x="-218" y="261" type="line"/>
      <point x="42" y="25" type="line"/>
      <point x="10" y="-11" type="line"/>
    </contour>
  </outline>
</glyph>
<glyph name="equal_slash_equal.middle" format="2">
  <advance width="614"/>
  <outline>
    <contour>
      <point x="214" y="209" type="line"/>
      <point x="-10" y="209" type="line"/>
      <point x="-10" y="261" type="line"/>
      <point x="242" y="261" type="line"/>
      <point x="279" y="327" type="line"/>
      <point x="314" y="392" type="line"/>
      <point x="-10" y="392" type="line"/>
      <point x="-10" y="443" type="line"/>
      <point x="341" y="443" type="line"/>
      <point x="507" y="755" type="line"/>
      <point x="572" y="755" type="line"/>
      <point x="399" y="443" type="line"/>
      <point x="624" y="443" type="line"/>
      <point x="624" y="392" type="line"/>
      <point x="371" y="392" type="line"/>
      <point x="335" y="327" type="line"/>
      <point x="300" y="261" type="line"/>
      <point x="624" y="261" type="line"/>
      <point x="624" y="209" type="line"/>
      <point x="273" y="209" type="line"/>
      <point x="109" y="-100" type="line"/>
      <point x="42" y="-100" type="line"/>
    </contour>
  </outline>
</glyph>
<glyph name="equal_slash_slash.end" format="2">
  <advance width="614"/>
  <outline>
    <contour>
      <point x="407" y="755" type="line"/>
      <point x="472" y="755" type="line"/>
      <point x="9" y="-100" type="line"/>
      <point x="-58" y="-100" type="line"/>
    </contour>
    <contour>
      <point x="82" y="755" type="line"/>
      <point x="147" y="755" type="line"/>
      <point x="-316" y="-100" type="line"/>
      <point x="-383" y="-100" type="line"/>
      <point x="-215" y="209" type="line"/>
      <point x="-1238" y="209" type="line"/>
      <point x="-1238" y="261" type="line"/>
      <point x="-187" y="261" type="line"/>
      <point x="-115" y="392" type="line"/>
      <point x="-1238" y="392" type="line"/>
      <point x="-1238" y="443" type="line"/>
      <point x="-88" y="443" type="line"/>
    </contour>
  </outline>
</glyph>
<glyph name="equal_slash_slash_equal.middle" format="2">
  <advance width="614"/>
  <outline>
    <contour>
      <point x="31" y="755" type="line"/>
      <point x="96" y="755" type="line"/>
      <point x="-367" y="-100" type="line"/>
      <point x="-434" y="-100" type="line"/>
      <point x="-266" y="209" type="line"/>
      <point x="-624" y="209" type="line"/>
      <point x="-624" y="261" type="line"/>
      <point x="-238" y="261" type="line"/>
      <point x="-166" y="392" type="line"/>
      <point x="-624" y="392" type="line"/>
      <point x="-624" y="443" type="line"/>
      <point x="-139" y="443" type="line"/>
    </contour>
    <contour>
      <point x="369" y="755" type="line"/>
      <point x="434" y="755" type="line"/>
      <point x="265" y="443" type="line"/>
      <point x="624" y="443" type="line"/>
      <point x="624" y="392" type="line"/>
      <point x="237" y="392" type="line"/>
      <point x="166" y="261" type="line"/>
      <point x="624" y="261" type="line"/>
      <point x="624" y="209" type="line"/>
      <point x="138" y="209" type="line"/>
      <point x="-29" y="-100" type="line"/>
      <point x="-96" y="-100" type="line"/>
    </contour>
  </outline>
</glyph>
<glyph name="exclam_asciitilde.liga" format="2">
  <advance width="614"/>
  <outline>
    <contour>
      <point x="148" y="161" type="qcurve" smooth="yes"/>
      <point x="169" y="161"/>
      <point x="207" y="221"/>
      <point x="247" y="308" type="qcurve"/>
      <point x="295" y="288" type="line"/>
      <point x="255" y="187"/>
      <point x="187" y="100"/>
      <point x="142" y="100" type="qcurve" smooth="yes"/>
      <point x="116" y="100"/>
      <point x="50" y="134"/>
      <point x="-26" y="186" type="qcurve"/>
      <point x="-133" y="-100" type="line"/>
      <point x="-200" y="-100" type="line"/>
      <point x="-72" y="215" type="line"/>
      <point x="-96" y="229"/>
      <point x="-126" y="240"/>
      <point x="-144" y="240" type="qcurve" smooth="yes"/>
      <point x="-166" y="240"/>
      <point x="-207" y="180"/>
      <point x="-247" y="93" type="qcurve"/>
      <point x="-295" y="113" type="line"/>
      <point x="-255" y="214"/>
      <point x="-184" y="301"/>
      <point x="-138" y="301" type="qcurve" smooth="yes"/>
      <point x="-118" y="301"/>
      <point x="-80" y="285"/>
      <point x="-51" y="266" type="qcurve"/>
      <point x="-21" y="339" type="line"/>
      <point x="9" y="419" type="line"/>
      <point x="-68" y="468"/>
      <point x="-124" y="497"/>
      <point x="-144" y="497" type="qcurve" smooth="yes"/>
      <point x="-166" y="497"/>
      <point x="-207" y="437"/>
      <point x="-247" y="350" type="qcurve"/>
      <point x="-295" y="370" type="line"/>
      <point x="-255" y="471"/>
      <point x="-184" y="558"/>
      <point x="-138" y="558" type="qcurve" smooth="yes"/>
      <point x="-114" y="558"/>
      <point x="-49" y="523"/>
      <point x="28" y="471" type="qcurve"/>
      <point x="135" y="755" type="line"/>
      <point x="200" y="755" type="line"/>
      <point x="74" y="443" type="line"/>
      <point x="97" y="430"/>
      <point x="129" y="418"/>
      <point x="148" y="418" type="qcurve" smooth="yes"/>
      <point x="169" y="418"/>
      <point x="207" y="478"/>
      <point x="247" y="565" type="qcurve"/>
      <point x="295" y="545" type="line"/>
      <point x="255" y="444"/>
      <point x="187" y="357"/>
      <point x="142" y="357" type="qcurve" smooth="yes"/>
      <point x="124" y="357"/>
      <point x="84" y="372"/>
      <point x="53" y="391" type="qcurve"/>
      <point x="23" y="317" type="line"/>
      <point x="-7" y="237" type="line"/>
      <point x="67" y="189"/>
      <point x="123" y="161"/>
    </contour>
  </outline>
</glyph>
<glyph name="exclam_equal_equal.liga" format="2">
  <advance width="614"/>
  <outline>
    <contour>
      <point x="-107" y="755" type="line"/>
      <point x="-42" y="755" type="line"/>
      <point x="-164" y="534" type="line"/>
      <point x="486" y="534" type="line"/>
      <point x="486" y="483" type="line"/>
      <point x="-193" y="483" type="line"/>
      <point x="-265" y="352" type="line"/>
      <point x="486" y="352" type="line"/>
      <point x="486" y="301" type="line"/>
      <point x="-293" y="301" type="line"/>
      <point x="-362" y="170" type="line"/>
      <point x="486" y="170" type="line"/>
      <point x="486" y="118" type="line"/>
      <point x="-390" y="118" type="line"/>
      <point x="-505" y="-100" type="line"/>
      <point x="-572" y="-100" type="line"/>
      <point x="-451" y="118" type="line"/>
      <point x="-1100" y="118" type="line"/>
      <point x="-1100" y="170" type="line"/>
      <point x="-422" y="170" type="line"/>
      <point x="-349" y="301" type="line"/>
      <point x="-1100" y="301" type="line"/>
      <point x="-1100" y="352" type="line"/>
      <point x="-322" y="352" type="line"/>
      <point x="-252" y="483" type="line"/>
      <point x="-1100" y="483" type="line"/>
      <point x="-1100" y="534" type="line"/>
      <point x="-225" y="534" type="line"/>
    </contour>
  </outline>
</glyph>
<glyph name="five.den" format="2">
  <advance width="614"/>
  <outline>
    <contour>
      <point x="182" y="178" type="line"/>
      <point x="196" y="380" type="line"/>
      <point x="430" y="380" type="line"/>
      <point x="430" y="338" type="line"/>
      <point x="239" y="338" type="line"/>
      <point x="228" y="213" type="line"/>
      <point x="253" y="228"/>
      <point x="302" y="243"/>
      <point x="330" y="243" type="qcurve"/>
      <point x="386" y="243"/>
      <point x="451" y="184"/>
      <point x="451" y="131" type="qcurve"/>
      <point x="451" y="71"/>
      <point x="350" y="5"/>
      <point x="245" y="-4" type="qcurve"/>
      <point x="178" y="-10" type="line"/>
      <point x="173" y="34" type="line"/>
      <point x="243" y="41" type="line"/>
      <point x="325" y="49"/>
      <point x="401" y="91"/>
      <point x="401" y="131" type="qcurve"/>
      <point x="401" y="166"/>
      <point x="360" y="202"/>
      <point x="321" y="202" type="qcurve"/>
      <point x="295" y="202"/>
      <point x="243" y="186"/>
      <point x="217" y="170" type="qcurve"/>
      <point x="184" y="175" type="line"/>
    </contour>
  </outline>
</glyph>
<glyph name="greater_colon.liga" format="2">
  <advance width="614"/>
  <outline>
    <contour>
      <point x="378" y="501" type="qcurve" smooth="yes"/>
      <point x="378" y="470"/>
      <point x="339" y="434"/>
      <point x="306" y="434" type="qcurve" smooth="yes"/>
      <point x="274" y="434"/>
      <point x="236" y="472"/>
      <point x="236" y="504" type="qcurve" smooth="yes"/>
      <point x="236" y="533"/>
      <point x="277" y="571"/>
      <point x="308" y="571" type="qcurve" smooth="yes"/>
      <point x="342" y="571"/>
      <point x="378" y="535"/>
    </contour>
    <contour>
      <point x="76" y="354" type="line"/>
      <point x="76" y="299" type="line"/>
      <point x="-387" y="96" type="line"/>
      <point x="-387" y="151" type="line"/>
      <point x="25" y="327" type="line"/>
      <point x="-387" y="502" type="line"/>
      <point x="-387" y="557" type="line"/>
    </contour>
    <contour>
      <point x="378" y="151" type="qcurve" smooth="yes"/>
      <point x="378" y="120"/>
      <point x="339" y="84"/>
      <point x="306" y="84" type="qcurve" smooth="yes"/>
      <point x="274" y="84"/>
      <point x="236" y="122"/>
      <point x="236" y="154" type="qcurve" smooth="yes"/>
      <point x="236" y="183"/>
      <point x="277" y="221"/>
      <point x="308" y="221" type="qcurve" smooth="yes"/>
      <point x="342" y="221"/>
      <point x="378" y="185"/>
    </contour>
  </outline>
</glyph>
<glyph name="greater_equal" format="2">
  <advance width="614"/>
  <outline>
    <contour>
      <point x="269" y="412" type="line"/>
      <point x="-254" y="209" type="line"/>
      <point x="-254" y="264" type="line"/>
      <point x="212" y="440" type="line"/>
      <point x="-254" y="615" type="line"/>
      <point x="-254" y="670" type="line"/>
      <point x="269" y="467" type="line"/>
    </contour>
    <contour>
      <point x="269" y="51" type="line"/>
      <point x="269" y="0" type="line"/>
      <point x="-254" y="0" type="line"/>
      <point x="-254" y="51" type="line"/>
    </contour>
  </outline>
</glyph>
<glyph name="greater_equal_greater.liga" format="2">
  <advance width="614"/>
  <outline>
    <contour>
      <point x="522" y="329" type="line"/>
      <point x="522" y="325" type="line"/>
      <point x="130" y="-11" type="line"/>
      <point x="98" y="25" type="line"/>
      <point x="313" y="209" type="line"/>
      <point x="-782" y="209" type="line"/>
      <point x="-1038" y="-11" type="line"/>
      <point x="-1070" y="25" type="line"/>
      <point x="-795" y="261" type="line"/>
      <point x="373" y="261" type="line"/>
      <point x="450" y="327" type="line"/>
      <point x="375" y="392" type="line"/>
      <point x="-793" y="392" type="line"/>
      <point x="-1070" y="629" type="line"/>
      <point x="-1038" y="665" type="line"/>
      <point x="-779" y="443" type="line"/>
      <point x="315" y="443" type="line"/>
      <point x="98" y="629" type="line"/>
      <point x="130" y="665" type="line"/>
    </contour>
  </outline>
</glyph>
<glyph name="greater_hyphen_greater.liga" format="2">
  <advance width="614"/>
  <outline>
    <contour>
      <point x="522" y="329" type="line"/>
      <point x="522" y="325" type="line"/>
      <point x="130" y="-11" type="line"/>
      <point x="98" y="25" type="line"/>
      <point x="420" y="301" type="line"/>
      <point x="-734" y="301" type="line"/>
      <point x="-1098" y="-11" type="line"/>
      <point x="-1130" y="25" type="line"/>
      <point x="-778" y="327" type="line"/>
      <point x="-1130" y="629" type="line"/>
      <point x="-1098" y="665" type="line"/>
      <point x="-733" y="352" type="line"/>
      <point x="421" y="352" type="line"/>
      <point x="98" y="629" type="line"/>
      <point x="130" y="665" type="line"/>
    </contour>
  </outline>
</glyph>
<glyph name="hookcmb.cap" format="2">
  <outline>
    <contour>
      <point x="144" y="829" type="qcurve"/>
      <point x="144" y="791"/>
      <point x="37" y="741"/>
      <point x="-67" y="731" type="qcurve"/>
      <point x="-81" y="763" type="line"/>
      <point x="-81" y="765" type="line"/>
      <point x="13" y="780"/>
      <point x="87" y="806"/>
      <point x="87" y="826" type="qcurve"/>
      <point x="87" y="846"/>
      <point x="14" y="871"/>
      <point x="-82" y="887" type="qcurve"/>
      <point x="-82" y="890" type="line"/>
      <point x="-49" y="926" type="line"/>
      <point x="58" y="909"/>
      <point x="144" y="867"/>
    </contour>
  </outline>
</glyph>
<glyph name="hungarumlautcmb.cap" format="2">
  <outline>
    <contour>
      <point x="-122" y="731" type="line"/>
      <point x="-153" y="756" type="line"/>
      <point x="-45" y="915" type="line"/>
      <point x="11" y="879" type="line"/>
    </contour>
    <contour>
      <point x="123" y="731" type="line"/>
      <point x="92" y="756" type="line"/>
      <point x="200" y="915" type="line"/>
      <point x="256" y="879" type="line"/>
    </contour>
  </outline>
</glyph>
<glyph name="hyphen_asciitilde.liga" format="2">
  <advance width="614"/>
  <outline>
    <contour>
      <point x="40" y="310" type="qcurve" smooth="yes"/>
      <point x="12" y="305"/>
      <point x="-21" y="301"/>
      <point x="-36" y="301" type="qcurve" smooth="yes"/>
      <point x="-491" y="301" type="line"/>
      <point x="-491" y="352" type="line"/>
      <point x="-36" y="352" type="line" smooth="yes"/>
      <point x="-20" y="352"/>
      <point x="8" y="357"/>
      <point x="31" y="365" type="qcurve" smooth="yes"/>
      <point x="51" y="373"/>
      <point x="73" y="377"/>
      <point x="85" y="377" type="qcurve" smooth="yes"/>
      <point x="106" y="377"/>
      <point x="159" y="348"/>
      <point x="217" y="304" type="qcurve" smooth="yes"/>
      <point x="269" y="265"/>
      <point x="316" y="237"/>
      <point x="335" y="237" type="qcurve" smooth="yes"/>
      <point x="351" y="237"/>
      <point x="379" y="278"/>
      <point x="424" y="384" type="qcurve"/>
      <point x="472" y="364" type="line"/>
      <point x="434" y="262"/>
      <point x="371" y="176"/>
      <point x="329" y="176" type="qcurve" smooth="yes"/>
      <point x="308" y="176"/>
      <point x="255" y="205"/>
      <point x="197" y="249" type="qcurve" smooth="yes"/>
      <point x="145" y="288"/>
      <point x="98" y="316"/>
      <point x="79" y="316" type="qcurve" smooth="yes"/>
      <point x="73" y="316"/>
      <point x="58" y="314"/>
    </contour>
  </outline>
</glyph>
<glyph name="hyphen_greater_hyphen.middle" format="2">
  <advance width="614"/>
  <outline>
    <contour>
      <point x="420" y="301" type="line"/>
      <point x="-10" y="301" type="line"/>
      <point x="-10" y="352" type="line"/>
      <point x="421" y="352" type="line"/>
      <point x="98" y="629" type="line"/>
      <point x="130" y="665" type="line"/>
      <point x="495" y="352" type="line"/>
      <point x="624" y="352" type="line"/>
      <point x="624" y="301" type="line"/>
      <point x="494" y="301" type="line"/>
      <point x="130" y="-11" type="line"/>
      <point x="98" y="25" type="line"/>
    </contour>
  </outline>
</glyph>
<glyph name="hyphen_less.end" format="2">
  <advance width="614"/>
  <outline>
    <contour>
      <point x="164" y="327" type="line"/>
      <point x="516" y="25" type="line"/>
      <point x="484" y="-11" type="line"/>
      <point x="118" y="303" type="line"/>
      <point x="-624" y="303" type="line"/>
      <point x="-624" y="352" type="line"/>
      <point x="119" y="352" type="line"/>
      <point x="484" y="665" type="line"/>
      <point x="516" y="629" type="line"/>
    </contour>
  </outline>
</glyph>
<glyph name="hyphen_less_less_hyphen.middle" format="2">
  <advance width="614"/>
  <outline>
    <contour>
      <point x="363" y="-11" type="line"/>
      <point x="-29" y="325" type="line"/>
      <point x="-29" y="329" type="line"/>
      <point x="363" y="665" type="line"/>
      <point x="395" y="629" type="line"/>
      <point x="72" y="352" type="line"/>
      <point x="624" y="352" type="line"/>
      <point x="624" y="301" type="line"/>
      <point x="73" y="301" type="line"/>
      <point x="395" y="25" type="line"/>
    </contour>
    <contour>
      <point x="-315" y="301" type="line"/>
      <point x="-624" y="301" type="line"/>
      <point x="-624" y="352" type="line"/>
      <point x="-317" y="352" type="line"/>
      <point x="30" y="665" type="line"/>
      <point x="62" y="629" type="line"/>
      <point x="-271" y="327" type="line"/>
      <point x="62" y="25" type="line"/>
      <point x="30" y="-11" type="line"/>
    </contour>
  </outline>
</glyph>
<glyph name="less_asciitilde.liga" format="2">
  <advance width="614"/>
  <outline>
    <contour>
      <point x="242" y="304" type="qcurve" smooth="yes"/>
      <point x="190" y="343"/>
      <point x="143" y="371"/>
      <point x="124" y="371" type="qcurve" smooth="yes"/>
      <point x="107" y="371"/>
      <point x="65" y="347"/>
      <point x="16" y="309" type="qcurve" smooth="yes"/>
      <point x="-42" y="264"/>
      <point x="-102" y="231"/>
      <point x="-126" y="231" type="qcurve" smooth="yes"/>
      <point x="-142" y="231"/>
      <point x="-189" y="259"/>
      <point x="-226" y="291" type="qcurve" smooth="yes"/>
      <point x="-264" y="324"/>
      <point x="-290" y="342"/>
      <point x="-302" y="342" type="qcurve" smooth="yes"/>
      <point x="-312" y="342"/>
      <point x="-353" y="332"/>
      <point x="-431" y="310" type="qcurve"/>
      <point x="-98" y="25" type="line"/>
      <point x="-130" y="-11" type="line"/>
      <point x="-522" y="325" type="line"/>
      <point x="-522" y="329" type="line"/>
      <point x="-130" y="665" type="line"/>
      <point x="-98" y="629" type="line"/>
      <point x="-407" y="365" type="line"/>
      <point x="-357" y="381"/>
      <point x="-314" y="391"/>
      <point x="-299" y="391" type="qcurve" smooth="yes"/>
      <point x="-278" y="391"/>
      <point x="-236" y="366"/>
      <point x="-197" y="333" type="qcurve" smooth="yes"/>
      <point x="-169" y="309"/>
      <point x="-137" y="292"/>
      <point x="-120" y="292" type="qcurve" smooth="yes"/>
      <point x="-103" y="292"/>
      <point x="-63" y="315"/>
      <point x="-17" y="350" type="qcurve" smooth="yes"/>
      <point x="44" y="397"/>
      <point x="106" y="432"/>
      <point x="130" y="432" type="qcurve" smooth="yes"/>
      <point x="151" y="432"/>
      <point x="204" y="403"/>
      <point x="262" y="359" type="qcurve" smooth="yes"/>
      <point x="314" y="320"/>
      <point x="361" y="292"/>
      <point x="380" y="292" type="qcurve" smooth="yes"/>
      <point x="396" y="292"/>
      <point x="424" y="333"/>
      <point x="469" y="439" type="qcurve"/>
      <point x="517" y="419" type="line"/>
      <point x="479" y="317"/>
      <point x="416" y="231"/>
      <point x="374" y="231" type="qcurve" smooth="yes"/>
      <point x="353" y="231"/>
      <point x="300" y="260"/>
    </contour>
  </outline>
</glyph>
<glyph name="less_asciitilde_asciitilde.liga" format="2">
  <advance width="614"/>
  <outline>
    <contour>
      <point x="-829" y="291" type="qcurve" smooth="yes"/>
      <point x="-867" y="324"/>
      <point x="-893" y="342"/>
      <point x="-905" y="342" type="qcurve" smooth="yes"/>
      <point x="-918" y="342"/>
      <point x="-1041" y="308"/>
      <point x="-1042" y="308" type="qcurve"/>
      <point x="-712" y="25" type="line"/>
      <point x="-744" y="-11" type="line"/>
      <point x="-1136" y="325" type="line"/>
      <point x="-1136" y="329" type="line"/>
      <point x="-744" y="665" type="line"/>
      <point x="-712" y="629" type="line"/>
      <point x="-1028" y="359" type="line"/>
      <point x="-953" y="382"/>
      <point x="-915" y="391"/>
      <point x="-902" y="391" type="qcurve" smooth="yes"/>
      <point x="-881" y="391"/>
      <point x="-839" y="366"/>
      <point x="-800" y="333" type="qcurve" smooth="yes"/>
      <point x="-772" y="309"/>
      <point x="-740" y="292"/>
      <point x="-723" y="292" type="qcurve" smooth="yes"/>
      <point x="-706" y="292"/>
      <point x="-666" y="315"/>
      <point x="-620" y="350" type="qcurve" smooth="yes"/>
      <point x="-559" y="397"/>
      <point x="-497" y="432"/>
      <point x="-473" y="432" type="qcurve" smooth="yes"/>
      <point x="-452" y="432"/>
      <point x="-399" y="403"/>
      <point x="-341" y="359" type="qcurve" smooth="yes"/>
      <point x="-289" y="320"/>
      <point x="-242" y="292"/>
      <point x="-223" y="292" type="qcurve" smooth="yes"/>
      <point x="-206" y="292"/>
      <point x="-166" y="315"/>
      <point x="-120" y="350" type="qcurve" smooth="yes"/>
      <point x="-59" y="397"/>
      <point x="3" y="432"/>
      <point x="27" y="432" type="qcurve" smooth="yes"/>
      <point x="48" y="432"/>
      <point x="101" y="403"/>
      <point x="159" y="359" type="qcurve" smooth="yes"/>
      <point x="211" y="320"/>
      <point x="258" y="292"/>
      <point x="277" y="292" type="qcurve" smooth="yes"/>
      <point x="293" y="292"/>
      <point x="321" y="333"/>
      <point x="366" y="439" type="qcurve"/>
      <point x="414" y="419" type="line"/>
      <point x="376" y="317"/>
      <point x="313" y="231"/>
      <point x="271" y="231" type="qcurve" smooth="yes"/>
      <point x="250" y="231"/>
      <point x="197" y="260"/>
      <point x="139" y="304" type="qcurve" smooth="yes"/>
      <point x="87" y="343"/>
      <point x="40" y="371"/>
      <point x="21" y="371" type="qcurve" smooth="yes"/>
      <point x="4" y="371"/>
      <point x="-38" y="347"/>
      <point x="-87" y="309" type="qcurve" smooth="yes"/>
      <point x="-145" y="264"/>
      <point x="-205" y="231"/>
      <point x="-229" y="231" type="qcurve" smooth="yes"/>
      <point x="-250" y="231"/>
      <point x="-303" y="260"/>
      <point x="-361" y="304" type="qcurve" smooth="yes"/>
      <point x="-413" y="343"/>
      <point x="-460" y="371"/>
      <point x="-479" y="371" type="qcurve" smooth="yes"/>
      <point x="-496" y="371"/>
      <point x="-538" y="347"/>
      <point x="-587" y="309" type="qcurve" smooth="yes"/>
      <point x="-645" y="264"/>
      <point x="-705" y="231"/>
      <point x="-729" y="231" type="qcurve" smooth="yes"/>
      <point x="-745" y="231"/>
      <point x="-792" y="259"/>
    </contour>
  </outline>
</glyph>
<glyph name="less_asciitilde_greater.liga" format="2">
  <advance width="614"/>
  <outline>
    <contour>
      <point x="-744" y="-11" type="line"/>
      <point x="-1136" y="325" type="line"/>
      <point x="-1136" y="329" type="line"/>
      <point x="-744" y="665" type="line"/>
      <point x="-712" y="629" type="line"/>
      <point x="-1064" y="327" type="line"/>
      <point x="-712" y="25" type="line"/>
    </contour>
    <contour>
      <point x="522" y="329" type="line"/>
      <point x="522" y="325" type="line"/>
      <point x="130" y="-11" type="line"/>
      <point x="98" y="25" type="line"/>
      <point x="450" y="327" type="line"/>
      <point x="98" y="629" type="line"/>
      <point x="130" y="665" type="line"/>
    </contour>
    <contour>
      <point x="-77" y="304" type="qcurve" smooth="yes"/>
      <point x="-129" y="343"/>
      <point x="-176" y="371"/>
      <point x="-195" y="371" type="qcurve" smooth="yes"/>
      <point x="-212" y="371"/>
      <point x="-254" y="347"/>
      <point x="-303" y="309" type="qcurve" smooth="yes"/>
      <point x="-361" y="264"/>
      <point x="-421" y="231"/>
      <point x="-445" y="231" type="qcurve" smooth="yes"/>
      <point x="-466" y="231"/>
      <point x="-519" y="260"/>
      <point x="-577" y="304" type="qcurve" smooth="yes"/>
      <point x="-629" y="343"/>
      <point x="-676" y="371"/>
      <point x="-695" y="371" type="qcurve" smooth="yes"/>
      <point x="-711" y="371"/>
      <point x="-739" y="330"/>
      <point x="-784" y="224" type="qcurve"/>
      <point x="-832" y="244" type="line"/>
      <point x="-794" y="346"/>
      <point x="-731" y="432"/>
      <point x="-689" y="432" type="qcurve" smooth="yes"/>
      <point x="-668" y="432"/>
      <point x="-615" y="403"/>
      <point x="-557" y="359" type="qcurve" smooth="yes"/>
      <point x="-505" y="320"/>
      <point x="-458" y="292"/>
      <point x="-439" y="292" type="qcurve" smooth="yes"/>
      <point x="-422" y="292"/>
      <point x="-382" y="315"/>
      <point x="-336" y="350" type="qcurve" smooth="yes"/>
      <point x="-275" y="397"/>
      <point x="-213" y="432"/>
      <point x="-189" y="432" type="qcurve" smooth="yes"/>
      <point x="-168" y="432"/>
      <point x="-115" y="403"/>
      <point x="-57" y="359" type="qcurve" smooth="yes"/>
      <point x="-5" y="320"/>
      <point x="42" y="292"/>
      <point x="61" y="292" type="qcurve" smooth="yes"/>
      <point x="77" y="292"/>
      <point x="105" y="333"/>
      <point x="150" y="439" type="qcurve"/>
      <point x="198" y="419" type="line"/>
      <point x="160" y="317"/>
      <point x="97" y="231"/>
      <point x="55" y="231" type="qcurve" smooth="yes"/>
      <point x="34" y="231"/>
      <point x="-19" y="260"/>
    </contour>
  </outline>
</glyph>
<glyph name="less_bar_bar.liga" format="2">
  <advance width="614"/>
  <outline>
    <contour>
      <point x="142" y="-129" type="line"/>
      <point x="84" y="-129" type="line"/>
      <point x="84" y="783" type="line"/>
      <point x="142" y="783" type="line"/>
    </contour>
    <contour>
      <point x="-318" y="-129" type="line"/>
      <point x="-963" y="299" type="line"/>
      <point x="-963" y="354" type="line"/>
      <point x="-318" y="783" type="line"/>
      <point x="-272" y="783" type="line"/>
      <point x="-272" y="-129" type="line"/>
    </contour>
    <contour>
      <point x="-330" y="708" type="line"/>
      <point x="-912" y="327" type="line"/>
      <point x="-330" y="-54" type="line"/>
    </contour>
  </outline>
</glyph>
<glyph name="less_bar_bar_bar.liga" format="2">
  <advance width="614"/>
  <outline>
    <contour>
      <point x="-318" y="-129" type="line"/>
      <point x="-376" y="-129" type="line"/>
      <point x="-376" y="783" type="line"/>
      <point x="-318" y="783" type="line"/>
    </contour>
    <contour>
      <point x="96" y="-129" type="line"/>
      <point x="38" y="-129" type="line"/>
      <point x="38" y="783" type="line"/>
      <point x="96" y="783" type="line"/>
    </contour>
    <contour>
      <point x="-778" y="-129" type="line"/>
      <point x="-1423" y="299" type="line"/>
      <point x="-1423" y="354" type="line"/>
      <point x="-778" y="783" type="line"/>
      <point x="-732" y="783" type="line"/>
      <point x="-732" y="-129" type="line"/>
    </contour>
    <contour>
      <point x="-790" y="708" type="line"/>
      <point x="-1372" y="327" type="line"/>
      <point x="-790" y="-54" type="line"/>
    </contour>
  </outline>
</glyph>
<glyph name="less_colon.liga" format="2">
  <advance width="614"/>
  <outline>
    <contour>
      <point x="368" y="501" type="qcurve" smooth="yes"/>
      <point x="368" y="470"/>
      <point x="329" y="434"/>
      <point x="296" y="434" type="qcurve" smooth="yes"/>
      <point x="264" y="434"/>
      <point x="226" y="472"/>
      <point x="226" y="504" type="qcurve" smooth="yes"/>
      <point x="226" y="533"/>
      <point x="267" y="571"/>
      <point x="298" y="571" type="qcurve" smooth="yes"/>
      <point x="332" y="571"/>
      <point x="368" y="535"/>
    </contour>
    <contour>
      <point x="0" y="151" type="line"/>
      <point x="0" y="96" type="line"/>
      <point x="-463" y="299" type="line"/>
      <point x="-463" y="354" type="line"/>
      <point x="0" y="557" type="line"/>
      <point x="0" y="502" type="line"/>
      <point x="-412" y="327" type="line"/>
    </contour>
    <contour>
      <point x="368" y="151" type="qcurve" smooth="yes"/>
      <point x="368" y="120"/>
      <point x="329" y="84"/>
      <point x="296" y="84" type="qcurve" smooth="yes"/>
      <point x="264" y="84"/>
      <point x="226" y="122"/>
      <point x="226" y="154" type="qcurve" smooth="yes"/>
      <point x="226" y="183"/>
      <point x="267" y="221"/>
      <point x="298" y="221" type="qcurve" smooth="yes"/>
      <point x="332" y="221"/>
      <point x="368" y="185"/>
    </contour>
  </outline>
</glyph>
<glyph name="less_dollar.liga" format="2">
  <advance width="614"/>
  <outline>
    <contour>
      <point x="343" y="1" type="qcurve"/>
      <point x="343" y="-142" type="line"/>
      <point x="290" y="-142" type="line"/>
      <point x="290" y="0" type="line"/>
      <point x="189" y="1"/>
      <point x="23" y="46"/>
      <point x="-78" y="96" type="qcurve" smooth="yes"/>
      <point x="-491" y="299" type="line"/>
      <point x="-491" y="354" type="line"/>
      <point x="-78" y="557" type="line"/>
      <point x="-78" y="502" type="line"/>
      <point x="-446" y="327" type="line"/>
      <point x="-54" y="141" type="line" smooth="yes"/>
      <point x="46" y="94"/>
      <point x="202" y="51"/>
      <point x="294" y="50" type="qcurve"/>
      <point x="294" y="311" type="line"/>
      <point x="197" y="338"/>
      <point x="103" y="430"/>
      <point x="103" y="499" type="qcurve" smooth="yes"/>
      <point x="103" y="562"/>
      <point x="204" y="648"/>
      <point x="290" y="654" type="qcurve"/>
      <point x="290" y="797" type="line"/>
      <point x="343" y="797" type="line"/>
      <point x="343" y="655" type="line"/>
      <point x="381" y="653"/>
      <point x="459" y="639"/>
      <point x="519" y="623" type="qcurve"/>
      <point x="504" y="570" type="line"/>
      <point x="457" y="586"/>
      <point x="375" y="602"/>
      <point x="339" y="604" type="qcurve"/>
      <point x="339" y="366" type="line"/>
      <point x="446" y="332"/>
      <point x="535" y="249"/>
      <point x="535" y="179" type="qcurve" smooth="yes"/>
      <point x="535" y="101"/>
      <point x="435" y="9"/>
    </contour>
    <contour>
      <point x="166" y="503" type="qcurve" smooth="yes"/>
      <point x="166" y="455"/>
      <point x="226" y="396"/>
      <point x="294" y="373" type="qcurve"/>
      <point x="294" y="604" type="line"/>
      <point x="232" y="600"/>
      <point x="166" y="547"/>
    </contour>
    <contour>
      <point x="472" y="177" type="qcurve" smooth="yes"/>
      <point x="472" y="222"/>
      <point x="409" y="281"/>
      <point x="339" y="304" type="qcurve"/>
      <point x="339" y="51" type="line"/>
      <point x="404" y="58"/>
      <point x="472" y="123"/>
    </contour>
  </outline>
</glyph>
